<svg width="391" height="228" fill="none" xmlns="http://www.w3.org/2000/svg"><path d="M23.905 49.113h366.708M23.905 64.082h366.708M23.905 78.75h366.708M23.905 93.269h366.708M23.905 107.938h366.708M23.905 123.055h366.708M23.905 137.424h366.708M23.905 152.391h366.708" stroke="#D9D9D9" stroke-width=".5" stroke-linecap="round"/><path d="m45.16 44.623 9.279 11.076h19.757L95.75 71.864l19.757-8.382 20.655 8.382 19.159-11.674c7.284-2.096 21.853-5.928 21.853-4.49 0 1.436 13.571 23.548 20.356 34.425l20.057-28.439c5.687 2.395 17.362 7.484 18.559 8.682 1.198 1.197 14.469.499 20.955 0l20.356-10.178 82.322 3.293 26.366-10.59" stroke="#6A8CF9" stroke-width="2" stroke-linecap="round"/><path d="M3.022 51.504c-.384 0-.752-.059-1.104-.176a2.438 2.438 0 0 1-.872-.496l.264-.576c.261.213.53.368.808.464.277.096.57.144.88.144.41 0 .722-.086.936-.256.213-.176.32-.427.32-.752 0-.32-.11-.563-.328-.728-.214-.166-.528-.248-.944-.248h-.864v-.616h.808c.352 0 .634-.091.848-.272.213-.182.32-.43.32-.744 0-.288-.099-.507-.296-.656-.192-.155-.467-.232-.824-.232-.603 0-1.126.21-1.568.632l-.264-.568c.224-.224.501-.398.832-.52a2.99 2.99 0 0 1 1.048-.184c.56 0 1 .128 1.32.384.32.256.48.613.48 1.072 0 .346-.099.645-.296.896a1.373 1.373 0 0 1-.792.488v-.088c.394.069.701.232.92.488.218.25.328.565.328.944 0 .496-.176.888-.528 1.176-.347.282-.824.424-1.432.424Zm4.933 0a3.342 3.342 0 0 1-1.392-.304 2.215 2.215 0 0 1-.544-.368l.264-.576c.26.208.528.362.8.464.272.096.557.144.856.144.394 0 .704-.104.928-.312.224-.208.336-.486.336-.832 0-.358-.107-.646-.32-.864-.214-.224-.51-.336-.888-.336a1.57 1.57 0 0 0-.712.16 1.484 1.484 0 0 0-.552.488h-.528v-3.376h3.384v.632H6.923v2.136H6.73c.144-.214.338-.379.584-.496.25-.118.53-.176.84-.176.362 0 .674.074.936.224.266.149.472.36.616.632.149.266.224.578.224.936 0 .357-.08.674-.24.952-.16.272-.39.485-.688.64-.294.154-.643.232-1.048.232Zm4.7 0c-.645 0-1.14-.248-1.487-.744-.347-.502-.52-1.219-.52-2.152 0-.95.173-1.667.52-2.152.346-.491.842-.736 1.488-.736.65 0 1.146.245 1.487.736.347.485.52 1.2.52 2.144 0 .938-.173 1.658-.52 2.16-.346.496-.842.744-1.488.744Zm0-.632c.427 0 .745-.184.953-.552.213-.368.32-.942.32-1.72 0-.779-.107-1.347-.32-1.704-.209-.363-.526-.544-.953-.544-.42 0-.738.181-.951.544-.214.357-.32.925-.32 1.704 0 .778.106 1.352.32 1.72.213.368.53.552.951.552ZM3.023 66.504c-.384 0-.752-.059-1.104-.176a2.438 2.438 0 0 1-.872-.496l.264-.576c.261.213.53.368.808.464.277.096.57.144.88.144.41 0 .722-.086.936-.256.213-.176.32-.427.32-.752 0-.32-.11-.563-.328-.728-.214-.166-.528-.248-.944-.248h-.864v-.616h.808c.352 0 .634-.091.848-.272.213-.182.32-.43.32-.744 0-.288-.099-.507-.296-.656-.192-.155-.467-.232-.824-.232-.603 0-1.126.21-1.568.632l-.264-.568c.224-.224.501-.398.832-.52a2.99 2.99 0 0 1 1.048-.184c.56 0 1 .128 1.32.384.32.256.48.613.48 1.072 0 .346-.099.645-.296.896a1.373 1.373 0 0 1-.792.488v-.088c.394.069.701.232.92.488.218.25.328.565.328.944 0 .496-.176.888-.528 1.176-.347.282-.824.424-1.432.424Zm4.837 0c-.646 0-1.142-.248-1.488-.744-.347-.502-.52-1.219-.52-2.152 0-.95.173-1.667.52-2.152.346-.491.842-.736 1.488-.736.65 0 1.146.245 1.488.736.346.485.52 1.2.52 2.144 0 .938-.174 1.658-.52 2.16-.347.496-.843.744-1.488.744Zm0-.632c.426 0 .744-.184.952-.552.213-.368.32-.942.32-1.72 0-.779-.107-1.347-.32-1.704-.208-.363-.526-.544-.952-.544-.422 0-.739.181-.952.544-.214.357-.32.925-.32 1.704 0 .778.106 1.352.32 1.72.213.368.53.552.952.552Zm4.796.632c-.645 0-1.14-.248-1.487-.744-.347-.502-.52-1.219-.52-2.152 0-.95.173-1.667.52-2.152.346-.491.842-.736 1.488-.736.65 0 1.146.245 1.487.736.347.485.52 1.2.52 2.144 0 .938-.173 1.658-.52 2.16-.346.496-.842.744-1.488.744Zm0-.632c.427 0 .745-.184.953-.552.213-.368.32-.942.32-1.72 0-.779-.107-1.347-.32-1.704-.209-.363-.526-.544-.953-.544-.42 0-.738.181-.951.544-.214.357-.32.925-.32 1.704 0 .778.106 1.352.32 1.72.213.368.53.552.951.552ZM1.342 81.432v-.552l1.968-2.064c.256-.262.445-.512.568-.752.128-.24.192-.488.192-.744 0-.315-.099-.552-.296-.712-.192-.166-.475-.248-.848-.248-.288 0-.56.053-.816.16-.25.101-.49.258-.72.472l-.264-.568c.218-.214.493-.384.824-.512a2.941 2.941 0 0 1 1.056-.192c.576 0 1.021.133 1.336.4.314.261.472.637.472 1.128 0 .357-.088.698-.264 1.024-.17.32-.424.65-.76.992l-1.72 1.744V80.8h2.976v.632H1.342Zm6.613.072a3.342 3.342 0 0 1-1.392-.304 2.215 2.215 0 0 1-.544-.368l.264-.576c.26.208.528.362.8.464.272.096.557.144.856.144.394 0 .704-.104.928-.312.224-.208.336-.486.336-.832 0-.358-.107-.646-.32-.864-.214-.224-.51-.336-.888-.336a1.57 1.57 0 0 0-.712.16 1.484 1.484 0 0 0-.552.488h-.528v-3.376h3.384v.632H6.923v2.136H6.73c.144-.214.338-.379.584-.496.25-.118.53-.176.84-.176.362 0 .674.074.936.224.266.149.472.36.616.632.149.266.224.578.224.936 0 .357-.08.674-.24.952-.16.272-.39.485-.688.64-.294.154-.643.232-1.048.232Zm4.7 0c-.645 0-1.14-.248-1.487-.744-.347-.502-.52-1.219-.52-2.152 0-.95.173-1.667.52-2.152.346-.491.842-.736 1.488-.736.65 0 1.146.245 1.487.736.347.485.52 1.2.52 2.144 0 .938-.173 1.658-.52 2.16-.346.496-.842.744-1.488.744Zm0-.632c.427 0 .745-.184.953-.552.213-.368.32-.942.32-1.72 0-.779-.107-1.347-.32-1.704-.209-.363-.526-.544-.953-.544-.42 0-.738.181-.951.544-.214.357-.32.925-.32 1.704 0 .778.106 1.352.32 1.72.213.368.53.552.951.552ZM1.342 96.432v-.552l1.968-2.064c.256-.262.445-.512.568-.752.128-.24.192-.488.192-.744 0-.315-.099-.552-.296-.712-.192-.166-.475-.248-.848-.248-.288 0-.56.053-.816.16-.25.101-.49.258-.72.472l-.264-.568c.218-.214.493-.384.824-.512a2.941 2.941 0 0 1 1.056-.192c.576 0 1.021.133 1.336.4.314.261.472.637.472 1.128 0 .357-.088.698-.264 1.024-.17.32-.424.65-.76.992l-1.72 1.744V95.8h2.976v.632H1.342Zm6.517.072c-.646 0-1.142-.248-1.488-.744-.347-.502-.52-1.219-.52-2.152 0-.95.173-1.667.52-2.152.346-.491.842-.736 1.488-.736.65 0 1.146.245 1.488.736.346.485.52 1.2.52 2.144 0 .938-.174 1.658-.52 2.16-.347.496-.843.744-1.488.744Zm0-.632c.426 0 .744-.184.952-.552.213-.368.32-.942.32-1.72 0-.779-.107-1.347-.32-1.704-.208-.363-.526-.544-.952-.544-.422 0-.739.181-.952.544-.214.357-.32.925-.32 1.704 0 .778.106 1.352.32 1.72.213.368.53.552.952.552Zm4.796.632c-.645 0-1.14-.248-1.487-.744-.347-.502-.52-1.219-.52-2.152 0-.95.173-1.667.52-2.152.346-.491.842-.736 1.488-.736.65 0 1.146.245 1.487.736.347.485.52 1.2.52 2.144 0 .938-.173 1.658-.52 2.16-.346.496-.842.744-1.488.744Zm0-.632c.427 0 .745-.184.953-.552.213-.368.32-.942.32-1.72 0-.779-.107-1.347-.32-1.704-.209-.363-.526-.544-.953-.544-.42 0-.738.181-.951.544-.214.357-.32.925-.32 1.704 0 .778.106 1.352.32 1.72.213.368.53.552.951.552Zm-11.001 15.56v-.632h1.32v-4.376h.376l-1.576.976v-.728l1.408-.88h.536v5.008h1.24v.632H1.654Zm6.3.072a3.367 3.367 0 0 1-1.391-.304 2.234 2.234 0 0 1-.544-.368l.264-.576c.26.208.528.362.8.464.272.096.557.144.856.144.394 0 .704-.104.928-.312.224-.208.336-.486.336-.832 0-.358-.107-.646-.32-.864-.214-.224-.51-.336-.888-.336-.262 0-.5.053-.712.16a1.48 1.48 0 0 0-.552.488h-.528v-3.376h3.384v.632H6.923v2.136H6.73c.144-.214.338-.379.584-.496.25-.118.53-.176.84-.176.362 0 .674.074.936.224.266.149.472.36.616.632.149.266.224.578.224.936 0 .357-.08.674-.24.952-.16.272-.39.485-.688.64-.294.154-.643.232-1.048.232Zm4.702 0c-.646 0-1.142-.248-1.489-.744-.346-.502-.52-1.219-.52-2.152 0-.95.174-1.667.52-2.152.347-.491.843-.736 1.489-.736.65 0 1.146.245 1.487.736.347.485.52 1.2.52 2.144 0 .938-.173 1.658-.52 2.16-.346.496-.842.744-1.488.744Zm0-.632c.426 0 .743-.184.951-.552.214-.368.32-.942.32-1.72 0-.779-.106-1.347-.32-1.704-.207-.363-.525-.544-.951-.544-.422 0-.74.181-.953.544-.213.357-.32.925-.32 1.704 0 .778.107 1.352.32 1.72.214.368.531.552.953.552Zm-11.002 15.56v-.632h1.32v-4.376h.376l-1.576.976v-.728l1.408-.88h.536v5.008h1.24v.632H1.654Zm6.205.072c-.646 0-1.142-.248-1.488-.744-.347-.502-.52-1.219-.52-2.152 0-.95.173-1.667.52-2.152.346-.491.842-.736 1.488-.736.65 0 1.146.245 1.488.736.346.485.52 1.2.52 2.144 0 .938-.174 1.658-.52 2.16-.347.496-.843.744-1.488.744Zm0-.632c.426 0 .744-.184.952-.552.213-.368.32-.942.32-1.72 0-.779-.107-1.347-.32-1.704-.208-.363-.526-.544-.952-.544-.422 0-.739.181-.952.544-.214.357-.32.925-.32 1.704 0 .778.106 1.352.32 1.72.213.368.53.552.952.552Zm4.796.632c-.645 0-1.14-.248-1.487-.744-.347-.502-.52-1.219-.52-2.152 0-.95.173-1.667.52-2.152.346-.491.842-.736 1.488-.736.65 0 1.146.245 1.487.736.347.485.52 1.2.52 2.144 0 .938-.173 1.658-.52 2.16-.346.496-.842.744-1.488.744Zm0-.632c.427 0 .745-.184.953-.552.213-.368.32-.942.32-1.72 0-.779-.107-1.347-.32-1.704-.209-.363-.526-.544-.953-.544-.42 0-.738.181-.951.544-.214.357-.32.925-.32 1.704 0 .778.106 1.352.32 1.72.213.368.53.552.951.552Zm-4.7 15.632a3.367 3.367 0 0 1-1.392-.304 2.234 2.234 0 0 1-.544-.368l.264-.576c.26.208.528.362.8.464.272.096.557.144.856.144.394 0 .704-.104.928-.312.224-.208.336-.486.336-.832 0-.358-.107-.646-.32-.864-.214-.224-.51-.336-.888-.336-.262 0-.5.053-.712.16a1.48 1.48 0 0 0-.552.488h-.528v-3.376h3.384v.632H6.923v2.136H6.73c.144-.214.338-.379.584-.496.25-.118.53-.176.84-.176.362 0 .674.074.936.224.266.149.472.36.616.632.149.266.224.578.224.936 0 .357-.08.674-.24.952-.16.272-.39.485-.688.64-.294.154-.643.232-1.048.232Zm4.7 0c-.645 0-1.14-.248-1.487-.744-.347-.502-.52-1.219-.52-2.152 0-.95.173-1.667.52-2.152.346-.491.842-.736 1.488-.736.65 0 1.146.245 1.487.736.347.485.52 1.2.52 2.144 0 .938-.173 1.658-.52 2.16-.346.496-.842.744-1.488.744Zm0-.632c.427 0 .745-.184.953-.552.213-.368.32-.942.32-1.72 0-.779-.107-1.347-.32-1.704-.209-.363-.526-.544-.953-.544-.42 0-.738.181-.951.544-.214.357-.32.925-.32 1.704 0 .778.106 1.352.32 1.72.213.368.53.552.951.552Zm0 15.632c-.645 0-1.14-.248-1.487-.744-.347-.502-.52-1.219-.52-2.152 0-.95.173-1.667.52-2.152.346-.491.842-.736 1.488-.736.65 0 1.146.245 1.487.736.347.485.52 1.2.52 2.144 0 .938-.173 1.658-.52 2.16-.346.496-.842.744-1.488.744Zm0-.632c.427 0 .745-.184.953-.552.213-.368.32-.942.32-1.72 0-.779-.107-1.347-.32-1.704-.209-.363-.526-.544-.953-.544-.42 0-.738.181-.951.544-.214.357-.32.925-.32 1.704 0 .778.106 1.352.32 1.72.213.368.53.552.951.552Z" fill="#1F2E4D"/><path d="M157.592 222.16h17.031" stroke="#6A8CF9" stroke-width="2" stroke-linecap="round"/><path d="M182.652 224.983v-5.16h-2.172v-.876h5.424v.876h-2.172v5.16h-1.08Zm4.283 2.592v-7.2a10.643 10.643 0 0 0-.096-1.428h1.056l.132 1.392h-.132c.12-.464.376-.828.768-1.092.392-.272.86-.408 1.404-.408.536 0 1.004.124 1.404.372.4.248.708.608.924 1.08.224.464.336 1.02.336 1.668 0 .648-.112 1.208-.336 1.68-.216.472-.524.832-.924 1.08-.4.248-.868.372-1.404.372-.536 0-1-.132-1.392-.396a2.002 2.002 0 0 1-.78-1.092h.132v3.972h-1.092Zm2.88-3.348c.552 0 .992-.192 1.32-.576.328-.384.492-.948.492-1.692s-.164-1.304-.492-1.68c-.328-.376-.768-.564-1.32-.564s-.992.188-1.32.564c-.32.376-.48.936-.48 1.68 0 .744.16 1.308.48 1.692.328.384.768.576 1.32.576Zm7.059.864c-.592 0-1.104-.124-1.536-.372a2.63 2.63 0 0 1-1.008-1.08c-.24-.472-.36-1.032-.36-1.68 0-.64.12-1.192.36-1.656.24-.472.576-.832 1.008-1.08.432-.256.944-.384 1.536-.384.592 0 1.104.128 1.536.384.44.248.776.608 1.008 1.08.24.464.36 1.016.36 1.656 0 .648-.12 1.208-.36 1.68a2.53 2.53 0 0 1-1.008 1.08c-.432.248-.944.372-1.536.372Zm0-.864c.544 0 .98-.192 1.308-.576.328-.384.492-.948.492-1.692s-.164-1.304-.492-1.68c-.328-.376-.764-.564-1.308-.564-.552 0-.992.188-1.32.564-.32.376-.48.936-.48 1.68 0 .744.16 1.308.48 1.692.328.384.768.576 1.32.576Zm4.463.756v-6.036h.912l2.22 3.948 2.232-3.948h.9v6.036h-.96v-4.812h.264l-2.16 3.84h-.54l-2.16-3.852h.252v4.824h-.96Zm10.761.108c-.904 0-1.62-.284-2.148-.852-.528-.568-.792-1.4-.792-2.496v-1.044c0-1.12.236-2.024.708-2.712.472-.688 1.204-1.152 2.196-1.392l2.208-.552.324.888-2.448.588c-.44.104-.804.292-1.092.564a2.616 2.616 0 0 0-.648.96c-.136.368-.204.76-.204 1.176v.516h-.168c.096-.36.248-.672.456-.936.216-.264.484-.464.804-.6.32-.144.672-.216 1.056-.216.52 0 .976.12 1.368.36.392.24.696.588.912 1.044.224.448.336.984.336 1.608 0 .64-.12 1.192-.36 1.656-.232.464-.564.82-.996 1.068-.432.248-.936.372-1.512.372Zm-.036-.864c.56 0 1-.184 1.32-.552.328-.368.492-.916.492-1.644 0-.712-.164-1.256-.492-1.632-.32-.376-.76-.564-1.32-.564s-1.004.184-1.332.552c-.32.368-.48.892-.48 1.572 0 .76.16 1.328.48 1.704.328.376.772.564 1.332.564Zm8.911.756v-5.16h-2.172v-.876h5.424v.876h-2.172v5.16h-1.08Zm4.247 0v-6.036h1.08v2.136h1.776c.784 0 1.372.168 1.764.504.4.328.6.804.6 1.428 0 .4-.092.748-.276 1.044a1.787 1.787 0 0 1-.804.684c-.352.16-.78.24-1.284.24h-2.856Zm1.08-.756h1.656c.48 0 .84-.096 1.08-.288.248-.2.372-.504.372-.912 0-.408-.124-.708-.372-.9-.24-.192-.6-.288-1.08-.288H226.3v2.388Zm5.016.756v-6.036h1.08v6.036h-1.08Zm5.578.108c-.6 0-1.12-.124-1.56-.372a2.667 2.667 0 0 1-1.032-1.092c-.24-.48-.36-1.048-.36-1.704 0-.648.124-1.2.372-1.656a2.528 2.528 0 0 1 1.032-1.056c.44-.248.956-.372 1.548-.372.392 0 .772.068 1.14.204.368.128.668.316.9.564l-.372.768a2.207 2.207 0 0 0-.768-.492 2.218 2.218 0 0 0-.828-.168c-.592 0-1.056.192-1.392.576-.336.376-.504.924-.504 1.644 0 .728.168 1.288.504 1.68.336.392.8.588 1.392.588.264 0 .536-.052.816-.156.28-.104.54-.268.78-.492l.372.756c-.24.256-.548.452-.924.588-.368.128-.74.192-1.116.192Zm3.237.564h-.924l3.132-9.66h.936l-3.144 9.66Zm3.089-.672v-6.036h.912l2.22 3.948 2.232-3.948h.9v6.036h-.96v-4.812h.264l-2.16 3.84h-.54l-2.16-3.852h.252v4.824h-.96Zm8.132 0v-6.036h1.08v2.496h1.092l1.944-2.496h1.188l-2.256 2.94-.288-.336c.232.024.432.084.6.18.168.088.328.22.48.396.16.176.332.412.516.708l1.248 2.148h-1.176l-1.092-1.86a2.282 2.282 0 0 0-.36-.504.996.996 0 0 0-.408-.252 1.776 1.776 0 0 0-.552-.072h-.936v2.688h-1.08Zm6.251.144-.384-.852a2.5 2.5 0 0 0 .696-.456c.192-.184.34-.416.444-.696a4.11 4.11 0 0 0 .24-1.044c.048-.416.072-.92.072-1.512v-1.62h4.452v6.036h-1.08v-5.184h-2.364v.792c0 .928-.072 1.696-.216 2.304-.136.6-.356 1.076-.66 1.428-.296.352-.696.62-1.2.804ZM38.26 190.498h-5.64v-.656l5.008-2.224v.24l-5.008-2.224v-.648h5.64v.68h-4.648v-.248l4.648 2.088v.472l-4.648 2.088v-.248h4.648v.68Zm.072-8.387c0 .352-.083.661-.248.928a1.652 1.652 0 0 1-.72.624c-.314.149-.688.224-1.12.224-.432 0-.803-.075-1.112-.224a1.653 1.653 0 0 1-.72-.624 1.726 1.726 0 0 1-.248-.928c0-.357.09-.667.272-.928.176-.267.419-.443.728-.528v.096l-.928-.088v-.704l.48.048c.16.011.317.016.472.016h3.072v.728h-.92v-.088c.304.085.547.261.728.528.176.261.264.568.264.92Zm-.576-.168c0-.363-.128-.653-.384-.872-.256-.219-.632-.328-1.128-.328-.496 0-.87.109-1.12.328-.25.219-.376.509-.376.872s.126.656.376.88c.25.219.624.328 1.12.328.496 0 .872-.109 1.128-.328.256-.219.384-.512.384-.88Zm2.232-3.226h-4.8a7.579 7.579 0 0 0-.952.064v-.704l.928-.088v.088c-.31-.08-.552-.25-.728-.512a1.6 1.6 0 0 1-.272-.936c0-.357.083-.669.248-.936.166-.266.406-.472.72-.616.31-.149.68-.224 1.112-.224.432 0 .806.075 1.12.224.315.144.555.35.72.616.165.267.248.579.248.936 0 .358-.088.667-.264.928-.181.256-.424.43-.728.52v-.088h2.648v.728Zm-2.232-1.92c0-.368-.128-.661-.384-.88-.256-.218-.632-.328-1.128-.328-.496 0-.87.11-1.12.328-.25.219-.376.512-.376.88s.126.662.376.88c.25.214.624.32 1.12.32.496 0 .872-.106 1.128-.32.256-.218.384-.512.384-.88Zm.504-2.717h-.888v-.888h.888v.888Zm0-4.48h-.632v-1.32h-4.376v-.376l.976 1.576H33.5l-.88-1.408v-.536h5.008v-1.24h.632v3.304Zm.072-5.821c0 .299-.061.597-.184.896a2.167 2.167 0 0 1-.488.744l-.568-.272c.197-.197.347-.413.448-.648.102-.24.152-.483.152-.728 0-.523-.187-.925-.56-1.208-.378-.283-.938-.424-1.68-.424h-.712v-.08c.293.032.55.125.768.28.213.149.379.339.496.568.117.229.176.491.176.784 0 .336-.077.635-.232.896a1.668 1.668 0 0 1-.632.616 1.9 1.9 0 0 1-.928.224c-.357 0-.674-.077-.952-.232a1.704 1.704 0 0 1-.648-.656 1.885 1.885 0 0 1-.24-.96c0-.693.243-1.227.728-1.6.48-.373 1.157-.56 2.032-.56.645 0 1.195.096 1.648.288.448.187.79.456 1.024.808.235.352.352.773.352 1.264Zm-2.768-.248c0-.235-.05-.44-.152-.616a1.08 1.08 0 0 0-.424-.424 1.26 1.26 0 0 0-.624-.152c-.24 0-.448.051-.624.152a1.081 1.081 0 0 0-.424.424c-.107.176-.16.381-.16.616s.053.443.16.624c.101.176.243.315.424.416.176.096.384.144.624.144.235 0 .443-.048.624-.144.181-.101.323-.24.424-.416.102-.181.152-.389.152-.624ZM57.579 189.949l-5.64-2.496v-.648l5.64-2.536v.768l-1.6.696.192-.32v3.432l-.192-.352 1.6.696v.76Zm-4.808-2.808 2.96 1.248-.168.192v-2.904l.168.152-2.96 1.28v.032Zm4.808-3.611h-4.024v-3.544h4.024v.72h-3.456v2.104h3.456v.72Zm1.728-4.813h-4.8a7.579 7.579 0 0 0-.952.064v-.704l.928-.088v.088c-.31-.08-.552-.25-.728-.512a1.6 1.6 0 0 1-.272-.936c0-.357.082-.669.248-.936.165-.266.405-.472.72-.616.31-.149.68-.224 1.112-.224.432 0 .805.075 1.12.224.314.144.554.35.72.616.165.267.248.579.248.936 0 .358-.088.667-.264.928-.182.256-.424.43-.728.52v-.088h2.648v.728Zm-2.232-1.92c0-.368-.128-.661-.384-.88-.256-.218-.632-.328-1.128-.328-.496 0-.87.11-1.12.328-.25.219-.376.512-.376.88s.125.662.376.88c.25.214.624.32 1.12.32.496 0 .872-.106 1.128-.32.256-.218.384-.512.384-.88Zm.504-2.717h-.888v-.888h.888v.888Zm0-4.48h-.632v-1.32H52.57v-.376l.976 1.576h-.728l-.88-1.408v-.536h5.008v-1.24h.632v3.304Zm.072-5.821c0 .299-.062.597-.184.896a2.167 2.167 0 0 1-.488.744l-.568-.272c.197-.197.346-.413.448-.648.101-.24.152-.483.152-.728 0-.523-.187-.925-.56-1.208-.379-.283-.939-.424-1.68-.424h-.712v-.08c.293.032.55.125.768.28.213.149.378.339.496.568.117.229.176.491.176.784 0 .336-.078.635-.232.896a1.668 1.668 0 0 1-.632.616 1.9 1.9 0 0 1-.928.224c-.358 0-.675-.077-.952-.232a1.704 1.704 0 0 1-.648-.656 1.885 1.885 0 0 1-.24-.96c0-.693.242-1.227.728-1.6.48-.373 1.157-.56 2.032-.56.645 0 1.194.096 1.648.288.448.187.79.456 1.024.808.234.352.352.773.352 1.264Zm-2.768-.248c0-.235-.05-.44-.152-.616a1.08 1.08 0 0 0-.424-.424 1.26 1.26 0 0 0-.624-.152c-.24 0-.448.051-.624.152a1.081 1.081 0 0 0-.424.424c-.107.176-.16.381-.16.616s.053.443.16.624c.101.176.242.315.424.416.176.096.384.144.624.144.234 0 .442-.048.624-.144.181-.101.322-.24.424-.416.101-.181.152-.389.152-.624ZM78.997 190.498h-5.64v-.656l5.008-2.224v.24l-5.008-2.224v-.648h5.64v.68h-4.648v-.248l4.648 2.088v.472l-4.648 2.088v-.248h4.648v.68Zm.072-8.387c0 .352-.083.661-.248.928a1.652 1.652 0 0 1-.72.624c-.315.149-.688.224-1.12.224-.432 0-.803-.075-1.112-.224a1.653 1.653 0 0 1-.72-.624 1.726 1.726 0 0 1-.248-.928c0-.357.09-.667.272-.928.176-.267.419-.443.728-.528v.096l-.928-.088v-.704l.48.048c.16.011.317.016.472.016h3.072v.728h-.92v-.088c.304.085.547.261.728.528.176.261.264.568.264.92Zm-.576-.168c0-.363-.128-.653-.384-.872-.256-.219-.632-.328-1.128-.328-.496 0-.87.109-1.12.328-.25.219-.376.509-.376.872s.125.656.376.88c.25.219.624.328 1.12.328.496 0 .872-.109 1.128-.328.256-.219.384-.512.384-.88Zm.504-3.202h-4.024v-.664h3.336v.216l-3.336-2.496v-.608h4.024v.664h-3.344v-.224l3.344 2.504v.608Zm-4.392-1.776c0 .23-.04.44-.12.632a1.4 1.4 0 0 1-.344.496 1.545 1.545 0 0 1-.576.304l-.152-.416c.256-.096.445-.226.568-.392a1.05 1.05 0 0 0 .176-.624c0-.256-.056-.466-.168-.632-.112-.165-.301-.309-.568-.432l.144-.392c.363.134.627.328.792.584.165.251.248.542.248.872Zm4.392-2.885h-.888v-.888h.888v.888Zm0-4.48h-.632v-1.32h-4.376v-.376l.976 1.576h-.728l-.88-1.408v-.536h5.008v-1.24h.632v3.304Zm.072-5.821c0 .299-.061.597-.184.896a2.167 2.167 0 0 1-.488.744l-.568-.272c.197-.197.347-.413.448-.648.101-.24.152-.483.152-.728 0-.523-.187-.925-.56-1.208-.379-.283-.939-.424-1.68-.424h-.712v-.08c.293.032.55.125.768.28.213.149.379.339.496.568.117.229.176.491.176.784 0 .336-.077.635-.232.896a1.668 1.668 0 0 1-.632.616 1.9 1.9 0 0 1-.928.224c-.357 0-.675-.077-.952-.232a1.704 1.704 0 0 1-.648-.656 1.885 1.885 0 0 1-.24-.96c0-.693.243-1.227.728-1.6.48-.373 1.157-.56 2.032-.56.645 0 1.195.096 1.648.288.448.187.79.456 1.024.808.235.352.352.773.352 1.264Zm-2.768-.248c0-.235-.05-.44-.152-.616a1.08 1.08 0 0 0-.424-.424 1.26 1.26 0 0 0-.624-.152c-.24 0-.448.051-.624.152a1.081 1.081 0 0 0-.424.424c-.107.176-.16.381-.16.616s.053.443.16.624c.101.176.243.315.424.416.176.096.384.144.624.144.235 0 .443-.048.624-.144.181-.101.323-.24.424-.416.101-.181.152-.389.152-.624ZM98.316 191.06h-5.64v-.688h4.688v.184l-4.688-3.536v-.576h5.64v.696h-4.688v-.184l4.688 3.544v.56Zm.072-9.328c0 .549-.163.994-.488 1.336-.33.336-.787.528-1.368.576v.784h1.784v.712h-4.024v-.712h1.664v-.792c-.544-.07-.968-.272-1.272-.608-.31-.336-.464-.768-.464-1.296 0-.395.083-.736.248-1.024.165-.294.405-.52.72-.68.31-.16.68-.24 1.112-.24.432 0 .805.08 1.12.24.31.16.55.386.72.68.165.288.248.629.248 1.024Zm-.576 0c0-.368-.125-.662-.376-.88-.256-.219-.635-.328-1.136-.328-.496 0-.87.109-1.12.328-.256.218-.384.512-.384.88s.128.661.384.88c.25.218.624.328 1.12.328.501 0 .88-.11 1.136-.328.25-.219.376-.512.376-.88Zm.504-2.975h-4.024v-.72h1.664v-2.128h-1.664v-.72h4.024v.72h-1.784v2.128h1.784v.72Zm0-4.677h-.888v-.888h.888v.888Zm0-4.48h-.632v-1.32h-4.376v-.376l.976 1.576h-.728l-.88-1.408v-.536h5.008v-1.24h.632v3.304Zm.072-5.821c0 .299-.061.597-.184.896a2.167 2.167 0 0 1-.488.744l-.568-.272c.197-.197.347-.413.448-.648.101-.24.152-.483.152-.728 0-.523-.187-.925-.56-1.208-.379-.283-.939-.424-1.68-.424h-.712v-.08c.293.032.55.125.768.28.213.149.379.339.496.568.117.229.176.491.176.784 0 .336-.077.635-.232.896a1.668 1.668 0 0 1-.632.616 1.9 1.9 0 0 1-.928.224c-.357 0-.675-.077-.952-.232a1.704 1.704 0 0 1-.648-.656 1.885 1.885 0 0 1-.24-.96c0-.693.243-1.227.728-1.6.48-.373 1.157-.56 2.032-.56.645 0 1.195.096 1.648.288.448.187.79.456 1.024.808.235.352.352.773.352 1.264Zm-2.768-.248c0-.235-.05-.44-.152-.616a1.08 1.08 0 0 0-.424-.424 1.26 1.26 0 0 0-.624-.152c-.24 0-.448.051-.624.152a1.081 1.081 0 0 0-.424.424c-.107.176-.16.381-.16.616s.053.443.16.624c.101.176.243.315.424.416.176.096.384.144.624.144.235 0 .443-.048.624-.144.181-.101.323-.24.424-.416.101-.181.152-.389.152-.624ZM119.329 190.904h-5.64v-.688h4.688v.184l-4.688-3.536v-.576h5.64v.696h-4.688v-.184l4.688 3.544v.56Zm.072-9.329c0 .55-.162.995-.488 1.336-.33.336-.786.528-1.368.576v.784h1.784v.712h-4.024v-.712h1.664v-.792c-.544-.069-.968-.272-1.272-.608-.309-.336-.464-.768-.464-1.296 0-.394.083-.736.248-1.024.166-.293.406-.52.72-.68.31-.16.68-.24 1.112-.24.432 0 .806.08 1.12.24.31.16.55.387.72.68.166.288.248.63.248 1.024Zm-.576 0c0-.368-.125-.661-.376-.88-.256-.218-.634-.328-1.136-.328-.496 0-.869.11-1.12.328-.256.219-.384.512-.384.88s.128.662.384.88c.251.219.624.328 1.12.328.502 0 .88-.109 1.136-.328.251-.218.376-.512.376-.88Zm.6-2.704-.568.256a1.63 1.63 0 0 0-.304-.464 1.207 1.207 0 0 0-.464-.296 2.712 2.712 0 0 0-.696-.16 8.973 8.973 0 0 0-1.008-.048h-1.08v-2.968h4.024v.72h-3.456v1.576h.528c.619 0 1.131.048 1.536.144.4.09.718.237.952.44.235.197.414.464.536.8Zm-.096-4.791h-.888v-.888h.888v.888Zm0-4.48h-.632v-1.32h-4.376v-.376l.976 1.576h-.728l-.88-1.408v-.536h5.008v-1.24h.632v3.304Zm.072-5.821c0 .299-.061.597-.184.896a2.155 2.155 0 0 1-.488.744l-.568-.272c.198-.197.347-.413.448-.648.102-.24.152-.483.152-.728 0-.523-.186-.925-.56-1.208-.378-.283-.938-.424-1.68-.424h-.712v-.08c.294.032.55.125.768.28.214.149.379.339.496.568.118.229.176.491.176.784 0 .336-.077.635-.232.896a1.662 1.662 0 0 1-.632.616 1.899 1.899 0 0 1-.928.224 1.92 1.92 0 0 1-.952-.232 1.709 1.709 0 0 1-.648-.656 1.885 1.885 0 0 1-.24-.96c0-.693.243-1.227.728-1.6.48-.373 1.158-.56 2.032-.56.646 0 1.195.096 1.648.288.448.187.79.456 1.024.808.235.352.352.773.352 1.264Zm-2.768-.248c0-.235-.05-.44-.152-.616a1.074 1.074 0 0 0-.424-.424 1.26 1.26 0 0 0-.624-.152c-.24 0-.448.051-.624.152a1.087 1.087 0 0 0-.424.424 1.17 1.17 0 0 0-.16.616c0 .235.054.443.16.624a1.1 1.1 0 0 0 .424.416c.176.096.384.144.624.144.235 0 .443-.048.624-.144.182-.101.323-.24.424-.416.102-.181.152-.389.152-.624ZM138.648 187.316l-5.64-2.496v-.648l5.64-2.536v.768l-1.6.696.192-.32v3.432l-.192-.352 1.6.696v.76Zm-4.808-2.808 2.96 1.248-.168.192v-2.904l.168.152-2.96 1.28v.032Zm4.808-3.611h-4.024v-1.984c0-.474.091-.826.272-1.056.182-.234.443-.352.784-.352.256 0 .472.088.648.264.171.176.275.406.312.688h-.104c.011-.336.11-.6.296-.792a.914.914 0 0 1 .704-.296c.342 0 .614.131.816.392.198.256.296.616.296 1.08v2.056Zm-.48-.688v-1.32c0-.272-.056-.48-.168-.624-.117-.144-.282-.216-.496-.216-.218 0-.384.072-.496.216-.112.144-.168.352-.168.624v1.32h1.328Zm-1.808 0v-1.232c0-.25-.056-.445-.168-.584a.565.565 0 0 0-.464-.208c-.202 0-.357.07-.464.208-.106.139-.16.334-.16.584v1.232h1.256Zm2.288-3.819h-4.024v-2.856h.584v2.128h3.44v.728Zm0-2.31h-.888v-.888h.888v.888Zm0-4.48h-.632v-1.32h-4.376v-.376l.976 1.576h-.728l-.88-1.408v-.536h5.008v-1.24h.632v3.304Zm.072-5.821c0 .299-.061.597-.184.896a2.155 2.155 0 0 1-.488.744l-.568-.272c.198-.197.347-.413.448-.648.102-.24.152-.483.152-.728 0-.523-.186-.925-.56-1.208-.378-.283-.938-.424-1.68-.424h-.712v-.08c.294.032.55.125.768.28.214.149.379.339.496.568.118.229.176.491.176.784 0 .336-.077.635-.232.896a1.662 1.662 0 0 1-.632.616 1.899 1.899 0 0 1-.928.224 1.92 1.92 0 0 1-.952-.232 1.709 1.709 0 0 1-.648-.656 1.885 1.885 0 0 1-.24-.96c0-.693.243-1.227.728-1.6.48-.373 1.158-.56 2.032-.56.646 0 1.195.096 1.648.288.448.187.79.456 1.024.808.235.352.352.773.352 1.264Zm-2.768-.248c0-.235-.05-.44-.152-.616a1.074 1.074 0 0 0-.424-.424 1.26 1.26 0 0 0-.624-.152c-.24 0-.448.051-.624.152a1.087 1.087 0 0 0-.424.424 1.17 1.17 0 0 0-.16.616c0 .235.054.443.16.624a1.1 1.1 0 0 0 .424.416c.176.096.384.144.624.144.235 0 .443-.048.624-.144.182-.101.323-.24.424-.416.102-.181.152-.389.152-.624ZM159.733 189.181c0 .566-.117 1.051-.352 1.456-.234.4-.568.707-1 .92-.437.214-.952.32-1.544.32-.592 0-1.104-.106-1.536-.32a2.322 2.322 0 0 1-1-.92c-.234-.405-.352-.89-.352-1.456 0-.405.062-.765.184-1.08.118-.314.291-.589.52-.824l.6.272c-.224.256-.384.51-.48.76a2.24 2.24 0 0 0-.152.856c0 .624.192 1.102.576 1.432.384.331.931.496 1.64.496.71 0 1.259-.165 1.648-.496.384-.33.576-.808.576-1.432 0-.325-.048-.61-.144-.856a2.722 2.722 0 0 0-.488-.76l.592-.272c.23.235.406.512.528.832.123.315.184.672.184 1.072Zm0-4.702c0 .64-.184 1.147-.552 1.52-.368.368-.874.552-1.52.552-.426 0-.794-.08-1.104-.24a1.799 1.799 0 0 1-.728-.68 1.894 1.894 0 0 1-.264-1.008c0-.368.08-.68.24-.936a1.48 1.48 0 0 1 .664-.584c.288-.133.63-.2 1.024-.2h.24v3.08h-.432v-2.584l.104.136c-.416 0-.738.093-.968.28-.229.181-.344.451-.344.808 0 .389.136.691.408.904.267.213.632.32 1.096.32h.072c.491 0 .862-.12 1.112-.36.251-.245.376-.584.376-1.016 0-.24-.034-.464-.104-.672a1.849 1.849 0 0 0-.344-.6l.504-.24c.166.181.294.408.384.68.091.267.136.547.136.84Zm-.072-2.589h-4.024v-.72h1.664v-2.128h-1.664v-.72h4.024v.72h-1.784v2.128h1.784v.72Zm0-5.677h-3.44v1.448h-.584v-3.616h.584v1.448h3.44v.72Zm0-2.133h-.888v-.888h.888v.888Zm0-4.48h-.632v-1.32h-4.376v-.376l.976 1.576h-.728l-.88-1.408v-.536h5.008v-1.24h.632v3.304Zm.072-5.821c0 .299-.061.597-.184.896a2.155 2.155 0 0 1-.488.744l-.568-.272c.198-.197.347-.413.448-.648.102-.24.152-.483.152-.728 0-.523-.186-.925-.56-1.208-.378-.283-.938-.424-1.68-.424h-.712v-.08c.294.032.55.125.768.28.214.149.379.339.496.568.118.229.176.491.176.784 0 .336-.077.635-.232.896a1.662 1.662 0 0 1-.632.616 1.899 1.899 0 0 1-.928.224 1.92 1.92 0 0 1-.952-.232 1.709 1.709 0 0 1-.648-.656 1.885 1.885 0 0 1-.24-.96c0-.693.243-1.227.728-1.6.48-.373 1.158-.56 2.032-.56.646 0 1.195.096 1.648.288.448.187.79.456 1.024.808.235.352.352.773.352 1.264Zm-2.768-.248c0-.235-.05-.44-.152-.616a1.074 1.074 0 0 0-.424-.424 1.26 1.26 0 0 0-.624-.152c-.24 0-.448.051-.624.152a1.087 1.087 0 0 0-.424.424 1.17 1.17 0 0 0-.16.616c0 .235.054.443.16.624a1.1 1.1 0 0 0 .424.416c.176.096.384.144.624.144.235 0 .443-.048.624-.144.182-.101.323-.24.424-.416.102-.181.152-.389.152-.624ZM176.156 187.791c-.592 0-1.104-.104-1.536-.312a2.3 2.3 0 0 1-1-.896c-.234-.394-.352-.864-.352-1.408 0-.538.118-1.002.352-1.392a2.347 2.347 0 0 1 1-.912c.432-.213.942-.32 1.528-.32.592 0 1.107.107 1.544.32.432.214.768.518 1.008.912.235.39.352.854.352 1.392 0 .544-.117 1.011-.352 1.4-.24.39-.576.691-1.008.904-.437.208-.949.312-1.536.312Zm0-.784c.704 0 1.254-.154 1.648-.464.395-.309.592-.765.592-1.368 0-.581-.194-1.032-.584-1.352-.394-.325-.946-.488-1.656-.488-.709 0-1.258.16-1.648.48-.389.32-.584.774-.584 1.36 0 .603.195 1.059.584 1.368.39.31.939.464 1.648.464Zm2.824-5.57h-4.024v-.72h1.664v-.728l-1.664-1.296v-.792l1.96 1.504-.224.192c.016-.155.056-.288.12-.4.059-.112.147-.219.264-.32.118-.107.275-.222.472-.344l1.432-.832v.784l-1.24.728c-.144.08-.256.16-.336.24a.66.66 0 0 0-.168.272 1.181 1.181 0 0 0-.048.368v.624h1.792v.72Zm0-5.224h-3.44v1.448h-.584v-3.616h.584v1.448h3.44v.72Zm0-2.133h-.888v-.888h.888v.888Zm0-4.48h-.632v-1.32h-4.376v-.376l.976 1.576h-.728l-.88-1.408v-.536h5.008v-1.24h.632v3.304Zm.072-5.821c0 .299-.061.597-.184.896a2.155 2.155 0 0 1-.488.744l-.568-.272c.198-.197.347-.413.448-.648.102-.24.152-.483.152-.728 0-.523-.186-.925-.56-1.208-.378-.283-.938-.424-1.68-.424h-.712v-.08c.294.032.55.125.768.28.214.149.379.339.496.568.118.229.176.491.176.784 0 .336-.077.635-.232.896a1.662 1.662 0 0 1-.632.616 1.899 1.899 0 0 1-.928.224 1.92 1.92 0 0 1-.952-.232 1.709 1.709 0 0 1-.648-.656 1.885 1.885 0 0 1-.24-.96c0-.693.243-1.227.728-1.6.48-.373 1.158-.56 2.032-.56.646 0 1.195.096 1.648.288.448.187.79.456 1.024.808.235.352.352.773.352 1.264Zm-2.768-.248c0-.235-.05-.44-.152-.616a1.074 1.074 0 0 0-.424-.424 1.26 1.26 0 0 0-.624-.152c-.24 0-.448.051-.624.152a1.087 1.087 0 0 0-.424.424 1.17 1.17 0 0 0-.16.616c0 .235.054.443.16.624a1.1 1.1 0 0 0 .424.416c.176.096.384.144.624.144.235 0 .443-.048.624-.144.182-.101.323-.24.424-.416.102-.181.152-.389.152-.624ZM199.993 189.146h-5.64v-.744h2.464v-3.28h-2.464v-.752h5.64v.752h-2.544v3.28h2.544v.744Zm.072-7.797c0 .395-.082.736-.248 1.024-.17.288-.41.512-.72.672-.314.16-.688.24-1.12.24-.426 0-.794-.08-1.104-.24a1.698 1.698 0 0 1-.72-.672c-.17-.288-.256-.629-.256-1.024 0-.394.086-.736.256-1.024a1.64 1.64 0 0 1 .72-.672c.31-.16.678-.24 1.104-.24.432 0 .806.08 1.12.24.31.155.55.379.72.672.166.288.248.63.248 1.024Zm-.576 0c0-.362-.128-.653-.384-.872-.256-.218-.632-.328-1.128-.328-.496 0-.869.11-1.12.328-.25.219-.376.51-.376.872 0 .368.126.662.376.88.251.214.624.32 1.12.32.496 0 .872-.106 1.128-.32.256-.218.384-.512.384-.88Zm.504-2.655-1.096-.632a1.279 1.279 0 0 1-.424-.384.82.82 0 0 1-.168-.488v-.128l.072.008c0 .453-.101.808-.304 1.064-.208.256-.506.384-.896.384-.384 0-.68-.125-.888-.376-.213-.251-.32-.624-.32-1.12v-1.832h4.024v.672h-1.52v.576c0 .208.054.387.16.536a1.2 1.2 0 0 0 .408.368l.952.544v.808Zm-2.024-1.8v-1.032h-1.504v1.032c0 .315.067.549.2.704.134.149.318.224.552.224.24 0 .427-.075.56-.224.128-.155.192-.389.192-.704Zm2.024-2.814h-.888v-.888h.888v.888Zm0-4.48h-.632v-1.32h-4.376v-.376l.976 1.576h-.728l-.88-1.408v-.536h5.008v-1.24h.632v3.304Zm.072-5.821c0 .299-.061.597-.184.896a2.155 2.155 0 0 1-.488.744l-.568-.272c.198-.197.347-.413.448-.648.102-.24.152-.483.152-.728 0-.523-.186-.925-.56-1.208-.378-.283-.938-.424-1.68-.424h-.712v-.08c.294.032.55.125.768.28.214.149.379.339.496.568.118.229.176.491.176.784 0 .336-.077.635-.232.896a1.662 1.662 0 0 1-.632.616 1.899 1.899 0 0 1-.928.224 1.92 1.92 0 0 1-.952-.232 1.709 1.709 0 0 1-.648-.656 1.885 1.885 0 0 1-.24-.96c0-.693.243-1.227.728-1.6.48-.373 1.158-.56 2.032-.56.646 0 1.195.096 1.648.288.448.187.79.456 1.024.808.235.352.352.773.352 1.264Zm-2.768-.248c0-.235-.05-.44-.152-.616a1.074 1.074 0 0 0-.424-.424 1.26 1.26 0 0 0-.624-.152c-.24 0-.448.051-.624.152a1.087 1.087 0 0 0-.424.424 1.17 1.17 0 0 0-.16.616c0 .235.054.443.16.624a1.1 1.1 0 0 0 .424.416c.176.096.384.144.624.144.235 0 .443-.048.624-.144.182-.101.323-.24.424-.416.102-.181.152-.389.152-.624ZM222.278 189.698h-1.88v-.576c-.341-.288-.805-.498-1.392-.632-.586-.138-1.314-.208-2.184-.208h-1.456v-3.896h5.032v-.832h1.88v.664h-1.272v4.808h1.272v.672Zm-1.88-1.344v-3.232h-4.432v2.472h.912c.848 0 1.555.062 2.12.184.56.123 1.027.315 1.4.576Zm.68-7.461c0 .64-.184 1.147-.552 1.52-.368.368-.874.552-1.52.552-.426 0-.794-.08-1.104-.24a1.799 1.799 0 0 1-.728-.68 1.894 1.894 0 0 1-.264-1.008c0-.368.08-.68.24-.936a1.48 1.48 0 0 1 .664-.584c.288-.133.63-.2 1.024-.2h.24v3.08h-.432v-2.584l.104.136c-.416 0-.738.093-.968.28-.229.181-.344.451-.344.808 0 .389.136.691.408.904.267.213.632.32 1.096.32h.072c.491 0 .862-.12 1.112-.36.251-.245.376-.584.376-1.016 0-.24-.034-.464-.104-.672a1.849 1.849 0 0 0-.344-.6l.504-.24c.166.181.294.408.384.68.091.267.136.547.136.84Zm-.072-2.589h-4.024v-.72h1.664v-.728l-1.664-1.296v-.792l1.96 1.504-.224.192c.016-.155.056-.288.12-.4.059-.112.147-.219.264-.32.118-.107.275-.222.472-.344l1.432-.832v.784l-1.24.728c-.144.08-.256.16-.336.24a.66.66 0 0 0-.168.272 1.181 1.181 0 0 0-.048.368v.624h1.792v.72Zm0-4.224h-.888v-.888h.888v.888Zm0-4.48h-.632v-1.32h-4.376v-.376l.976 1.576h-.728l-.88-1.408v-.536h5.008v-1.24h.632v3.304Zm.072-5.821c0 .299-.061.597-.184.896a2.155 2.155 0 0 1-.488.744l-.568-.272c.198-.197.347-.413.448-.648.102-.24.152-.483.152-.728 0-.523-.186-.925-.56-1.208-.378-.283-.938-.424-1.68-.424h-.712v-.08c.294.032.55.125.768.28.214.149.379.339.496.568.118.229.176.491.176.784 0 .336-.077.635-.232.896a1.662 1.662 0 0 1-.632.616 1.899 1.899 0 0 1-.928.224 1.92 1.92 0 0 1-.952-.232 1.709 1.709 0 0 1-.648-.656 1.885 1.885 0 0 1-.24-.96c0-.693.243-1.227.728-1.6.48-.373 1.158-.56 2.032-.56.646 0 1.195.096 1.648.288.448.187.79.456 1.024.808.235.352.352.773.352 1.264Zm-2.768-.248c0-.235-.05-.44-.152-.616a1.074 1.074 0 0 0-.424-.424 1.26 1.26 0 0 0-.624-.152c-.24 0-.448.051-.624.152a1.087 1.087 0 0 0-.424.424 1.17 1.17 0 0 0-.16.616c0 .235.054.443.16.624a1.1 1.1 0 0 0 .424.416c.176.096.384.144.624.144.235 0 .443-.048.624-.144.182-.101.323-.24.424-.416.102-.181.152-.389.152-.624ZM240.325 189.132l-1.816-1.024c-.234-.128-.405-.272-.512-.432a1.048 1.048 0 0 1-.16-.576v-.216l.112.032c0 .618-.141 1.098-.424 1.44-.288.341-.69.512-1.208.512-.522 0-.925-.166-1.208-.496-.282-.336-.424-.816-.424-1.44v-2.36h5.64v.744h-2.352v.952c0 .261.038.469.112.624.075.154.222.293.44.416l1.8 1.008v.816Zm-2.928-2.312v-1.504h-2.112v1.504c0 .88.352 1.32 1.056 1.32.704 0 1.056-.44 1.056-1.32Zm2.928-3.555h-4.024v-.72h1.664v-2.128h-1.664v-.72h4.024v.72h-1.784v2.128h1.784v.72Zm0-4.813h-4.024v-1.984c0-.474.091-.826.272-1.056.182-.234.443-.352.784-.352.256 0 .472.088.648.264.171.176.275.406.312.688h-.104c.011-.336.11-.6.296-.792a.914.914 0 0 1 .704-.296c.342 0 .614.131.816.392.198.256.296.616.296 1.08v2.056Zm-.48-.688v-1.32c0-.272-.056-.48-.168-.624-.117-.144-.282-.216-.496-.216-.218 0-.384.072-.496.216-.112.144-.168.352-.168.624v1.32h1.328Zm-1.808 0v-1.232c0-.25-.056-.445-.168-.584a.565.565 0 0 0-.464-.208c-.202 0-.357.07-.464.208-.106.139-.16.334-.16.584v1.232h1.256Zm2.288-3.684h-.888v-.888h.888v.888Zm0-4.168h-.552l-2.064-1.968a3.14 3.14 0 0 0-.752-.568 1.562 1.562 0 0 0-.744-.192c-.314 0-.552.098-.712.296-.165.192-.248.474-.248.848 0 .288.054.56.16.816.102.25.259.49.472.72l-.568.264a2.42 2.42 0 0 1-.512-.824 2.941 2.941 0 0 1-.192-1.056c0-.576.134-1.022.4-1.336.262-.315.638-.472 1.128-.472.358 0 .699.088 1.024.264.32.17.651.424.992.76l1.744 1.72h-.208v-2.976h.632v3.704Zm.072-6.517c0 .645-.248 1.141-.744 1.488-.501.347-1.218.52-2.152.52-.949 0-1.666-.173-2.152-.52-.49-.347-.736-.843-.736-1.488 0-.651.246-1.147.736-1.488.486-.347 1.2-.52 2.144-.52.939 0 1.659.173 2.16.52.496.347.744.843.744 1.488Zm-.632 0c0-.427-.184-.744-.552-.952-.368-.213-.941-.32-1.72-.32-.778 0-1.346.107-1.704.32-.362.208-.544.525-.544.952 0 .421.182.739.544.952.358.213.926.32 1.704.32.779 0 1.352-.107 1.72-.32.368-.213.552-.531.552-.952ZM261.522 192.198h-.792l.16-.192v.216c0 .544-.096 1.013-.288 1.408a2.154 2.154 0 0 1-.832.912c-.363.208-.795.312-1.296.312-.763 0-1.355-.229-1.776-.688-.427-.459-.64-1.107-.64-1.944v-.216l.16.192h-.744v-.744h.744l-.16.2v-.216c0-.843.213-1.493.64-1.952.421-.459 1.013-.688 1.776-.688.501 0 .933.107 1.296.32.357.208.635.509.832.904.192.395.288.867.288 1.416v.216l-.16-.2h.792v.744Zm-1.064 0h-3.96l.144-.176v.296c0 .544.157.976.472 1.296.315.315.768.472 1.36.472.384 0 .715-.072.992-.216.272-.149.48-.357.624-.624.144-.267.216-.576.216-.928v-.296l.152.176Zm0-.744-.152.184v-.304c0-.352-.072-.661-.216-.928a1.477 1.477 0 0 0-.624-.616c-.277-.149-.608-.224-.992-.224-.592 0-1.045.16-1.36.48-.315.315-.472.744-.472 1.288v.304l-.144-.184h3.96Zm.952-5.616c0 .64-.184 1.147-.552 1.52-.368.368-.875.552-1.52.552-.427 0-.795-.08-1.104-.24a1.793 1.793 0 0 1-.728-.68 1.894 1.894 0 0 1-.264-1.008c0-.368.08-.68.24-.936.155-.256.376-.45.664-.584.288-.133.629-.2 1.024-.2h.24v3.08h-.432v-2.584l.104.136c-.416 0-.739.094-.968.28-.229.182-.344.451-.344.808 0 .39.136.691.408.904.267.214.632.32 1.096.32h.072c.491 0 .861-.12 1.112-.36.251-.245.376-.584.376-1.016 0-.24-.035-.464-.104-.672a1.849 1.849 0 0 0-.344-.6l.504-.24c.165.182.293.408.384.68.091.267.136.547.136.84Zm-.072-2.589h-4.024v-1.984c0-.475.091-.827.272-1.056.181-.235.443-.352.784-.352.256 0 .472.088.648.264.171.176.275.405.312.688h-.104c.011-.336.109-.6.296-.792a.913.913 0 0 1 .704-.296c.341 0 .613.131.816.392.197.256.296.616.296 1.08v2.056Zm-.48-.688v-1.32c0-.272-.056-.48-.168-.624-.117-.144-.283-.216-.496-.216-.219 0-.384.072-.496.216-.112.144-.168.352-.168.624v1.32h1.328Zm-1.808 0v-1.232c0-.251-.056-.445-.168-.584a.563.563 0 0 0-.464-.208c-.203 0-.357.069-.464.208-.107.139-.16.333-.16.584v1.232h1.256Zm4.016-3.844h-4.8a7.568 7.568 0 0 0-.952.064v-.704l.928-.088v.088a1.214 1.214 0 0 1-.728-.512 1.602 1.602 0 0 1-.272-.936c0-.357.083-.669.248-.936.165-.266.405-.472.72-.616.309-.149.68-.224 1.112-.224.432 0 .805.075 1.12.224.315.144.555.35.72.616.165.267.248.579.248.936 0 .358-.088.667-.264.928a1.33 1.33 0 0 1-.728.52v-.088h2.648v.728Zm-2.232-1.92c0-.368-.128-.661-.384-.88-.256-.218-.632-.328-1.128-.328-.496 0-.869.11-1.12.328-.251.219-.376.512-.376.88s.125.662.376.88c.251.214.624.32 1.12.32.496 0 .872-.106 1.128-.32.256-.218.384-.512.384-.88Zm.504-2.717h-.888v-.888h.888v.888Zm0-4.168h-.552l-2.064-1.968a3.14 3.14 0 0 0-.752-.568 1.562 1.562 0 0 0-.744-.192c-.315 0-.552.098-.712.296-.165.192-.248.474-.248.848 0 .288.053.56.16.816.101.25.259.49.472.72l-.568.264a2.42 2.42 0 0 1-.512-.824 2.941 2.941 0 0 1-.192-1.056c0-.576.133-1.022.4-1.336.261-.315.637-.472 1.128-.472.357 0 .699.088 1.024.264.32.17.651.424.992.76l1.744 1.72h-.208v-2.976h.632v3.704Zm.072-6.517c0 .645-.248 1.141-.744 1.488-.501.347-1.219.52-2.152.52-.949 0-1.667-.173-2.152-.52-.491-.347-.736-.843-.736-1.488 0-.651.245-1.147.736-1.488.485-.347 1.2-.52 2.144-.52.939 0 1.659.173 2.16.52.496.347.744.843.744 1.488Zm-.632 0c0-.427-.184-.744-.552-.952-.368-.213-.941-.32-1.72-.32s-1.347.107-1.704.32c-.363.208-.544.525-.544.952 0 .421.181.739.544.952.357.213.925.32 1.704.32.779 0 1.352-.107 1.72-.32.368-.213.552-.531.552-.952ZM282.351 193.763h-5.64v-.656l5.008-2.224v.24l-5.008-2.224v-.648h5.64v.68h-4.648v-.248l4.648 2.088v.472l-4.648 2.088v-.248h4.648v.68Zm.072-8.386c0 .352-.083.661-.248.928a1.661 1.661 0 0 1-.72.624c-.315.149-.688.224-1.12.224-.432 0-.803-.075-1.112-.224a1.661 1.661 0 0 1-.72-.624 1.728 1.728 0 0 1-.248-.928c0-.358.091-.667.272-.928.176-.267.419-.443.728-.528v.096l-.928-.088v-.704l.48.048c.16.01.317.016.472.016h3.072v.728h-.92v-.088c.304.085.547.261.728.528.176.261.264.568.264.92Zm-.576-.168c0-.363-.128-.654-.384-.872-.256-.219-.632-.328-1.128-.328-.496 0-.869.109-1.12.328-.251.218-.376.509-.376.872 0 .362.125.656.376.88.251.218.624.328 1.12.328.496 0 .872-.11 1.128-.328.256-.219.384-.512.384-.88Zm2.232-3.226h-4.8a6.87 6.87 0 0 0-.952.064v-.704l.928-.088v.088a1.218 1.218 0 0 1-.728-.512 1.602 1.602 0 0 1-.272-.936c0-.357.083-.669.248-.936.165-.267.405-.472.72-.616.309-.149.68-.224 1.112-.224.432 0 .805.075 1.12.224.315.144.555.349.72.616.165.267.248.579.248.936 0 .357-.088.667-.264.928a1.335 1.335 0 0 1-.728.52v-.088h2.648v.728Zm-2.232-1.92c0-.368-.128-.661-.384-.88-.256-.219-.632-.328-1.128-.328-.496 0-.869.109-1.12.328-.251.219-.376.512-.376.88s.125.661.376.88c.251.213.624.32 1.12.32.496 0 .872-.107 1.128-.32.256-.219.384-.512.384-.88Zm.504-3.85h-3.44v1.448h-.584v-3.616h.584v1.448h3.44v.72Zm0-2.133h-.888v-.888h.888v.888Zm0-4.168h-.552l-2.064-1.968a3.14 3.14 0 0 0-.752-.568 1.562 1.562 0 0 0-.744-.192c-.315 0-.552.098-.712.296-.165.192-.248.474-.248.848 0 .288.053.56.16.816.101.25.259.49.472.72l-.568.264a2.42 2.42 0 0 1-.512-.824 2.941 2.941 0 0 1-.192-1.056c0-.576.133-1.022.4-1.336.261-.315.637-.472 1.128-.472.357 0 .699.088 1.024.264.32.17.651.424.992.76l1.744 1.72h-.208v-2.976h.632v3.704Zm.072-6.517c0 .645-.248 1.141-.744 1.488-.501.347-1.219.52-2.152.52-.949 0-1.667-.173-2.152-.52-.491-.347-.736-.843-.736-1.488 0-.651.245-1.147.736-1.488.485-.347 1.2-.52 2.144-.52.939 0 1.659.173 2.16.52.496.347.744.843.744 1.488Zm-.632 0c0-.427-.184-.744-.552-.952-.368-.213-.941-.32-1.72-.32s-1.347.107-1.704.32c-.363.208-.544.525-.544.952 0 .421.181.739.544.952.357.213.925.32 1.704.32.779 0 1.352-.107 1.72-.32.368-.213.552-.531.552-.952ZM303.364 189.949l-5.64-2.496v-.648l5.64-2.536v.768l-1.6.696.192-.32v3.432l-.192-.352 1.6.696v.76Zm-4.808-2.808 2.96 1.248-.168.192v-2.904l.168.152-2.96 1.28v.032Zm4.808-3.611h-4.024v-3.544h4.024v.72h-3.456v2.104h3.456v.72Zm1.728-4.813h-4.8a7.568 7.568 0 0 0-.952.064v-.704l.928-.088v.088a1.214 1.214 0 0 1-.728-.512 1.602 1.602 0 0 1-.272-.936c0-.357.083-.669.248-.936.165-.266.405-.472.72-.616.309-.149.68-.224 1.112-.224.432 0 .805.075 1.12.224.315.144.555.35.72.616.165.267.248.579.248.936 0 .358-.088.667-.264.928a1.33 1.33 0 0 1-.728.52v-.088h2.648v.728Zm-2.232-1.92c0-.368-.128-.661-.384-.88-.256-.218-.632-.328-1.128-.328-.496 0-.869.11-1.12.328-.251.219-.376.512-.376.88s.125.662.376.88c.251.214.624.32 1.12.32.496 0 .872-.106 1.128-.32.256-.218.384-.512.384-.88Zm.504-2.717h-.888v-.888h.888v.888Zm0-4.168h-.552l-2.064-1.968a3.14 3.14 0 0 0-.752-.568 1.562 1.562 0 0 0-.744-.192c-.315 0-.552.098-.712.296-.165.192-.248.474-.248.848 0 .288.053.56.16.816.101.25.259.49.472.72l-.568.264a2.42 2.42 0 0 1-.512-.824 2.941 2.941 0 0 1-.192-1.056c0-.576.133-1.022.4-1.336.261-.315.637-.472 1.128-.472.357 0 .699.088 1.024.264.32.17.651.424.992.76l1.744 1.72h-.208v-2.976h.632v3.704Zm.072-6.517c0 .645-.248 1.141-.744 1.488-.501.347-1.219.52-2.152.52-.949 0-1.667-.173-2.152-.52-.491-.347-.736-.843-.736-1.488 0-.651.245-1.147.736-1.488.485-.347 1.2-.52 2.144-.52.939 0 1.659.173 2.16.52.496.347.744.843.744 1.488Zm-.632 0c0-.427-.184-.744-.552-.952-.368-.213-.941-.32-1.72-.32s-1.347.107-1.704.32c-.363.208-.544.525-.544.952 0 .421.181.739.544.952.357.213.925.32 1.704.32.779 0 1.352-.107 1.72-.32.368-.213.552-.531.552-.952ZM322.683 190.498h-5.64v-.656l5.008-2.224v.24l-5.008-2.224v-.648h5.64v.68h-4.648v-.248l4.648 2.088v.472l-4.648 2.088v-.248h4.648v.68Zm.072-8.387c0 .352-.083.661-.248.928a1.648 1.648 0 0 1-.72.624c-.315.149-.688.224-1.12.224-.432 0-.803-.075-1.112-.224a1.648 1.648 0 0 1-.72-.624 1.728 1.728 0 0 1-.248-.928c0-.357.091-.667.272-.928.176-.267.419-.443.728-.528v.096l-.928-.088v-.704l.48.048c.16.011.317.016.472.016h3.072v.728h-.92v-.088c.304.085.547.261.728.528.176.261.264.568.264.92Zm-.576-.168c0-.363-.128-.653-.384-.872-.256-.219-.632-.328-1.128-.328-.496 0-.869.109-1.12.328-.251.219-.376.509-.376.872s.125.656.376.88c.251.219.624.328 1.12.328.496 0 .872-.109 1.128-.328.256-.219.384-.512.384-.88Zm.504-3.202h-4.024v-.664h3.336v.216l-3.336-2.496v-.608h4.024v.664h-3.344v-.224l3.344 2.504v.608Zm-4.392-1.776c0 .23-.04.44-.12.632-.08.192-.195.358-.344.496a1.551 1.551 0 0 1-.576.304l-.152-.416c.256-.096.445-.226.568-.392.117-.165.176-.373.176-.624 0-.256-.056-.466-.168-.632-.112-.165-.301-.309-.568-.432l.144-.392c.363.134.627.328.792.584.165.251.248.542.248.872Zm4.392-2.885h-.888v-.888h.888v.888Zm0-4.168h-.552l-2.064-1.968a3.14 3.14 0 0 0-.752-.568 1.562 1.562 0 0 0-.744-.192c-.315 0-.552.098-.712.296-.165.192-.248.474-.248.848 0 .288.053.56.16.816.101.25.259.49.472.72l-.568.264a2.42 2.42 0 0 1-.512-.824 2.941 2.941 0 0 1-.192-1.056c0-.576.133-1.022.4-1.336.261-.315.637-.472 1.128-.472.357 0 .699.088 1.024.264.32.17.651.424.992.76l1.744 1.72h-.208v-2.976h.632v3.704Zm.072-6.517c0 .645-.248 1.141-.744 1.488-.501.347-1.219.52-2.152.52-.949 0-1.667-.173-2.152-.52-.491-.347-.736-.843-.736-1.488 0-.651.245-1.147.736-1.488.485-.347 1.2-.52 2.144-.52.939 0 1.659.173 2.16.52.496.347.744.843.744 1.488Zm-.632 0c0-.427-.184-.744-.552-.952-.368-.213-.941-.32-1.72-.32s-1.347.107-1.704.32c-.363.208-.544.525-.544.952 0 .421.181.739.544.952.357.213.925.32 1.704.32.779 0 1.352-.107 1.72-.32.368-.213.552-.531.552-.952ZM342.002 191.06h-5.64v-.688h4.688v.184l-4.688-3.536v-.576h5.64v.696h-4.688v-.184l4.688 3.544v.56Zm.072-9.328c0 .549-.163.994-.488 1.336-.331.336-.787.528-1.368.576v.784h1.784v.712h-4.024v-.712h1.664v-.792c-.544-.07-.968-.272-1.272-.608-.309-.336-.464-.768-.464-1.296 0-.395.083-.736.248-1.024.165-.294.405-.52.72-.68.309-.16.68-.24 1.112-.24.432 0 .805.08 1.12.24.309.16.549.386.72.68.165.288.248.629.248 1.024Zm-.576 0c0-.368-.125-.662-.376-.88-.256-.219-.635-.328-1.136-.328-.496 0-.869.109-1.12.328-.256.218-.384.512-.384.88s.128.661.384.88c.251.218.624.328 1.12.328.501 0 .88-.11 1.136-.328.251-.219.376-.512.376-.88Zm.504-2.975h-4.024v-.72h1.664v-2.128h-1.664v-.72h4.024v.72h-1.784v2.128h1.784v.72Zm0-4.677h-.888v-.888h.888v.888Zm0-4.168h-.552l-2.064-1.968a3.14 3.14 0 0 0-.752-.568 1.562 1.562 0 0 0-.744-.192c-.315 0-.552.098-.712.296-.165.192-.248.474-.248.848 0 .288.053.56.16.816.101.25.259.49.472.72l-.568.264a2.42 2.42 0 0 1-.512-.824 2.941 2.941 0 0 1-.192-1.056c0-.576.133-1.022.4-1.336.261-.315.637-.472 1.128-.472.357 0 .699.088 1.024.264.32.17.651.424.992.76l1.744 1.72h-.208v-2.976h.632v3.704Zm.072-6.517c0 .645-.248 1.141-.744 1.488-.501.347-1.219.52-2.152.52-.949 0-1.667-.173-2.152-.52-.491-.347-.736-.843-.736-1.488 0-.651.245-1.147.736-1.488.485-.347 1.2-.52 2.144-.52.939 0 1.659.173 2.16.52.496.347.744.843.744 1.488Zm-.632 0c0-.427-.184-.744-.552-.952-.368-.213-.941-.32-1.72-.32s-1.347.107-1.704.32c-.363.208-.544.525-.544.952 0 .421.181.739.544.952.357.213.925.32 1.704.32.779 0 1.352-.107 1.72-.32.368-.213.552-.531.552-.952ZM363.015 190.904h-5.64v-.688h4.688v.184l-4.688-3.536v-.576h5.64v.696h-4.688v-.184l4.688 3.544v.56Zm.072-9.329c0 .55-.163.995-.488 1.336-.331.336-.787.528-1.368.576v.784h1.784v.712h-4.024v-.712h1.664v-.792c-.544-.069-.968-.272-1.272-.608-.309-.336-.464-.768-.464-1.296 0-.394.083-.736.248-1.024.165-.293.405-.52.72-.68.309-.16.68-.24 1.112-.24.432 0 .805.08 1.12.24.309.16.549.387.72.68.165.288.248.63.248 1.024Zm-.576 0c0-.368-.125-.661-.376-.88-.256-.218-.635-.328-1.136-.328-.496 0-.869.11-1.12.328-.256.219-.384.512-.384.88s.128.662.384.88c.251.219.624.328 1.12.328.501 0 .88-.109 1.136-.328.251-.218.376-.512.376-.88Zm.6-2.704-.568.256a1.652 1.652 0 0 0-.304-.464 1.214 1.214 0 0 0-.464-.296 2.732 2.732 0 0 0-.696-.16 8.973 8.973 0 0 0-1.008-.048h-1.08v-2.968h4.024v.72h-3.456v1.576h.528c.619 0 1.131.048 1.536.144.4.09.717.237.952.44.235.197.413.464.536.8Zm-.096-4.791h-.888v-.888h.888v.888Zm0-4.168h-.552l-2.064-1.968a3.14 3.14 0 0 0-.752-.568 1.562 1.562 0 0 0-.744-.192c-.315 0-.552.098-.712.296-.165.192-.248.474-.248.848 0 .288.053.56.16.816.101.25.259.49.472.72l-.568.264a2.42 2.42 0 0 1-.512-.824 2.941 2.941 0 0 1-.192-1.056c0-.576.133-1.022.4-1.336.261-.315.637-.472 1.128-.472.357 0 .699.088 1.024.264.32.17.651.424.992.76l1.744 1.72h-.208v-2.976h.632v3.704Zm.072-6.517c0 .645-.248 1.141-.744 1.488-.501.347-1.219.52-2.152.52-.949 0-1.667-.173-2.152-.52-.491-.347-.736-.843-.736-1.488 0-.651.245-1.147.736-1.488.485-.347 1.2-.52 2.144-.52.939 0 1.659.173 2.16.52.496.347.744.843.744 1.488Zm-.632 0c0-.427-.184-.744-.552-.952-.368-.213-.941-.32-1.72-.32s-1.347.107-1.704.32c-.363.208-.544.525-.544.952 0 .421.181.739.544.952.357.213.925.32 1.704.32.779 0 1.352-.107 1.72-.32.368-.213.552-.531.552-.952ZM384.028 187.316l-5.64-2.496v-.648l5.64-2.536v.768l-1.6.696.192-.32v3.432l-.192-.352 1.6.696v.76Zm-4.808-2.808 2.96 1.248-.168.192v-2.904l.168.152-2.96 1.28v.032Zm4.808-3.611h-4.024v-1.984c0-.474.09-.826.272-1.056.181-.234.442-.352.784-.352.256 0 .472.088.648.264.17.176.274.406.312.688h-.104c.01-.336.109-.6.296-.792a.913.913 0 0 1 .704-.296c.341 0 .613.131.816.392.197.256.296.616.296 1.08v2.056Zm-.48-.688v-1.32c0-.272-.056-.48-.168-.624-.118-.144-.283-.216-.496-.216-.219 0-.384.072-.496.216-.112.144-.168.352-.168.624v1.32h1.328Zm-1.808 0v-1.232c0-.25-.056-.445-.168-.584a.566.566 0 0 0-.464-.208c-.203 0-.358.07-.464.208-.107.139-.16.334-.16.584v1.232h1.256Zm2.288-3.819h-4.024v-2.856h.584v2.128h3.44v.728Zm0-2.31h-.888v-.888h.888v.888Zm0-4.168h-.552l-2.064-1.968a3.159 3.159 0 0 0-.752-.568 1.562 1.562 0 0 0-.744-.192c-.315 0-.552.098-.712.296-.166.192-.248.474-.248.848 0 .288.053.56.16.816.101.25.258.49.472.72l-.568.264a2.405 2.405 0 0 1-.512-.824 2.941 2.941 0 0 1-.192-1.056c0-.576.133-1.022.4-1.336.261-.315.637-.472 1.128-.472.357 0 .698.088 1.024.264.32.17.65.424.992.76l1.744 1.72h-.208v-2.976h.632v3.704Zm.072-6.517c0 .645-.248 1.141-.744 1.488-.502.347-1.219.52-2.152.52-.95 0-1.667-.173-2.152-.52-.491-.347-.736-.843-.736-1.488 0-.651.245-1.147.736-1.488.485-.347 1.2-.52 2.144-.52.938 0 1.658.173 2.16.52.496.347.744.843.744 1.488Zm-.632 0c0-.427-.184-.744-.552-.952-.368-.213-.942-.32-1.72-.32-.779 0-1.347.107-1.704.32-.363.208-.544.525-.544.952 0 .421.181.739.544.952.357.213.925.32 1.704.32.778 0 1.352-.107 1.72-.32.368-.213.552-.531.552-.952ZM105.943 17.14v-4.06h1.036c.439-.532.765-1.26.98-2.184.215-.934.322-2.068.322-3.402V4.89h7.406v8.19h1.442v4.06h-1.89v-2.38h-7.392v2.38h-1.904Zm3.192-4.06h4.382V6.556h-3.248v1.148c0 1.26-.093 2.328-.28 3.206-.187.877-.471 1.6-.854 2.17Zm12.04 1.834c-.616 0-1.157-.15-1.624-.448-.467-.299-.831-.724-1.092-1.274-.261-.55-.392-1.214-.392-1.988 0-.766.131-1.424.392-1.974s.625-.97 1.092-1.26c.467-.299 1.008-.448 1.624-.448.569 0 1.078.14 1.526.42.457.27.756.64.896 1.106h-.154l.168-1.386h2.03l-.084.938c-.019.308-.028.611-.028.91v5.25h-2.1l-.014-1.33h.168c-.149.448-.448.807-.896 1.078-.448.27-.952.406-1.512.406Zm.644-1.596c.485 0 .877-.173 1.176-.518.299-.346.448-.878.448-1.596 0-.719-.149-1.246-.448-1.582-.299-.336-.691-.504-1.176-.504s-.877.168-1.176.504c-.299.336-.448.863-.448 1.582 0 .718.145 1.25.434 1.596.299.345.695.518 1.19.518Zm5.607 1.442V7.662h2.086v2.674h2.8V7.662h2.086v7.098h-2.086v-2.814h-2.8v2.814h-2.086Zm8.818 0V7.662h2.086v2.674h2.8V7.662h2.086v7.098h-2.086v-2.814h-2.8v2.814h-2.086Zm8.818 0V7.662h2.086v2.282h1.708c.971 0 1.699.2 2.184.602.486.401.728.984.728 1.75 0 .494-.116.928-.35 1.302-.233.364-.569.648-1.008.854-.429.205-.947.308-1.554.308h-3.794Zm2.086-1.344h1.386c.42 0 .742-.089.966-.266.234-.187.35-.458.35-.812 0-.364-.112-.63-.336-.798-.224-.168-.55-.252-.98-.252h-1.386v2.128Zm5.39 1.344V7.662h2.1v7.098h-2.1Zm7.566.154c-1.232 0-2.193-.332-2.884-.994-.69-.663-1.036-1.564-1.036-2.702 0-.738.145-1.382.434-1.932.299-.55.71-.98 1.232-1.288.532-.318 1.153-.476 1.862-.476.7 0 1.284.15 1.75.448.476.298.831.718 1.064 1.26.243.532.364 1.152.364 1.862v.49h-4.97v-1.05h3.43l-.238.196c0-.588-.121-1.032-.364-1.33-.233-.308-.574-.462-1.022-.462-.494 0-.877.182-1.148.546-.261.364-.392.886-.392 1.568v.224c0 .69.168 1.204.504 1.54.346.336.84.504 1.484.504.383 0 .742-.047 1.078-.14.346-.103.672-.262.98-.476l.588 1.4a3.979 3.979 0 0 1-1.232.602c-.457.14-.952.21-1.484.21Zm8.255-.154V7.662h6.93v7.098h-2.086V9.272h-2.758v5.488h-2.086Zm12.194.154c-.756 0-1.414-.15-1.974-.448a3.285 3.285 0 0 1-1.288-1.288c-.299-.55-.448-1.209-.448-1.974 0-.756.149-1.41.448-1.96a3.19 3.19 0 0 1 1.288-1.274c.56-.299 1.218-.448 1.974-.448s1.414.15 1.974.448c.56.298.989.723 1.288 1.274.308.55.462 1.204.462 1.96 0 .765-.154 1.423-.462 1.974-.299.55-.728.98-1.288 1.288-.56.298-1.218.448-1.974.448Zm0-1.596c.485 0 .868-.173 1.148-.518.289-.346.434-.878.434-1.596 0-.719-.145-1.246-.434-1.582-.28-.336-.663-.504-1.148-.504-.486 0-.873.168-1.162.504-.28.336-.42.863-.42 1.582 0 .718.14 1.25.42 1.596.289.345.676.518 1.162.518Zm10.756 1.442V9.314h-2.352V7.662h6.804v1.652h-2.366v5.446h-2.086Zm5.53 3.024V9.51a15.76 15.76 0 0 0-.112-1.848h2.03l.168 1.386h-.154c.14-.467.434-.836.882-1.106.448-.28.961-.42 1.54-.42.616 0 1.157.15 1.624.448.467.29.831.71 1.092 1.26.271.55.406 1.208.406 1.974 0 .774-.135 1.437-.406 1.988-.261.55-.625.975-1.092 1.274-.467.298-1.008.448-1.624.448a2.894 2.894 0 0 1-1.526-.406c-.439-.27-.733-.63-.882-1.078h.168v4.354h-2.114Zm3.71-4.466c.495 0 .891-.173 1.19-.518.299-.346.448-.878.448-1.596 0-.719-.149-1.246-.448-1.582-.299-.336-.695-.504-1.19-.504-.485 0-.882.168-1.19.504-.299.336-.448.863-.448 1.582 0 .718.149 1.25.448 1.596.308.345.705.518 1.19.518Zm8.714 1.596c-.756 0-1.414-.15-1.974-.448a3.292 3.292 0 0 1-1.288-1.288c-.298-.55-.448-1.209-.448-1.974 0-.756.15-1.41.448-1.96.308-.55.738-.976 1.288-1.274.56-.299 1.218-.448 1.974-.448s1.414.15 1.974.448c.56.298.99.723 1.288 1.274.308.55.462 1.204.462 1.96 0 .765-.154 1.423-.462 1.974-.298.55-.728.98-1.288 1.288-.56.298-1.218.448-1.974.448Zm0-1.596c.486 0 .868-.173 1.148-.518.29-.346.434-.878.434-1.596 0-.719-.144-1.246-.434-1.582-.28-.336-.662-.504-1.148-.504-.485 0-.872.168-1.162.504-.28.336-.42.863-.42 1.582 0 .718.14 1.25.42 1.596.29.345.677.518 1.162.518Zm5.266 1.442V7.662h1.75l2.324 3.948 2.31-3.948h1.75v7.098h-1.862v-4.718h.35l-2.072 3.57h-.966l-2.072-3.57h.336v4.718h-1.848Zm13.481.154c-1.158 0-2.082-.336-2.772-1.008-.682-.682-1.022-1.68-1.022-2.996V9.72c0-1.354.322-2.44.966-3.262.644-.822 1.605-1.358 2.884-1.61l2.59-.546.56 1.638-2.954.602c-.467.093-.854.27-1.162.532a2.614 2.614 0 0 0-.686.938c-.15.354-.224.742-.224 1.162v.854h-.266c.093-.42.256-.789.49-1.106.242-.318.55-.57.924-.756.373-.187.807-.28 1.302-.28.588 0 1.106.135 1.554.406.457.27.816.662 1.078 1.176.261.513.392 1.124.392 1.834 0 .737-.154 1.376-.462 1.918a3.132 3.132 0 0 1-1.274 1.26c-.542.29-1.181.434-1.918.434Zm-.07-1.582c.513 0 .91-.159 1.19-.476.289-.327.434-.812.434-1.456 0-.644-.145-1.13-.434-1.456-.29-.327-.686-.49-1.19-.49-.504 0-.901.163-1.19.49-.29.326-.434.798-.434 1.414 0 .662.144 1.157.434 1.484.289.326.686.49 1.19.49Zm8.681 1.582c-.756 0-1.414-.15-1.974-.448a3.285 3.285 0 0 1-1.288-1.288c-.299-.55-.448-1.209-.448-1.974 0-.756.149-1.41.448-1.96a3.19 3.19 0 0 1 1.288-1.274c.56-.299 1.218-.448 1.974-.448s1.414.15 1.974.448c.56.298.989.723 1.288 1.274.308.55.462 1.204.462 1.96 0 .765-.154 1.423-.462 1.974-.299.55-.728.98-1.288 1.288-.56.298-1.218.448-1.974.448Zm0-1.596c.485 0 .868-.173 1.148-.518.289-.346.434-.878.434-1.596 0-.719-.145-1.246-.434-1.582-.28-.336-.663-.504-1.148-.504-.485 0-.873.168-1.162.504-.28.336-.42.863-.42 1.582 0 .718.14 1.25.42 1.596.289.345.677.518 1.162.518Zm11.426 3.262v-1.82h-6.16V7.662h2.086v5.488h2.59V7.662h2.086v5.488h1.162v3.43h-1.764Zm2.945-1.82V7.662h1.904v4.984h-.462l3.752-4.984h1.736v7.098h-1.904V9.776h.462l-3.766 4.984h-1.722Zm10.304 0V9.314h-2.352V7.662h6.804v1.652h-2.366v5.446h-2.086Zm8.287.154c-.616 0-1.157-.15-1.624-.448-.466-.299-.83-.724-1.092-1.274-.261-.55-.392-1.214-.392-1.988 0-.766.131-1.424.392-1.974.262-.55.626-.97 1.092-1.26.467-.299 1.008-.448 1.624-.448.57 0 1.078.14 1.526.42.458.27.756.64.896 1.106h-.154l.168-1.386h2.03l-.084.938c-.018.308-.028.611-.028.91v5.25h-2.1l-.014-1.33h.168c-.149.448-.448.807-.896 1.078-.448.27-.952.406-1.512.406Zm.644-1.596c.486 0 .878-.173 1.176-.518.299-.346.448-.878.448-1.596 0-.719-.149-1.246-.448-1.582-.298-.336-.69-.504-1.176-.504-.485 0-.877.168-1.176.504-.298.336-.448.863-.448 1.582 0 .718.145 1.25.434 1.596.299.345.696.518 1.19.518Zm5.607 1.442V7.662h1.75l2.324 3.948 2.31-3.948h1.75v7.098h-1.862v-4.718h.35l-2.072 3.57h-.966l-2.072-3.57h.336v4.718h-1.848Z" fill="#1F2E4D"/></svg>