<svg width="812" height="339" fill="none" xmlns="http://www.w3.org/2000/svg"><path d="M17.868 277.126h793.325M17.868 231.664h793.325M17.868 186.558h793.325M17.868 141.65h793.325M17.868 98.1h793.325M17.868 53.893h793.325" stroke="#D9D9D9" stroke-width=".5" stroke-linecap="round"/><path d="M40.279 210.943c.859-1.808 33.29-61.031 49.397-90.417l50.47-45.532h49.755l49.755 23.25 49.397-45.208 50.113 21.958 49.754-21.958 49.755 45.208 50.113-45.208 48.681 45.208h49.755l50.828-23.25 49.039-43.917h100.941" stroke="#6A8CF9" stroke-width="2" stroke-linecap="round"/><path d="M375.374 332.157c0-.888.156-1.656.468-2.304a3.454 3.454 0 0 1 1.344-1.5c.592-.352 1.296-.528 2.112-.528.808 0 1.504.176 2.088.528a3.505 3.505 0 0 1 1.368 1.5c.32.648.48 1.412.48 2.292 0 .888-.16 1.66-.48 2.316a3.583 3.583 0 0 1-1.368 1.512c-.584.352-1.28.528-2.088.528-.816 0-1.516-.176-2.1-.528a3.608 3.608 0 0 1-1.356-1.512c-.312-.656-.468-1.424-.468-2.304Zm1.176 0c0 1.056.232 1.88.696 2.472.464.592 1.148.888 2.052.888.872 0 1.548-.292 2.028-.876.488-.592.732-1.42.732-2.484s-.24-1.888-.72-2.472c-.48-.584-1.16-.876-2.04-.876-.904 0-1.588.292-2.052.876-.464.584-.696 1.408-.696 2.472Zm10.984 4.344c-.904 0-1.62-.284-2.148-.852-.528-.568-.792-1.4-.792-2.496v-1.044c0-1.12.236-2.024.708-2.712.472-.688 1.204-1.152 2.196-1.392l2.208-.552.324.888-2.448.588c-.44.104-.804.292-1.092.564a2.616 2.616 0 0 0-.648.96c-.136.368-.204.76-.204 1.176v.516h-.168c.096-.36.248-.672.456-.936.216-.264.484-.464.804-.6.32-.144.672-.216 1.056-.216.52 0 .976.12 1.368.36.392.24.696.588.912 1.044.224.448.336.984.336 1.608 0 .64-.12 1.192-.36 1.656-.232.464-.564.82-.996 1.068-.432.248-.936.372-1.512.372Zm-.036-.864c.56 0 1-.184 1.32-.552.328-.368.492-.916.492-1.644 0-.712-.164-1.256-.492-1.632-.32-.376-.76-.564-1.32-.564s-1.004.184-1.332.552c-.32.368-.48.892-.48 1.572 0 .76.16 1.328.48 1.704.328.376.772.564 1.332.564Zm7.031.864c-.592 0-1.104-.124-1.536-.372a2.63 2.63 0 0 1-1.008-1.08c-.24-.472-.36-1.032-.36-1.68 0-.64.12-1.192.36-1.656.24-.472.576-.832 1.008-1.08.432-.256.944-.384 1.536-.384.592 0 1.104.128 1.536.384.44.248.776.608 1.008 1.08.24.464.36 1.016.36 1.656 0 .648-.12 1.208-.36 1.68a2.53 2.53 0 0 1-1.008 1.08c-.432.248-.944.372-1.536.372Zm0-.864c.544 0 .98-.192 1.308-.576.328-.384.492-.948.492-1.692s-.164-1.304-.492-1.68c-.328-.376-.764-.564-1.308-.564-.552 0-.992.188-1.32.564-.32.376-.48.936-.48 1.68 0 .744.16 1.308.48 1.692.328.384.768.576 1.32.576Zm7.091.864c-.6 0-1.12-.124-1.56-.372a2.667 2.667 0 0 1-1.032-1.092c-.24-.48-.36-1.048-.36-1.704 0-.648.124-1.2.372-1.656a2.528 2.528 0 0 1 1.032-1.056c.44-.248.956-.372 1.548-.372.392 0 .772.068 1.14.204.368.128.668.316.9.564l-.372.768a2.207 2.207 0 0 0-.768-.492 2.218 2.218 0 0 0-.828-.168c-.592 0-1.056.192-1.392.576-.336.376-.504.924-.504 1.644 0 .728.168 1.288.504 1.68.336.392.8.588 1.392.588.264 0 .536-.052.816-.156.28-.104.54-.268.78-.492l.372.756c-.24.256-.548.452-.924.588-.368.128-.74.192-1.116.192Zm4.762-.108v-5.16h-2.172v-.876h5.424v.876h-2.172v5.16h-1.08Zm4.283 2.592v-7.2a10.643 10.643 0 0 0-.096-1.428h1.056l.132 1.392h-.132c.12-.464.376-.828.768-1.092.392-.272.86-.408 1.404-.408.536 0 1.004.124 1.404.372.4.248.708.608.924 1.08.224.464.336 1.02.336 1.668 0 .648-.112 1.208-.336 1.68-.216.472-.524.832-.924 1.08-.4.248-.868.372-1.404.372-.536 0-1-.132-1.392-.396a2.002 2.002 0 0 1-.78-1.092h.132v3.972h-1.092Zm2.88-3.348c.552 0 .992-.192 1.32-.576.328-.384.492-.948.492-1.692s-.164-1.304-.492-1.68c-.328-.376-.768-.564-1.32-.564s-.992.188-1.32.564c-.32.376-.48.936-.48 1.68 0 .744.16 1.308.48 1.692.328.384.768.576 1.32.576Zm7.262.864c-.96 0-1.72-.276-2.28-.828-.552-.552-.828-1.312-.828-2.28 0-.64.12-1.192.36-1.656a2.692 2.692 0 0 1 1.02-1.092c.432-.264.936-.396 1.512-.396.552 0 1.02.12 1.404.36.384.232.676.564.876.996.2.432.3.944.3 1.536v.36h-4.62v-.648h3.876l-.204.156c0-.624-.14-1.108-.42-1.452-.272-.344-.676-.516-1.212-.516-.584 0-1.036.204-1.356.612-.32.4-.48.948-.48 1.644v.108c0 .736.18 1.292.54 1.668.368.376.876.564 1.524.564.36 0 .696-.052 1.008-.156.312-.104.612-.276.9-.516l.36.756c-.272.248-.612.44-1.02.576-.4.136-.82.204-1.26.204Zm3.884-.108v-6.036h1.08v2.496h3.192v-2.496h1.08v6.036h-1.08v-2.676h-3.192v2.676h-1.08Zm7.219 0v-6.036h.996v5.004h-.324l3.744-5.004h.912v6.036h-.996v-5.016h.336l-3.756 5.016h-.912Zm6.715 0 .948-1.644c.152-.264.344-.476.576-.636.232-.168.476-.252.732-.252h.192l-.012.108c-.68 0-1.212-.152-1.596-.456-.384-.312-.576-.76-.576-1.344 0-.576.188-1.02.564-1.332.376-.32.936-.48 1.68-.48h2.748v6.036h-1.008v-2.28h-.864c-.312 0-.58.08-.804.24a1.778 1.778 0 0 0-.552.612l-.816 1.428h-1.212Zm2.7-3.036h1.548v-2.256h-1.548c-.472 0-.824.1-1.056.3-.224.2-.336.476-.336.828 0 .36.112.64.336.84.232.192.584.288 1.056.288ZM3.734 11.94c-.688 0-1.22-.243-1.592-.729-.374-.485-.56-1.162-.56-2.032 0-.65.093-1.2.28-1.648.192-.448.464-.79.816-1.024.352-.234.773-.352 1.264-.352.298 0 .597.059.896.176.298.118.546.28.744.488l-.272.576a1.896 1.896 0 0 0-.656-.448 1.8 1.8 0 0 0-.72-.152c-.528 0-.934.19-1.216.568-.278.374-.416.93-.416 1.672v.712h-.08c.037-.298.128-.554.272-.768a1.54 1.54 0 0 1 .568-.496c.234-.117.498-.176.792-.176.336 0 .634.078.896.232.26.155.466.366.616.632.149.267.224.576.224.928 0 .352-.08.67-.24.952a1.76 1.76 0 0 1-.656.656 1.938 1.938 0 0 1-.96.232Zm-.04-.617c.234 0 .44-.05.616-.152.18-.101.32-.242.416-.424.1-.181.152-.39.152-.624 0-.234-.051-.442-.152-.624a1.028 1.028 0 0 0-.416-.424 1.213 1.213 0 0 0-.616-.152c-.235 0-.443.05-.624.152a1.096 1.096 0 0 0-.416.424c-.102.182-.152.39-.152.624 0 .235.05.443.152.624.1.181.24.323.416.424.18.102.389.152.624.152ZM3.646 55.944a3.348 3.348 0 0 1-1.392-.304 2.217 2.217 0 0 1-.544-.368l.264-.576c.26.208.528.363.8.464.272.096.557.144.856.144.394 0 .704-.104.928-.312.224-.208.336-.485.336-.832 0-.357-.107-.645-.32-.864-.214-.224-.51-.336-.888-.336a1.57 1.57 0 0 0-.712.16 1.483 1.483 0 0 0-.552.488h-.528v-3.376h3.384v.632H2.614V53h-.192c.144-.213.338-.379.584-.496.25-.117.53-.176.84-.176.362 0 .674.075.936.224.266.15.472.36.616.632.149.267.224.579.224.936 0 .357-.08.675-.24.952-.16.272-.39.485-.688.64-.294.155-.643.232-1.048.232ZM4.182 101.88v-1.192H1.534v-.536l2.768-3.912h.608v3.856h.848v.592H4.91v1.192h-.728Zm0-1.784V97.12h.184l-2.232 3.152v-.176h2.048ZM3.51 145.957c-.384 0-.752-.059-1.104-.176a2.454 2.454 0 0 1-.872-.496l.264-.576c.26.213.53.368.808.464.277.096.57.144.88.144.41 0 .722-.086.936-.256.213-.176.32-.427.32-.752 0-.32-.11-.563-.328-.728-.214-.166-.528-.248-.944-.248h-.864v-.616h.808c.352 0 .634-.091.848-.272.213-.182.32-.43.32-.744 0-.288-.1-.507-.296-.656-.192-.155-.467-.232-.824-.232-.603 0-1.126.21-1.568.632l-.264-.568c.224-.224.5-.398.832-.52.33-.123.68-.184 1.048-.184.56 0 1 .128 1.32.384.32.256.48.613.48 1.072 0 .346-.1.645-.296.896a1.375 1.375 0 0 1-.792.488v-.088c.394.069.7.232.92.488.218.25.328.565.328.944 0 .496-.176.888-.528 1.176-.347.282-.824.424-1.432.424ZM1.83 189.89v-.552l1.968-2.064c.256-.262.445-.512.568-.752.128-.24.192-.488.192-.744 0-.315-.1-.552-.296-.712-.192-.166-.475-.248-.848-.248-.288 0-.56.053-.816.16-.251.101-.491.258-.72.472l-.264-.568c.218-.214.493-.384.824-.512a2.941 2.941 0 0 1 1.056-.192c.576 0 1.02.133 1.336.4.314.261.472.637.472 1.128 0 .357-.088.698-.264 1.024-.171.32-.424.65-.76.992l-1.72 1.744v-.208h2.976v.632H1.83ZM2.142 235.897v-.632h1.32v-4.376h.376l-1.576.976v-.728l1.408-.88h.536v5.008h1.24v.632H2.142ZM3.55 279.974c-.646 0-1.142-.248-1.488-.744-.347-.501-.52-1.218-.52-2.152 0-.949.173-1.666.52-2.152.346-.49.842-.736 1.488-.736.65 0 1.146.246 1.488.736.346.486.52 1.2.52 2.144 0 .939-.174 1.659-.52 2.16-.347.496-.843.744-1.488.744Zm0-.632c.426 0 .744-.184.952-.552.213-.368.32-.941.32-1.72 0-.778-.107-1.346-.32-1.704-.208-.362-.526-.544-.952-.544-.422 0-.74.182-.952.544-.214.358-.32.926-.32 1.704 0 .779.106 1.352.32 1.72.213.368.53.552.952.552ZM31.771 293.847v-.552l1.968-2.064c.256-.262.446-.512.568-.752.128-.24.192-.488.192-.744 0-.315-.098-.552-.296-.712-.192-.166-.474-.248-.848-.248-.288 0-.56.053-.816.16-.25.101-.49.258-.72.472l-.264-.568c.22-.214.494-.384.824-.512a2.941 2.941 0 0 1 1.056-.192c.576 0 1.022.133 1.336.4.315.261.472.637.472 1.128 0 .357-.088.698-.264 1.024-.17.32-.424.65-.76.992l-1.72 1.744v-.208h2.976v.632h-3.704Zm6.517.072c-.645 0-1.141-.248-1.488-.744-.346-.502-.52-1.219-.52-2.152 0-.95.174-1.667.52-2.152.347-.491.843-.736 1.488-.736.651 0 1.147.245 1.488.736.347.485.52 1.2.52 2.144 0 .938-.173 1.658-.52 2.16-.346.496-.842.744-1.488.744Zm0-.632c.427 0 .744-.184.952-.552.214-.368.32-.942.32-1.72 0-.779-.106-1.347-.32-1.704-.208-.363-.525-.544-.952-.544-.421 0-.738.181-.952.544-.213.357-.32.925-.32 1.704 0 .778.107 1.352.32 1.72.214.368.531.552.952.552Zm4.797.632c-.645 0-1.141-.248-1.488-.744-.346-.502-.52-1.219-.52-2.152 0-.95.174-1.667.52-2.152.347-.491.843-.736 1.488-.736.65 0 1.147.245 1.488.736.347.485.52 1.2.52 2.144 0 .938-.173 1.658-.52 2.16-.346.496-.843.744-1.488.744Zm0-.632c.427 0 .744-.184.952-.552.214-.368.32-.942.32-1.72 0-.779-.106-1.347-.32-1.704-.208-.363-.525-.544-.952-.544-.421 0-.739.181-.952.544-.213.357-.32.925-.32 1.704 0 .778.107 1.352.32 1.72.213.368.53.552.952.552Zm3.245.56 2.776-5.304v.304h-3.12v-.64h3.8v.552l-2.632 5.088h-.824ZM81.407 293.847v-.552l1.968-2.064c.256-.262.445-.512.568-.752.128-.24.192-.488.192-.744 0-.315-.099-.552-.296-.712-.192-.166-.475-.248-.848-.248-.288 0-.56.053-.816.16-.251.101-.491.258-.72.472l-.264-.568c.218-.214.493-.384.824-.512a2.941 2.941 0 0 1 1.056-.192c.576 0 1.021.133 1.336.4.314.261.472.637.472 1.128 0 .357-.088.698-.264 1.024-.171.32-.424.65-.76.992l-1.72 1.744v-.208h2.976v.632h-3.704Zm6.517.072c-.646 0-1.142-.248-1.488-.744-.347-.502-.52-1.219-.52-2.152 0-.95.173-1.667.52-2.152.346-.491.842-.736 1.488-.736.65 0 1.146.245 1.488.736.346.485.52 1.2.52 2.144 0 .938-.174 1.658-.52 2.16-.347.496-.843.744-1.488.744Zm0-.632c.426 0 .744-.184.952-.552.213-.368.32-.942.32-1.72 0-.779-.107-1.347-.32-1.704-.208-.363-.526-.544-.952-.544-.422 0-.74.181-.952.544-.214.357-.32.925-.32 1.704 0 .778.106 1.352.32 1.72.213.368.53.552.952.552Zm3.388.56v-.632h1.32v-4.376h.376l-1.576.976v-.728l1.408-.88h.536v5.008h1.24v.632h-3.304Zm6.837 0v-1.192h-2.648v-.536l2.768-3.912h.608v3.856h.848v.592h-.848v1.192h-.728Zm0-1.784v-2.976h.184l-2.232 3.152v-.176h2.048ZM50.967 212.98v-5.64h3.672v.624H51.71v5.016h-.744Zm3.08.096-.256-.568c.187-.085.341-.186.464-.304.128-.122.226-.277.296-.464.075-.186.128-.418.16-.696.032-.277.048-.613.048-1.008v-1.08h2.968v4.024h-.72v-3.456H55.43v.528c0 .619-.048 1.131-.144 1.536-.09.4-.237.718-.44.952a1.837 1.837 0 0 1-.8.536Zm6.486-.024c-.352 0-.661-.082-.928-.248a1.654 1.654 0 0 1-.624-.72c-.15-.314-.224-.688-.224-1.12 0-.432.075-.802.224-1.112.15-.314.358-.554.624-.72.267-.165.576-.248.928-.248.358 0 .667.091.928.272.267.176.443.419.528.728h-.096l.088-.928h.704l-.048.48c-.01.16-.016.318-.016.472v3.072h-.728v-.92h.088a1.272 1.272 0 0 1-.528.728 1.608 1.608 0 0 1-.92.264Zm.168-.576c.363 0 .654-.128.872-.384.219-.256.328-.632.328-1.128 0-.496-.11-.869-.328-1.12-.218-.25-.51-.376-.872-.376s-.656.126-.88.376c-.218.251-.328.624-.328 1.12 0 .496.11.872.328 1.128.219.256.512.384.88.384Zm4.066.504v-3.44h-1.448v-.584h3.616v.584h-1.448v3.44h-.72Zm2.831 0v-4.024h.664v3.336h-.216l2.496-3.336h.608v4.024h-.664v-3.344h.224l-2.504 3.344h-.608Zm4.821 1.728v-4.8a7.088 7.088 0 0 0-.064-.952h.704l.088.928h-.088c.08-.309.25-.552.512-.728.261-.181.573-.272.936-.272.358 0 .67.083.936.248.267.166.472.406.616.72.15.31.224.68.224 1.112 0 .432-.075.806-.224 1.12-.144.315-.35.555-.616.72a1.734 1.734 0 0 1-.936.248c-.357 0-.666-.088-.928-.264a1.334 1.334 0 0 1-.52-.728h.088v2.648h-.728Zm1.92-2.232c.368 0 .662-.128.88-.384.219-.256.328-.632.328-1.128 0-.496-.11-.869-.328-1.12-.218-.25-.512-.376-.88-.376s-.661.126-.88.376c-.213.251-.32.624-.32 1.12 0 .496.107.872.32 1.128.219.256.512.384.88.384Zm4.546.576c-.352 0-.662-.082-.928-.248a1.652 1.652 0 0 1-.624-.72c-.15-.314-.224-.688-.224-1.12 0-.432.075-.802.224-1.112.15-.314.357-.554.624-.72.267-.165.576-.248.928-.248.357 0 .666.091.928.272.266.176.442.419.528.728h-.096l.088-.928h.704l-.048.48c-.01.16-.016.318-.016.472v3.072h-.728v-.92h.088a1.272 1.272 0 0 1-.528.728 1.608 1.608 0 0 1-.92.264Zm.168-.576c.362 0 .653-.128.872-.384.219-.256.328-.632.328-1.128 0-.496-.11-.869-.328-1.12-.219-.25-.51-.376-.872-.376-.363 0-.656.126-.88.376-.219.251-.328.624-.328 1.12 0 .496.11.872.328 1.128.218.256.512.384.88.384Zm3.201.504v-4.024h.608l1.48 2.632 1.489-2.632h.6v4.024h-.64v-3.208h.175l-1.44 2.56h-.36l-1.44-2.568h.168v3.216h-.64Zm7.278.072c-.64 0-1.146-.184-1.52-.552-.368-.368-.552-.874-.552-1.52 0-.426.08-.794.24-1.104.166-.314.392-.557.68-.728a1.894 1.894 0 0 1 1.008-.264c.368 0 .68.08.936.24.256.155.451.376.584.664.134.288.2.63.2 1.024v.24h-3.08v-.432h2.584l-.136.104c0-.416-.093-.738-.28-.968-.181-.229-.45-.344-.808-.344-.389 0-.69.136-.904.408-.213.267-.32.632-.32 1.096v.072c0 .491.12.862.36 1.112.246.251.584.376 1.016.376.24 0 .464-.034.672-.104.208-.069.408-.184.6-.344l.24.504a1.854 1.854 0 0 1-.68.384 2.583 2.583 0 0 1-.84.136Zm2.614 1.656v-4.8a7.156 7.156 0 0 0-.064-.952h.704l.088.928h-.088c.08-.309.25-.552.512-.728.261-.181.573-.272.936-.272.357 0 .669.083.936.248.266.166.472.406.616.72.149.31.224.68.224 1.112 0 .432-.075.806-.224 1.12-.144.315-.35.555-.616.72a1.734 1.734 0 0 1-.936.248c-.358 0-.667-.088-.928-.264a1.333 1.333 0 0 1-.52-.728h.088v2.648h-.728Zm1.92-2.232c.368 0 .661-.128.88-.384.218-.256.328-.632.328-1.128 0-.496-.11-.869-.328-1.12-.219-.25-.512-.376-.88-.376s-.662.126-.88.376c-.214.251-.32.624-.32 1.12 0 .496.106.872.32 1.128.218.256.512.384.88.384Zm4.545.576c-.352 0-.661-.082-.928-.248a1.652 1.652 0 0 1-.624-.72c-.149-.314-.224-.688-.224-1.12 0-.432.075-.802.224-1.112.15-.314.358-.554.624-.72.267-.165.576-.248.928-.248.358 0 .667.091.928.272.267.176.443.419.528.728h-.096l.088-.928h.704l-.048.48c-.01.16-.016.318-.016.472v3.072h-.728v-.92h.088a1.27 1.27 0 0 1-.528.728 1.608 1.608 0 0 1-.92.264Zm.168-.576c.363 0 .654-.128.872-.384.219-.256.328-.632.328-1.128 0-.496-.109-.869-.328-1.12-.218-.25-.509-.376-.872-.376-.362 0-.656.126-.88.376-.218.251-.328.624-.328 1.12 0 .496.11.872.328 1.128.219.256.512.384.88.384Zm-46.316 11.576c-.352 0-.661-.082-.928-.248a1.654 1.654 0 0 1-.624-.72c-.15-.314-.224-.688-.224-1.12 0-.432.075-.802.224-1.112.15-.314.357-.554.624-.72.267-.165.576-.248.928-.248.357 0 .667.091.928.272.267.176.443.419.528.728h-.096l.088-.928h.704l-.048.48c-.01.16-.016.318-.016.472v3.072h-.728v-.92h.088a1.272 1.272 0 0 1-.528.728 1.608 1.608 0 0 1-.92.264Zm.168-.576c.363 0 .653-.128.872-.384.219-.256.328-.632.328-1.128 0-.496-.11-.869-.328-1.12-.219-.25-.51-.376-.872-.376-.363 0-.656.126-.88.376-.219.251-.328.624-.328 1.12 0 .496.11.872.328 1.128.219.256.512.384.88.384Zm6.682 1.544v-1.04h-3.48v-4.024h.72v3.456h2.016v-3.456h.72v3.456h.64v1.608h-.616Zm3.305-.968c-.64 0-1.146-.184-1.52-.552-.368-.368-.552-.874-.552-1.52 0-.426.08-.794.24-1.104.166-.314.392-.557.68-.728a1.894 1.894 0 0 1 1.008-.264c.368 0 .68.08.936.24.256.155.451.376.584.664.134.288.2.63.2 1.024v.24h-3.08v-.432h2.584l-.136.104c0-.416-.093-.738-.28-.968-.181-.229-.45-.344-.808-.344-.389 0-.69.136-.904.408-.213.267-.32.632-.32 1.096v.072c0 .491.12.862.36 1.112.246.251.584.376 1.016.376.24 0 .464-.034.672-.104.208-.069.408-.184.6-.344l.24.504a1.853 1.853 0 0 1-.68.384 2.583 2.583 0 0 1-.84.136Zm3.454-.072v-3.44h-1.448v-.584h3.616v.584h-1.448v3.44h-.72Zm4.39.072c-.351 0-.66-.082-.927-.248a1.654 1.654 0 0 1-.624-.72c-.15-.314-.224-.688-.224-1.12 0-.432.075-.802.224-1.112.15-.314.357-.554.624-.72.267-.165.576-.248.928-.248.357 0 .667.091.928.272.267.176.443.419.528.728h-.096l.088-.928h.704l-.048.48c-.01.16-.016.318-.016.472v3.072h-.728v-.92h.088a1.272 1.272 0 0 1-.528.728 1.608 1.608 0 0 1-.92.264Zm.169-.576c.363 0 .653-.128.872-.384.219-.256.328-.632.328-1.128 0-.496-.11-.869-.328-1.12-.219-.25-.51-.376-.872-.376-.363 0-.656.126-.88.376-.219.251-.328.624-.328 1.12 0 .496.11.872.328 1.128.219.256.512.384.88.384Zm4.066.504v-3.44h-1.448v-.584h3.616v.584h-1.448v3.44h-.72ZM404.406 113.936v-1.88h.576c.288-.341.499-.805.632-1.392.139-.587.208-1.315.208-2.184v-1.456h3.896v5.032h.832v1.88h-.664v-1.272h-4.808v1.272h-.672Zm1.344-1.88h3.232v-4.432h-2.472v.912c0 .848-.061 1.555-.184 2.12-.123.56-.315 1.027-.576 1.4Zm5.605.608v-4.024h.664v3.336h-.216l2.496-3.336h.608v4.024h-.664v-3.344h.224l-2.504 3.344h-.608Zm4.797 0v-4.024h.608l1.48 2.632 1.488-2.632h.6v4.024h-.64v-3.208h.176l-1.44 2.56h-.36l-1.44-2.568h.168v3.216h-.64Zm7.278.072c-.64 0-1.147-.184-1.52-.552-.368-.368-.552-.875-.552-1.52 0-.427.08-.795.24-1.104.165-.315.392-.557.68-.728a1.894 1.894 0 0 1 1.008-.264c.368 0 .68.08.936.24.256.155.45.376.584.664.133.288.2.629.2 1.024v.24h-3.08v-.432h2.584l-.136.104c0-.416-.094-.739-.28-.968-.182-.229-.451-.344-.808-.344-.39 0-.691.136-.904.408-.214.267-.32.632-.32 1.096v.072c0 .491.12.861.36 1.112.245.251.584.376 1.016.376.24 0 .464-.035.672-.104.208-.069.408-.184.6-.344l.24.504a1.888 1.888 0 0 1-.68.384 2.585 2.585 0 0 1-.84.136Zm3.453-.072v-3.44h-1.448v-.584h3.616v.584h-1.448v3.44h-.72Zm2.831 0v-4.024h.664v3.336h-.216l2.496-3.336h.608v4.024h-.664v-3.344h.224l-2.504 3.344h-.608Zm4.605.096-.256-.568c.187-.085.342-.187.464-.304.128-.123.227-.277.296-.464.075-.187.128-.419.16-.696.032-.277.048-.613.048-1.008v-1.08h2.968v4.024h-.72v-3.456h-1.576v.528c0 .619-.048 1.131-.144 1.536-.09.4-.237.717-.44.952a1.843 1.843 0 0 1-.8.536Zm7.247 1.632v-2.6h.08c-.08.304-.222.539-.424.704-.198.16-.44.24-.728.24s-.544-.085-.768-.256a1.662 1.662 0 0 1-.512-.72c-.123-.315-.184-.685-.184-1.112 0-.427.058-.795.176-1.104.122-.315.293-.555.512-.72.224-.171.482-.256.776-.256.288 0 .53.083.728.248.202.16.344.389.424.688h-.08v-2.728h.72v2.728h-.08c.085-.299.226-.528.424-.688.197-.165.44-.248.728-.248.293 0 .549.085.768.256.224.165.394.405.512.72.122.309.184.677.184 1.104 0 .427-.062.797-.184 1.112a1.625 1.625 0 0 1-.504.72 1.224 1.224 0 0 1-.776.256c-.283 0-.526-.08-.728-.24-.198-.165-.339-.4-.424-.704h.08v2.6h-.72Zm-.896-2.224c.282 0 .504-.128.664-.384.165-.256.248-.635.248-1.136 0-.491-.083-.867-.248-1.128-.166-.261-.387-.392-.664-.392-.283 0-.507.131-.672.392-.16.261-.24.637-.24 1.128 0 .501.08.88.24 1.136.165.256.389.384.672.384Zm2.512 0c.282 0 .506-.128.672-.384.165-.256.248-.635.248-1.136 0-.491-.083-.867-.248-1.128-.166-.261-.39-.392-.672-.392-.283 0-.504.131-.664.392-.16.261-.24.637-.24 1.128 0 .501.08.88.24 1.136.16.256.381.384.664.384Zm2.561 2.312-.168-.592c.251-.059.459-.128.624-.208.165-.075.304-.173.416-.296.112-.123.211-.277.296-.464l.2-.48-.016.304-1.752-4.104h.784l1.4 3.448h-.208l1.4-3.448h.752l-1.848 4.336c-.112.261-.235.48-.368.656a1.915 1.915 0 0 1-.92.696 3.654 3.654 0 0 1-.592.152Zm4.464-1.816v-4.024h.608l1.48 2.632 1.488-2.632h.6v4.024h-.64v-3.208h.176l-1.44 2.56h-.36l-1.44-2.568h.168v3.216h-.64Zm6.982.072c-.352 0-.662-.083-.928-.248a1.648 1.648 0 0 1-.624-.72c-.15-.315-.224-.688-.224-1.12 0-.432.074-.803.224-1.112.149-.315.357-.555.624-.72.266-.165.576-.248.928-.248.357 0 .666.091.928.272.266.176.442.419.528.728h-.096l.088-.928h.704l-.048.48a6.87 6.87 0 0 0-.016.472v3.072h-.728v-.92h.088a1.278 1.278 0 0 1-.528.728 1.61 1.61 0 0 1-.92.264Zm.168-.576c.362 0 .653-.128.872-.384.218-.256.328-.632.328-1.128 0-.496-.11-.869-.328-1.12-.219-.251-.51-.376-.872-.376-.363 0-.656.125-.88.376-.219.251-.328.624-.328 1.12 0 .496.109.872.328 1.128.218.256.512.384.88.384Zm3.225 2.232v-4.8a6.87 6.87 0 0 0-.064-.952h.704l.088.928h-.088c.08-.309.251-.552.512-.728.262-.181.574-.272.936-.272.358 0 .67.083.936.248.267.165.472.405.616.72.15.309.224.68.224 1.112 0 .432-.074.805-.224 1.12a1.602 1.602 0 0 1-.616.72 1.74 1.74 0 0 1-.936.248c-.357 0-.666-.088-.928-.264a1.335 1.335 0 0 1-.52-.728h.088v2.648h-.728Zm1.92-2.232c.368 0 .662-.128.88-.384.219-.256.328-.632.328-1.128 0-.496-.109-.869-.328-1.12-.218-.251-.512-.376-.88-.376s-.661.125-.88.376c-.213.251-.32.624-.32 1.12 0 .496.107.872.32 1.128.219.256.512.384.88.384Zm4.546.576c-.352 0-.661-.083-.928-.248a1.648 1.648 0 0 1-.624-.72c-.149-.315-.224-.688-.224-1.12 0-.432.075-.803.224-1.112.149-.315.357-.555.624-.72.267-.165.576-.248.928-.248.357 0 .667.091.928.272.267.176.443.419.528.728h-.096l.088-.928h.704l-.048.48a6.87 6.87 0 0 0-.016.472v3.072h-.728v-.92h.088a1.27 1.27 0 0 1-.528.728 1.607 1.607 0 0 1-.92.264Zm.168-.576c.363 0 .653-.128.872-.384.219-.256.328-.632.328-1.128 0-.496-.109-.869-.328-1.12-.219-.251-.509-.376-.872-.376s-.656.125-.88.376c-.219.251-.328.624-.328 1.12 0 .496.109.872.328 1.128.219.256.512.384.88.384Zm4.066.504v-3.44h-1.448v-.584h3.616v.584h-1.448v3.44h-.72ZM511.245 112.664l2.496-5.64h.648l2.536 5.64h-.768l-.696-1.6.32.192h-3.432l.352-.192-.696 1.6h-.76Zm2.808-4.808-1.248 2.96-.192-.168h2.904l-.152.168-1.28-2.96h-.032Zm3.418 4.904-.256-.568c.187-.085.342-.187.464-.304.128-.123.227-.277.296-.464.075-.187.128-.419.16-.696.032-.277.048-.613.048-1.008v-1.08h2.968v4.024h-.72v-3.456h-1.576v.528c0 .619-.048 1.131-.144 1.536-.09.4-.237.717-.44.952a1.843 1.843 0 0 1-.8.536Zm6.783-.024c-.64 0-1.147-.184-1.52-.552-.368-.368-.552-.875-.552-1.52 0-.427.08-.795.24-1.104.165-.315.392-.557.68-.728a1.894 1.894 0 0 1 1.008-.264c.368 0 .68.08.936.24.256.155.45.376.584.664.133.288.2.629.2 1.024v.24h-3.08v-.432h2.584l-.136.104c0-.416-.094-.739-.28-.968-.182-.229-.451-.344-.808-.344-.39 0-.691.136-.904.408-.214.267-.32.632-.32 1.096v.072c0 .491.12.861.36 1.112.245.251.584.376 1.016.376.24 0 .464-.035.672-.104.208-.069.408-.184.6-.344l.24.504a1.888 1.888 0 0 1-.68.384 2.585 2.585 0 0 1-.84.136Zm2.589-.072v-4.024h.608l1.48 2.632 1.488-2.632h.6v4.024h-.64v-3.208h.176l-1.44 2.56h-.36l-1.44-2.568h.168v3.216h-.64Zm6.286 0v-3.44h-1.448v-.584h3.616v.584h-1.448v3.44h-.72Zm2.743 1.816-.168-.592a3.09 3.09 0 0 0 .624-.208c.165-.075.304-.173.416-.296.112-.123.21-.277.296-.464l.2-.48-.016.304-1.752-4.104h.784l1.4 3.448h-.208l1.4-3.448h.752l-1.848 4.336c-.112.261-.235.48-.368.656a1.937 1.937 0 0 1-.92.696 3.68 3.68 0 0 1-.592.152Zm5.808-1.744c-.352 0-.68-.045-.984-.136a2.09 2.09 0 0 1-.752-.384l.24-.504c.197.16.421.28.672.36.251.08.523.12.816.12.384 0 .661-.056.832-.168a.569.569 0 0 0 .264-.504c0-.208-.072-.365-.216-.472-.144-.107-.355-.16-.632-.16h-.976v-.528h.888c.251 0 .445-.053.584-.16a.547.547 0 0 0 .216-.456.536.536 0 0 0-.24-.464c-.16-.117-.405-.176-.736-.176a2.435 2.435 0 0 0-1.416.432l-.232-.472c.219-.171.475-.296.768-.376.293-.08.613-.12.96-.12.507 0 .893.099 1.16.296.272.192.408.467.408.824a.91.91 0 0 1-.256.648 1.116 1.116 0 0 1-.68.32v-.104c.32.016.579.115.776.296.197.176.296.411.296.704 0 .357-.149.645-.448.864-.299.213-.736.32-1.312.32Zm2.621 1.744-.168-.592c.251-.059.459-.128.624-.208.166-.075.304-.173.416-.296.112-.123.211-.277.296-.464l.2-.48-.016.304-1.752-4.104h.784l1.4 3.448h-.208l1.4-3.448h.752l-1.848 4.336c-.112.261-.234.48-.368.656a1.915 1.915 0 0 1-.92.696 3.627 3.627 0 0 1-.592.152Zm4.464-1.816v-4.024h.608l1.48 2.632 1.488-2.632h.6v4.024h-.64v-3.208h.176l-1.44 2.56h-.36l-1.44-2.568h.168v3.216h-.64Zm6.982.072c-.352 0-.661-.083-.928-.248a1.648 1.648 0 0 1-.624-.72c-.149-.315-.224-.688-.224-1.12 0-.432.075-.803.224-1.112.149-.315.357-.555.624-.72.267-.165.576-.248.928-.248.357 0 .667.091.928.272.267.176.443.419.528.728h-.096l.088-.928h.704l-.048.48a6.87 6.87 0 0 0-.016.472v3.072h-.728v-.92h.088a1.27 1.27 0 0 1-.528.728 1.607 1.607 0 0 1-.92.264Zm.168-.576c.363 0 .653-.128.872-.384.219-.256.328-.632.328-1.128 0-.496-.109-.869-.328-1.12-.219-.251-.509-.376-.872-.376s-.656.125-.88.376c-.219.251-.328.624-.328 1.12 0 .496.109.872.328 1.128.219.256.512.384.88.384Zm4.954.576c-.603 0-1.08-.189-1.432-.568-.352-.379-.528-.933-.528-1.664v-.696c0-.747.157-1.349.472-1.808.314-.459.802-.768 1.464-.928l1.472-.368.216.592-1.632.392a1.555 1.555 0 0 0-.728.376 1.744 1.744 0 0 0-.432.64 2.236 2.236 0 0 0-.136.784v.344h-.112a1.7 1.7 0 0 1 .304-.624c.144-.176.322-.309.536-.4.213-.096.448-.144.704-.144.346 0 .65.08.912.24.261.16.464.392.608.696.149.299.224.656.224 1.072 0 .427-.08.795-.24 1.104a1.653 1.653 0 0 1-.664.712 1.993 1.993 0 0 1-1.008.248Zm-.024-.576c.373 0 .666-.123.88-.368.218-.245.328-.611.328-1.096 0-.475-.11-.837-.328-1.088-.214-.251-.507-.376-.88-.376-.374 0-.67.123-.888.368-.214.245-.32.595-.32 1.048 0 .507.106.885.32 1.136.218.251.514.376.888.376ZM720.2 44.006c-.565 0-1.051-.118-1.456-.352a2.32 2.32 0 0 1-.92-1c-.213-.438-.32-.952-.32-1.544 0-.592.107-1.104.32-1.536a2.32 2.32 0 0 1 .92-1c.405-.235.891-.352 1.456-.352.405 0 .765.06 1.08.184.315.117.589.29.824.52l-.272.6a2.562 2.562 0 0 0-.76-.48 2.23 2.23 0 0 0-.856-.152c-.624 0-1.101.192-1.432.576-.331.384-.496.93-.496 1.64 0 .709.165 1.258.496 1.648.331.384.808.576 1.432.576.325 0 .611-.048.856-.144.251-.102.504-.264.76-.488l.272.592c-.235.229-.512.405-.832.528a2.934 2.934 0 0 1-1.072.184Zm2.925-.072V39.91h.664v3.336h-.216l2.496-3.336h.608v4.024h-.664V40.59h.224l-2.504 3.344h-.608Zm4.796 0V39.91h3.544v4.024h-.72v-3.456h-2.104v3.456h-.72Zm6.51.072c-.395 0-.736-.083-1.024-.248a1.754 1.754 0 0 1-.672-.72c-.16-.315-.24-.688-.24-1.12 0-.427.08-.795.24-1.104a1.69 1.69 0 0 1 .672-.72c.288-.171.629-.256 1.024-.256.394 0 .736.085 1.024.256.293.165.517.405.672.72.16.309.24.677.24 1.104 0 .432-.08.805-.24 1.12a1.69 1.69 0 0 1-.672.72c-.288.165-.63.248-1.024.248Zm0-.576c.362 0 .653-.128.872-.384.218-.256.328-.632.328-1.128 0-.496-.11-.87-.328-1.12-.219-.251-.51-.376-.872-.376-.368 0-.662.125-.88.376-.214.25-.32.624-.32 1.12 0 .496.106.872.32 1.128.218.256.512.384.88.384Zm2.975.504V39.91h.72v1.664h2.128V39.91h.72v4.024h-.72V42.15h-2.128v1.784h-.72Zm4.812 0V39.91h.664v3.336h-.216l2.496-3.336h.608v4.024h-.664V40.59h.224l-2.504 3.344h-.608Zm4.797 0V39.91h.608l1.48 2.632 1.488-2.632h.6v4.024h-.64v-3.208h.176l-1.44 2.56h-.36l-1.44-2.568h.168v3.216h-.64Zm7.142.072c-.395 0-.736-.083-1.024-.248a1.754 1.754 0 0 1-.672-.72c-.16-.315-.24-.688-.24-1.12 0-.427.08-.795.24-1.104a1.69 1.69 0 0 1 .672-.72c.288-.171.629-.256 1.024-.256s.736.085 1.024.256c.293.165.517.405.672.72.16.309.24.677.24 1.104 0 .432-.08.805-.24 1.12a1.69 1.69 0 0 1-.672.72c-.288.165-.629.248-1.024.248Zm0-.576c.363 0 .653-.128.872-.384.219-.256.328-.632.328-1.128 0-.496-.109-.87-.328-1.12-.219-.251-.509-.376-.872-.376-.368 0-.661.125-.88.376-.213.25-.32.624-.32 1.12 0 .496.107.872.32 1.128.219.256.512.384.88.384Zm2.559 1.544v-1.608h.44c.182-.272.312-.592.392-.96.086-.368.128-.806.128-1.312V39.91h2.888v3.456h.64v1.608h-.624v-1.04h-3.232v1.04h-.632Zm1.128-1.6h2.04V40.47h-1.568v.752c0 .405-.04.8-.12 1.184-.08.378-.197.7-.352.968ZM643.886 19.958v-5.64h4.76v5.64h-.736v-5.016h-3.288v5.016h-.736Zm6.133 0v-5.64h4.76v5.64h-.736v-5.016h-3.288v5.016h-.736Zm6.133 0v-5.64h.688v4.688h-.184l3.536-4.688h.576v5.64h-.696V15.27h.184l-3.544 4.688h-.56Zm5.864-1.896v-.592h2.312v.592h-2.312Zm5.462 1.968c-.688 0-1.219-.243-1.592-.728-.374-.485-.56-1.163-.56-2.032 0-.65.093-1.2.28-1.648.192-.448.464-.79.816-1.024.352-.235.773-.352 1.264-.352.298 0 .597.059.896.176.298.117.546.28.744.488l-.272.576a1.901 1.901 0 0 0-.656-.448 1.803 1.803 0 0 0-.72-.152c-.528 0-.934.19-1.216.568-.278.373-.416.93-.416 1.672v.712h-.08c.037-.299.128-.555.272-.768.149-.213.338-.379.568-.496.234-.117.498-.176.792-.176a1.676 1.676 0 0 1 1.512.864c.149.267.224.576.224.928 0 .352-.08.67-.24.952-.16.277-.379.496-.656.656a1.941 1.941 0 0 1-.96.232Zm-.04-.616c.234 0 .44-.05.616-.152a1.03 1.03 0 0 0 .416-.424 1.26 1.26 0 0 0 .152-.624 1.26 1.26 0 0 0-.152-.624 1.03 1.03 0 0 0-.416-.424 1.215 1.215 0 0 0-.616-.152c-.235 0-.443.05-.624.152a1.094 1.094 0 0 0-.416.424 1.25 1.25 0 0 0-.152.624c0 .235.05.443.152.624.101.181.24.323.416.424.181.101.389.152.624.152Zm3.109 1.496-.328-.256c.149-.155.25-.301.304-.44.053-.133.08-.272.08-.416l.16.16h-.584v-.888h.888v.616c0 .23-.038.44-.112.632a1.725 1.725 0 0 1-.408.592Zm-27.221 11.32v-1.88h.576c.288-.341.499-.805.632-1.392.139-.587.208-1.315.208-2.184v-1.456h3.896v5.032h.832v1.88h-.664v-1.272h-4.808v1.272h-.672Zm1.344-1.88h3.232v-4.432h-2.472v.912c0 .848-.061 1.555-.184 2.12-.122.56-.314 1.027-.576 1.4Zm5.605.608v-4.024h.664v3.336h-.216l2.496-3.336h.608v4.024h-.664v-3.344h.224l-2.504 3.344h-.608Zm6.357.072c-.352 0-.661-.083-.928-.248a1.665 1.665 0 0 1-.624-.72c-.149-.315-.224-.688-.224-1.12 0-.432.075-.803.224-1.112.15-.315.358-.555.624-.72.267-.165.576-.248.928-.248.358 0 .667.09.928.272.267.176.443.419.528.728h-.096l.088-.928h.704l-.048.48c-.01.16-.016.317-.016.472v3.072h-.728v-.92h.088a1.27 1.27 0 0 1-.528.728 1.607 1.607 0 0 1-.92.264Zm.168-.576c.363 0 .654-.128.872-.384.219-.256.328-.632.328-1.128 0-.496-.109-.87-.328-1.12-.218-.25-.509-.376-.872-.376-.362 0-.656.125-.88.376-.218.25-.328.624-.328 1.12 0 .496.11.872.328 1.128.219.256.512.384.88.384Zm3.202.504v-4.024h2.856v.584h-2.128v3.44h-.728Zm3.602 0v-4.024h.72v1.664h2.128v-1.664h.72v4.024h-.72v-1.784h-2.128v1.784h-.72Zm6.532.072c-.395 0-.736-.083-1.024-.248a1.754 1.754 0 0 1-.672-.72c-.16-.315-.24-.688-.24-1.12 0-.427.08-.795.24-1.104a1.69 1.69 0 0 1 .672-.72c.288-.17.629-.256 1.024-.256s.736.085 1.024.256c.293.165.517.405.672.72.16.31.24.677.24 1.104 0 .432-.08.805-.24 1.12a1.69 1.69 0 0 1-.672.72c-.288.165-.629.248-1.024.248Zm0-.576c.363 0 .653-.128.872-.384.219-.256.328-.632.328-1.128 0-.496-.109-.87-.328-1.12-.219-.25-.509-.376-.872-.376-.368 0-.661.125-.88.376-.213.25-.32.624-.32 1.12 0 .496.107.872.32 1.128.219.256.512.384.88.384Zm4.343.576c-.352 0-.68-.045-.984-.136a2.089 2.089 0 0 1-.752-.384l.24-.504c.198.16.422.28.672.36.251.08.523.12.816.12.384 0 .662-.056.832-.168a.57.57 0 0 0 .264-.504c0-.208-.072-.365-.216-.472-.144-.107-.354-.16-.632-.16h-.976v-.528h.888c.251 0 .446-.053.584-.16a.547.547 0 0 0 .216-.456.536.536 0 0 0-.24-.464c-.16-.117-.405-.176-.736-.176a2.448 2.448 0 0 0-1.416.432l-.232-.472c.219-.17.475-.296.768-.376.294-.08.614-.12.96-.12.507 0 .894.099 1.16.296.272.192.408.467.408.824 0 .25-.085.467-.256.648-.17.176-.397.283-.68.32v-.104c.32.016.579.115.776.296.198.176.296.41.296.704 0 .357-.149.645-.448.864-.298.213-.736.32-1.312.32Zm-30.593 10.928v-5.64h2.296c.608 0 1.075.128 1.4.384.326.256.488.616.488 1.08 0 .352-.106.645-.32.88-.208.235-.493.392-.856.472v-.12c.416.048.739.192.968.432.235.24.352.557.352.952 0 .501-.168.888-.504 1.16-.336.267-.81.4-1.424.4h-2.4Zm.72-.592h1.608c.395 0 .704-.075.928-.224.23-.155.344-.408.344-.76 0-.357-.114-.61-.344-.76-.224-.15-.533-.224-.928-.224h-1.608v1.968Zm0-2.56h1.472c.422 0 .736-.08.944-.24.208-.165.312-.403.312-.712 0-.31-.104-.544-.312-.704-.208-.165-.522-.248-.944-.248h-1.472v1.904Zm4.741 3.152v-5.64h4.76v5.64h-.736v-5.016h-3.288v5.016h-.736Zm6.133 0v-5.64h2.336c.603 0 1.064.144 1.384.432.32.288.48.685.48 1.192 0 .507-.16.907-.48 1.2-.32.288-.781.432-1.384.432h-1.592v2.384h-.744Zm.744-2.992h1.52c.395 0 .693-.088.896-.264.203-.181.304-.435.304-.76s-.101-.576-.304-.752c-.203-.176-.501-.264-.896-.264h-1.52v2.04Zm6.908 3.064c-.565 0-1.05-.117-1.456-.352a2.326 2.326 0 0 1-.92-1c-.213-.437-.32-.952-.32-1.544 0-.592.107-1.104.32-1.536.214-.432.52-.765.92-1 .406-.235.891-.352 1.456-.352.406 0 .766.061 1.08.184.315.117.59.29.824.52l-.272.6a2.562 2.562 0 0 0-.76-.48 2.227 2.227 0 0 0-.856-.152c-.624 0-1.101.192-1.432.576-.33.384-.496.93-.496 1.64 0 .71.166 1.259.496 1.648.331.384.808.576 1.432.576.326 0 .611-.048.856-.144.251-.101.504-.264.76-.488l.272.592c-.234.23-.512.405-.832.528a2.93 2.93 0 0 1-1.072.184ZM124.599 293.847l2.496-5.64h.648l2.536 5.64h-.768l-.696-1.6.32.192h-3.432l.352-.192-.696 1.6h-.76Zm2.808-4.808-1.248 2.96-.192-.168h2.904l-.152.168-1.28-2.96h-.032Zm3.61 4.808v-4.024h3.544v4.024h-.72v-3.456h-2.104v3.456h-.72Zm4.813 1.728v-4.8a6.87 6.87 0 0 0-.064-.952h.704l.088.928h-.088c.08-.31.251-.552.512-.728.261-.182.573-.272.936-.272.357 0 .669.082.936.248.267.165.472.405.616.72.149.309.224.68.224 1.112 0 .432-.075.805-.224 1.12a1.612 1.612 0 0 1-.616.72 1.744 1.744 0 0 1-.936.248c-.357 0-.667-.088-.928-.264a1.339 1.339 0 0 1-.52-.728h.088v2.648h-.728Zm1.92-2.232c.368 0 .661-.128.88-.384.219-.256.328-.632.328-1.128 0-.496-.109-.87-.328-1.12-.219-.251-.512-.376-.88-.376s-.661.125-.88.376c-.213.25-.32.624-.32 1.12 0 .496.107.872.32 1.128.219.256.512.384.88.384Zm2.717.504v-.888h.888v.888h-.888Zm4.48 0v-.632h1.32v-4.376h.376l-1.576.976v-.728l1.408-.88h.536v5.008h1.24v.632h-3.304Zm6.301.072a3.369 3.369 0 0 1-1.392-.304 2.24 2.24 0 0 1-.544-.368l.264-.576c.262.208.528.362.8.464.272.096.558.144.856.144.395 0 .704-.104.928-.312.224-.208.336-.486.336-.832 0-.358-.106-.646-.32-.864-.213-.224-.509-.336-.888-.336-.261 0-.498.053-.712.16a1.48 1.48 0 0 0-.552.488h-.528v-3.376h3.384v.632h-2.664v2.136h-.192a1.43 1.43 0 0 1 .584-.496 1.95 1.95 0 0 1 .84-.176c.363 0 .675.074.936.224.267.149.472.36.616.632.15.266.224.578.224.936 0 .357-.08.674-.24.952-.16.272-.389.485-.688.64-.293.154-.642.232-1.048.232ZM174.11 293.847v-5.64h.688v4.688h-.184l3.536-4.688h.576v5.64h-.696v-4.688h.184l-3.544 4.688h-.56Zm9.328.072c-.549 0-.995-.163-1.336-.488-.336-.331-.528-.787-.576-1.368h-.784v1.784h-.712v-4.024h.712v1.664h.792c.069-.544.272-.968.608-1.272.336-.31.768-.464 1.296-.464.395 0 .736.082 1.024.248.293.165.52.405.68.72.16.309.24.68.24 1.112 0 .432-.08.805-.24 1.12-.16.309-.387.549-.68.72-.288.165-.629.248-1.024.248Zm0-.576c.368 0 .661-.126.88-.376.219-.256.328-.635.328-1.136 0-.496-.109-.87-.328-1.12-.219-.256-.512-.384-.88-.384s-.661.128-.88.384c-.219.25-.328.624-.328 1.12 0 .501.109.88.328 1.136.219.25.512.376.88.376Zm2.975.504v-4.024h.72v1.664h2.128v-1.664h.72v4.024h-.72v-1.784h-2.128v1.784h-.72Zm4.676 0v-.888h.888v.888h-.888Zm4.481 0v-.632h1.32v-4.376h.376l-1.576.976v-.728l1.408-.88h.536v5.008h1.24v.632h-3.304Zm6.301.072a3.362 3.362 0 0 1-1.392-.304 2.222 2.222 0 0 1-.544-.368l.264-.576c.261.208.528.362.8.464.272.096.557.144.856.144.394 0 .704-.104.928-.312.224-.208.336-.486.336-.832 0-.358-.107-.646-.32-.864-.214-.224-.51-.336-.888-.336-.262 0-.499.053-.712.16a1.48 1.48 0 0 0-.552.488h-.528v-3.376h3.384v.632h-2.664v2.136h-.192c.144-.214.338-.379.584-.496.25-.118.53-.176.84-.176.362 0 .674.074.936.224.266.149.472.36.616.632.149.266.224.578.224.936 0 .357-.08.674-.24.952-.16.272-.39.485-.688.64-.294.154-.643.232-1.048.232ZM228.133 291.023c0-.592.104-1.104.312-1.536.208-.432.506-.766.896-1 .394-.235.864-.352 1.408-.352.538 0 1.002.117 1.392.352.394.234.698.568.912 1 .213.432.32.941.32 1.528 0 .592-.107 1.106-.32 1.544a2.397 2.397 0 0 1-.912 1.008c-.39.234-.854.352-1.392.352-.544 0-1.011-.118-1.4-.352a2.399 2.399 0 0 1-.904-1.008c-.208-.438-.312-.95-.312-1.536Zm.784 0c0 .704.154 1.253.464 1.648.309.394.765.592 1.368.592.581 0 1.032-.195 1.352-.584.325-.395.488-.947.488-1.656 0-.71-.16-1.259-.48-1.648-.32-.39-.774-.584-1.36-.584-.603 0-1.059.194-1.368.584-.31.389-.464.938-.464 1.648Zm5.571 2.824v-4.024h.72v1.664h.728l1.296-1.664h.792l-1.504 1.96-.192-.224c.154.016.288.056.4.12.112.058.218.146.32.264.106.117.221.274.344.472l.832 1.432h-.784l-.728-1.24a1.521 1.521 0 0 0-.24-.336.666.666 0 0 0-.272-.168 1.186 1.186 0 0 0-.368-.048h-.624v1.792h-.72Zm5.223 0v-3.44h-1.448v-.584h3.616v.584h-1.448v3.44h-.72Zm2.133 0v-.888h.888v.888h-.888Zm4.48 0v-.632h1.32v-4.376h.376l-1.576.976v-.728l1.408-.88h.536v5.008h1.24v.632h-3.304Zm6.301.072a3.369 3.369 0 0 1-1.392-.304 2.24 2.24 0 0 1-.544-.368l.264-.576c.262.208.528.362.8.464.272.096.558.144.856.144.395 0 .704-.104.928-.312.224-.208.336-.486.336-.832 0-.358-.106-.646-.32-.864-.213-.224-.509-.336-.888-.336-.261 0-.498.053-.712.16a1.48 1.48 0 0 0-.552.488h-.528v-3.376h3.384v.632h-2.664v2.136h-.192a1.43 1.43 0 0 1 .584-.496 1.95 1.95 0 0 1 .84-.176c.363 0 .675.074.936.224.267.149.472.36.616.632.15.266.224.578.224.936 0 .357-.08.674-.24.952-.16.272-.389.485-.688.64-.293.154-.642.232-1.048.232ZM274.802 295.119v-1.88h.576c.288-.342.498-.806.632-1.392.138-.587.208-1.315.208-2.184v-1.456h3.896v5.032h.832v1.88h-.664v-1.272h-4.808v1.272h-.672Zm1.344-1.88h3.232v-4.432h-2.472v.912c0 .848-.062 1.554-.184 2.12-.123.56-.315 1.026-.576 1.4Zm7.461.68c-.64 0-1.147-.184-1.52-.552-.368-.368-.552-.875-.552-1.52 0-.427.08-.795.24-1.104.165-.315.392-.558.68-.728a1.894 1.894 0 0 1 1.008-.264c.368 0 .68.08.936.24.256.154.45.376.584.664.133.288.2.629.2 1.024v.24h-3.08v-.432h2.584l-.136.104c0-.416-.094-.739-.28-.968-.182-.23-.451-.344-.808-.344-.39 0-.691.136-.904.408-.214.266-.32.632-.32 1.096v.072c0 .49.12.861.36 1.112.245.25.584.376 1.016.376.24 0 .464-.035.672-.104.208-.07.408-.184.6-.344l.24.504a1.888 1.888 0 0 1-.68.384c-.267.09-.547.136-.84.136Zm2.589-.072v-4.024h.72v1.664h.728l1.296-1.664h.792l-1.504 1.96-.192-.224c.155.016.288.056.4.12.112.058.219.146.32.264.107.117.221.274.344.472l.832 1.432h-.784l-.728-1.24a1.521 1.521 0 0 0-.24-.336.666.666 0 0 0-.272-.168 1.186 1.186 0 0 0-.368-.048h-.624v1.792h-.72Zm4.224 0v-.888h.888v.888h-.888Zm4.48 0v-.632h1.32v-4.376h.376l-1.576.976v-.728l1.408-.88h.536v5.008h1.24v.632H294.9Zm6.301.072a3.369 3.369 0 0 1-1.392-.304 2.24 2.24 0 0 1-.544-.368l.264-.576c.261.208.528.362.8.464.272.096.557.144.856.144.395 0 .704-.104.928-.312.224-.208.336-.486.336-.832 0-.358-.107-.646-.32-.864-.213-.224-.509-.336-.888-.336-.261 0-.499.053-.712.16a1.48 1.48 0 0 0-.552.488h-.528v-3.376h3.384v.632h-2.664v2.136h-.192a1.43 1.43 0 0 1 .584-.496 1.95 1.95 0 0 1 .84-.176c.363 0 .675.074.936.224.267.149.472.36.616.632.149.266.224.578.224.936 0 .357-.08.674-.24.952-.16.272-.389.485-.688.64-.293.154-.643.232-1.048.232ZM323.578 293.847v-5.64h.656l2.224 5.008h-.24l2.224-5.008h.648v5.64h-.68v-4.648h.248l-2.088 4.648h-.472l-2.088-4.648h.248v4.648h-.68Zm8.387.072c-.352 0-.661-.083-.928-.248a1.66 1.66 0 0 1-.624-.72c-.149-.315-.224-.688-.224-1.12 0-.432.075-.803.224-1.112.149-.315.357-.555.624-.72a1.72 1.72 0 0 1 .928-.248c.357 0 .667.09.928.272.267.176.443.418.528.728h-.096l.088-.928h.704l-.048.48a6.87 6.87 0 0 0-.016.472v3.072h-.728v-.92h.088a1.272 1.272 0 0 1-.528.728 1.607 1.607 0 0 1-.92.264Zm.168-.576c.363 0 .653-.128.872-.384.219-.256.328-.632.328-1.128 0-.496-.109-.87-.328-1.12-.219-.251-.509-.376-.872-.376s-.656.125-.88.376c-.219.25-.328.624-.328 1.12 0 .496.109.872.328 1.128.219.256.512.384.88.384Zm3.226 2.232v-4.8a7.568 7.568 0 0 0-.064-.952h.704l.088.928h-.088c.08-.31.25-.552.512-.728.261-.182.573-.272.936-.272.357 0 .669.082.936.248.266.165.472.405.616.72.149.309.224.68.224 1.112 0 .432-.075.805-.224 1.12-.144.314-.35.554-.616.72a1.744 1.744 0 0 1-.936.248 1.62 1.62 0 0 1-.928-.264 1.334 1.334 0 0 1-.52-.728h.088v2.648h-.728Zm1.92-2.232c.368 0 .661-.128.88-.384.218-.256.328-.632.328-1.128 0-.496-.11-.87-.328-1.12-.219-.251-.512-.376-.88-.376s-.662.125-.88.376c-.214.25-.32.624-.32 1.12 0 .496.106.872.32 1.128.218.256.512.384.88.384Zm2.716.504v-.888h.888v.888h-.888Zm4.481 0v-.632h1.32v-4.376h.376l-1.576.976v-.728l1.408-.88h.536v5.008h1.24v.632h-3.304Zm6.389.072c-.688 0-1.219-.243-1.592-.728-.373-.486-.56-1.163-.56-2.032 0-.651.093-1.2.28-1.648.192-.448.464-.79.816-1.024.352-.235.773-.352 1.264-.352.299 0 .597.058.896.176.299.117.547.28.744.488l-.272.576a1.888 1.888 0 0 0-.656-.448 1.79 1.79 0 0 0-.72-.152c-.528 0-.933.189-1.216.568-.277.373-.416.93-.416 1.672v.712h-.08a1.73 1.73 0 0 1 .272-.768c.149-.214.339-.379.568-.496a1.74 1.74 0 0 1 .792-.176c.336 0 .635.077.896.232.261.154.467.365.616.632.149.266.224.576.224.928a1.9 1.9 0 0 1-.24.952c-.16.277-.379.496-.656.656a1.943 1.943 0 0 1-.96.232Zm-.04-.616c.235 0 .44-.051.616-.152.181-.102.32-.243.416-.424.101-.182.152-.39.152-.624a1.26 1.26 0 0 0-.152-.624 1.024 1.024 0 0 0-.416-.424 1.205 1.205 0 0 0-.616-.152c-.235 0-.443.05-.624.152a1.087 1.087 0 0 0-.416.424 1.26 1.26 0 0 0-.152.624c0 .234.051.442.152.624a1.1 1.1 0 0 0 .416.424c.181.101.389.152.624.152ZM375.86 291.023c0-.592.104-1.104.312-1.536a2.3 2.3 0 0 1 .896-1c.395-.235.864-.352 1.408-.352.539 0 1.003.117 1.392.352.395.234.699.568.912 1 .214.432.32.941.32 1.528 0 .592-.106 1.106-.32 1.544a2.384 2.384 0 0 1-.912 1.008c-.389.234-.853.352-1.392.352-.544 0-1.01-.118-1.4-.352a2.412 2.412 0 0 1-.904-1.008c-.208-.438-.312-.95-.312-1.536Zm.784 0c0 .704.155 1.253.464 1.648.31.394.766.592 1.368.592.582 0 1.032-.195 1.352-.584.326-.395.488-.947.488-1.656 0-.71-.16-1.259-.48-1.648-.32-.39-.773-.584-1.36-.584-.602 0-1.058.194-1.368.584-.309.389-.464.938-.464 1.648Zm5.571 2.824v-4.024h.72v1.664h.728l1.296-1.664h.792l-1.504 1.96-.192-.224c.155.016.288.056.4.12.112.058.219.146.32.264.107.117.222.274.344.472l.832 1.432h-.784l-.728-1.24a1.521 1.521 0 0 0-.24-.336.66.66 0 0 0-.272-.168 1.181 1.181 0 0 0-.368-.048h-.624v1.792h-.72Zm5.224 0v-3.44h-1.448v-.584h3.616v.584h-1.448v3.44h-.72Zm2.132 0v-.888h.888v.888h-.888Zm4.481 0v-.632h1.32v-4.376h.376l-1.576.976v-.728l1.408-.88h.536v5.008h1.24v.632h-3.304Zm6.389.072c-.688 0-1.219-.243-1.592-.728-.374-.486-.56-1.163-.56-2.032 0-.651.093-1.2.28-1.648.192-.448.464-.79.816-1.024.352-.235.773-.352 1.264-.352.298 0 .597.058.896.176.298.117.546.28.744.488l-.272.576a1.897 1.897 0 0 0-.656-.448 1.79 1.79 0 0 0-.72-.152c-.528 0-.934.189-1.216.568-.278.373-.416.93-.416 1.672v.712h-.08a1.73 1.73 0 0 1 .272-.768c.149-.214.338-.379.568-.496.234-.118.498-.176.792-.176.336 0 .634.077.896.232.261.154.466.365.616.632.149.266.224.576.224.928a1.9 1.9 0 0 1-.24.952c-.16.277-.379.496-.656.656a1.949 1.949 0 0 1-.96.232Zm-.04-.616c.234 0 .44-.051.616-.152.181-.102.32-.243.416-.424.101-.182.152-.39.152-.624a1.26 1.26 0 0 0-.152-.624 1.024 1.024 0 0 0-.416-.424 1.208 1.208 0 0 0-.616-.152c-.235 0-.443.05-.624.152a1.087 1.087 0 0 0-.416.424 1.249 1.249 0 0 0-.152.624c0 .234.05.442.152.624a1.1 1.1 0 0 0 .416.424c.181.101.389.152.624.152ZM425.827 294.031v-.792l.192.16h-.216c-.544 0-1.014-.096-1.408-.288a2.16 2.16 0 0 1-.912-.832c-.208-.363-.312-.795-.312-1.296 0-.763.229-1.355.688-1.776.458-.427 1.106-.64 1.944-.64h.216l-.192.16v-.744h.744v.744l-.2-.16h.216c.842 0 1.493.213 1.952.64.458.421.688 1.013.688 1.776 0 .501-.107.933-.32 1.296-.208.357-.51.634-.904.832-.395.192-.867.288-1.416.288h-.216l.2-.16v.792h-.744Zm0-1.064v-3.96l.176.144h-.296c-.544 0-.976.157-1.296.472-.315.314-.472.768-.472 1.36 0 .384.072.714.216.992.149.272.357.48.624.624.266.144.576.216.928.216h.296l-.176.152Zm.744 0-.184-.152h.304c.352 0 .661-.072.928-.216.266-.144.472-.352.616-.624.149-.278.224-.608.224-.992 0-.592-.16-1.046-.48-1.36-.315-.315-.744-.472-1.288-.472h-.304l.184-.144v3.96Zm5.615.952c-.64 0-1.146-.184-1.52-.552-.368-.368-.552-.875-.552-1.52 0-.427.08-.795.24-1.104.166-.315.392-.558.68-.728a1.894 1.894 0 0 1 1.008-.264c.368 0 .68.08.936.24.256.154.451.376.584.664.134.288.2.629.2 1.024v.24h-3.08v-.432h2.584l-.136.104c0-.416-.093-.739-.28-.968-.181-.23-.45-.344-.808-.344-.389 0-.69.136-.904.408-.213.266-.32.632-.32 1.096v.072c0 .49.12.861.36 1.112.246.25.584.376 1.016.376.24 0 .464-.035.672-.104.208-.07.408-.184.6-.344l.24.504a1.88 1.88 0 0 1-.68.384c-.266.09-.546.136-.84.136Zm2.589-.072v-4.024h1.984c.475 0 .827.09 1.056.272.235.181.352.442.352.784a.881.881 0 0 1-.264.648c-.176.17-.405.274-.688.312v-.104c.336.01.6.109.792.296a.91.91 0 0 1 .296.704c0 .341-.13.613-.392.816-.256.197-.616.296-1.08.296h-2.056Zm.688-.48h1.32c.272 0 .48-.056.624-.168.144-.118.216-.283.216-.496 0-.219-.072-.384-.216-.496-.144-.112-.352-.168-.624-.168h-1.32v1.328Zm0-1.808h1.232c.251 0 .446-.056.584-.168a.563.563 0 0 0 .208-.464c0-.203-.069-.358-.208-.464-.138-.107-.333-.16-.584-.16h-1.232v1.256Zm3.684 2.288v-.888h.888v.888h-.888Zm4.481 0v-.632h1.32v-4.376h.376l-1.576.976v-.728l1.408-.88h.536v5.008h1.24v.632h-3.304Zm4.653 0 2.776-5.304v.304h-3.12v-.64h3.8v.552l-2.632 5.088h-.824ZM470.707 293.847v-5.64h.656l2.224 5.008h-.24l2.224-5.008h.648v5.64h-.68v-4.648h.248l-2.088 4.648h-.472l-2.088-4.648h.248v4.648h-.68Zm8.387.072c-.352 0-.661-.083-.928-.248a1.66 1.66 0 0 1-.624-.72c-.149-.315-.224-.688-.224-1.12 0-.432.075-.803.224-1.112.149-.315.357-.555.624-.72a1.72 1.72 0 0 1 .928-.248c.357 0 .667.09.928.272.267.176.443.418.528.728h-.096l.088-.928h.704l-.048.48a6.87 6.87 0 0 0-.016.472v3.072h-.728v-.92h.088a1.272 1.272 0 0 1-.528.728 1.607 1.607 0 0 1-.92.264Zm.168-.576c.363 0 .653-.128.872-.384.219-.256.328-.632.328-1.128 0-.496-.109-.87-.328-1.12-.219-.251-.509-.376-.872-.376s-.656.125-.88.376c-.219.25-.328.624-.328 1.12 0 .496.109.872.328 1.128.219.256.512.384.88.384Zm3.226 2.232v-4.8a7.568 7.568 0 0 0-.064-.952h.704l.088.928h-.088c.08-.31.25-.552.512-.728.261-.182.573-.272.936-.272.357 0 .669.082.936.248.266.165.472.405.616.72.149.309.224.68.224 1.112 0 .432-.075.805-.224 1.12-.144.314-.35.554-.616.72a1.744 1.744 0 0 1-.936.248 1.62 1.62 0 0 1-.928-.264 1.334 1.334 0 0 1-.52-.728h.088v2.648h-.728Zm1.92-2.232c.368 0 .661-.128.88-.384.218-.256.328-.632.328-1.128 0-.496-.11-.87-.328-1.12-.219-.251-.512-.376-.88-.376s-.662.125-.88.376c-.214.25-.32.624-.32 1.12 0 .496.106.872.32 1.128.218.256.512.384.88.384Zm3.849.504v-3.44h-1.448v-.584h3.616v.584h-1.448v3.44h-.72Zm2.133 0v-.888h.888v.888h-.888Zm4.481 0v-.632h1.32v-4.376h.376l-1.576.976v-.728l1.408-.88h.536v5.008h1.24v.632h-3.304Zm4.653 0 2.776-5.304v.304h-3.12v-.64h3.8v.552l-2.632 5.088h-.824ZM523.143 293.847v-5.64h.688v4.688h-.184l3.536-4.688h.576v5.64h-.696v-4.688h.184l-3.544 4.688h-.56Zm9.328.072c-.549 0-.995-.163-1.336-.488-.336-.331-.528-.787-.576-1.368h-.784v1.784h-.712v-4.024h.712v1.664h.792c.069-.544.272-.968.608-1.272.336-.31.768-.464 1.296-.464.395 0 .736.082 1.024.248.293.165.52.405.68.72.16.309.24.68.24 1.112 0 .432-.08.805-.24 1.12-.16.309-.387.549-.68.72-.288.165-.629.248-1.024.248Zm0-.576c.368 0 .661-.126.88-.376.219-.256.328-.635.328-1.136 0-.496-.109-.87-.328-1.12-.219-.256-.512-.384-.88-.384s-.661.128-.88.384c-.219.25-.328.624-.328 1.12 0 .501.109.88.328 1.136.219.25.512.376.88.376Zm2.705.6-.256-.568c.186-.086.341-.187.464-.304.128-.123.226-.278.296-.464.074-.187.128-.419.16-.696.032-.278.048-.614.048-1.008v-1.08h2.968v4.024h-.72v-3.456h-1.576v.528c0 .618-.048 1.13-.144 1.536-.091.4-.238.717-.44.952a1.857 1.857 0 0 1-.8.536Zm4.79-.096v-.888h.888v.888h-.888Zm4.481 0v-.632h1.32v-4.376h.376l-1.576.976v-.728l1.408-.88h.536v5.008h1.24v.632h-3.304Zm4.653 0 2.776-5.304v.304h-3.12v-.64h3.8v.552l-2.632 5.088h-.824ZM574.518 293.847l2.496-5.64h.648l2.536 5.64h-.768l-.696-1.6.32.192h-3.432l.352-.192-.696 1.6h-.76Zm2.808-4.808-1.248 2.96-.192-.168h2.904l-.152.168-1.28-2.96h-.032Zm3.611 4.808v-4.024h1.984c.474 0 .826.09 1.056.272.234.181.352.442.352.784a.881.881 0 0 1-.264.648c-.176.17-.406.274-.688.312v-.104c.336.01.6.109.792.296a.913.913 0 0 1 .296.704.981.981 0 0 1-.392.816c-.256.197-.616.296-1.08.296h-2.056Zm.688-.48h1.32c.272 0 .48-.056.624-.168.144-.118.216-.283.216-.496 0-.219-.072-.384-.216-.496-.144-.112-.352-.168-.624-.168h-1.32v1.328Zm0-1.808h1.232c.25 0 .445-.056.584-.168a.566.566 0 0 0 .208-.464c0-.203-.07-.358-.208-.464-.139-.107-.334-.16-.584-.16h-1.232v1.256Zm3.819 2.288v-4.024h2.856v.584h-2.128v3.44h-.728Zm2.31 0v-.888h.888v.888h-.888Zm4.48 0v-.632h1.32v-4.376h.376l-1.576.976v-.728l1.408-.88h.536v5.008h1.24v.632h-3.304Zm6.205.072c-.65 0-1.154-.139-1.512-.416-.357-.278-.536-.664-.536-1.16 0-.39.12-.712.36-.968.246-.262.563-.419.952-.472v.128a1.493 1.493 0 0 1-.856-.488 1.37 1.37 0 0 1-.312-.904c0-.47.168-.838.504-1.104.342-.267.808-.4 1.4-.4.598 0 1.064.133 1.4.4.342.266.512.634.512 1.104 0 .352-.101.656-.304.912-.197.256-.472.416-.824.48v-.128c.39.053.696.21.92.472.23.256.344.578.344.968 0 .496-.178.882-.536 1.16-.352.277-.856.416-1.512.416Zm0-.6c.454 0 .79-.086 1.008-.256.224-.171.336-.424.336-.76 0-.342-.112-.595-.336-.76-.218-.166-.554-.248-1.008-.248-.448 0-.784.082-1.008.248-.224.165-.336.418-.336.76 0 .336.112.589.336.76.224.17.56.256 1.008.256Zm0-2.632c.39 0 .686-.086.888-.256.208-.176.312-.419.312-.728 0-.304-.104-.542-.312-.712-.202-.171-.498-.256-.888-.256-.384 0-.68.085-.888.256-.208.17-.312.408-.312.712 0 .309.104.552.312.728.208.17.504.256.888.256ZM626.421 293.919c-.566 0-1.051-.118-1.456-.352a2.322 2.322 0 0 1-.92-1c-.214-.438-.32-.952-.32-1.544 0-.592.106-1.104.32-1.536.213-.432.52-.766.92-1 .405-.235.89-.352 1.456-.352.405 0 .765.061 1.08.184.314.117.589.29.824.52l-.272.6a2.575 2.575 0 0 0-.76-.48 2.221 2.221 0 0 0-.856-.152c-.624 0-1.102.192-1.432.576-.331.384-.496.93-.496 1.64 0 .709.165 1.258.496 1.648.33.384.808.576 1.432.576.325 0 .61-.048.856-.144.25-.102.504-.264.76-.488l.272.592a2.422 2.422 0 0 1-.832.528 2.95 2.95 0 0 1-1.072.184Zm4.702 0c-.64 0-1.147-.184-1.52-.552-.368-.368-.552-.875-.552-1.52 0-.427.08-.795.24-1.104.165-.315.392-.558.68-.728a1.894 1.894 0 0 1 1.008-.264c.368 0 .68.08.936.24.256.154.451.376.584.664.133.288.2.629.2 1.024v.24h-3.08v-.432h2.584l-.136.104c0-.416-.093-.739-.28-.968-.181-.23-.451-.344-.808-.344-.389 0-.691.136-.904.408-.213.266-.32.632-.32 1.096v.072c0 .49.12.861.36 1.112.245.25.584.376 1.016.376.24 0 .464-.035.672-.104.208-.07.408-.184.6-.344l.24.504a1.88 1.88 0 0 1-.68.384c-.267.09-.547.136-.84.136Zm2.589-.072v-4.024h.72v1.664h2.128v-1.664h.72v4.024h-.72v-1.784h-2.128v1.784h-.72Zm4.677 0v-.888h.888v.888h-.888Zm4.168 0v-.552l1.968-2.064c.256-.262.446-.512.568-.752.128-.24.192-.488.192-.744 0-.315-.098-.552-.296-.712-.192-.166-.474-.248-.848-.248-.288 0-.56.053-.816.16-.25.101-.49.258-.72.472l-.264-.568c.219-.214.494-.384.824-.512a2.941 2.941 0 0 1 1.056-.192c.576 0 1.022.133 1.336.4.315.261.472.637.472 1.128 0 .357-.088.698-.264 1.024-.17.32-.424.65-.76.992l-1.72 1.744v-.208h2.976v.632h-3.704Zm6.517.072c-.645 0-1.141-.248-1.488-.744-.346-.502-.52-1.219-.52-2.152 0-.95.174-1.667.52-2.152.347-.491.843-.736 1.488-.736.651 0 1.147.245 1.488.736.347.485.52 1.2.52 2.144 0 .938-.173 1.658-.52 2.16-.346.496-.842.744-1.488.744Zm0-.632c.427 0 .744-.184.952-.552.214-.368.32-.942.32-1.72 0-.779-.106-1.347-.32-1.704-.208-.363-.525-.544-.952-.544-.421 0-.738.181-.952.544-.213.357-.32.925-.32 1.704 0 .778.107 1.352.32 1.72.214.368.531.552.952.552ZM673.76 293.847v-5.64h.656l2.224 5.008h-.24l2.224-5.008h.648v5.64h-.68v-4.648h.248l-2.088 4.648h-.472l-2.088-4.648h.248v4.648h-.68Zm8.386.072c-.352 0-.661-.083-.928-.248a1.673 1.673 0 0 1-.624-.72c-.149-.315-.224-.688-.224-1.12 0-.432.075-.803.224-1.112.15-.315.358-.555.624-.72a1.72 1.72 0 0 1 .928-.248c.358 0 .667.09.928.272.267.176.443.418.528.728h-.096l.088-.928h.704l-.048.48c-.01.16-.016.317-.016.472v3.072h-.728v-.92h.088a1.272 1.272 0 0 1-.528.728 1.607 1.607 0 0 1-.92.264Zm.168-.576c.363 0 .654-.128.872-.384.219-.256.328-.632.328-1.128 0-.496-.109-.87-.328-1.12-.218-.251-.509-.376-.872-.376-.362 0-.656.125-.88.376-.218.25-.328.624-.328 1.12 0 .496.11.872.328 1.128.219.256.512.384.88.384Zm3.226 2.232v-4.8a6.87 6.87 0 0 0-.064-.952h.704l.088.928h-.088c.08-.31.251-.552.512-.728.261-.182.573-.272.936-.272.357 0 .669.082.936.248.267.165.472.405.616.72.149.309.224.68.224 1.112 0 .432-.075.805-.224 1.12a1.612 1.612 0 0 1-.616.72 1.744 1.744 0 0 1-.936.248c-.357 0-.667-.088-.928-.264a1.339 1.339 0 0 1-.52-.728h.088v2.648h-.728Zm1.92-2.232c.368 0 .661-.128.88-.384.219-.256.328-.632.328-1.128 0-.496-.109-.87-.328-1.12-.219-.251-.512-.376-.88-.376s-.661.125-.88.376c-.213.25-.32.624-.32 1.12 0 .496.107.872.32 1.128.219.256.512.384.88.384Zm2.717.504v-.888h.888v.888h-.888Zm4.168 0v-.552l1.968-2.064c.256-.262.446-.512.568-.752.128-.24.192-.488.192-.744 0-.315-.098-.552-.296-.712-.192-.166-.474-.248-.848-.248-.288 0-.56.053-.816.16-.25.101-.49.258-.72.472l-.264-.568c.219-.214.494-.384.824-.512a2.941 2.941 0 0 1 1.056-.192c.576 0 1.022.133 1.336.4.315.261.472.637.472 1.128 0 .357-.088.698-.264 1.024-.17.32-.424.65-.76.992l-1.72 1.744v-.208h2.976v.632h-3.704Zm5.109 0v-.632h1.32v-4.376h.376l-1.576.976v-.728l1.408-.88h.536v5.008h1.24v.632h-3.304ZM724.73 293.847l2.496-5.64h.648l2.536 5.64h-.768l-.696-1.6.32.192h-3.432l.352-.192-.696 1.6h-.76Zm2.808-4.808-1.248 2.96-.192-.168h2.904l-.152.168-1.28-2.96h-.032Zm3.61 4.808v-4.024h1.984c.474 0 .826.09 1.056.272.234.181.352.442.352.784a.881.881 0 0 1-.264.648c-.176.17-.406.274-.688.312v-.104c.336.01.6.109.792.296a.913.913 0 0 1 .296.704.981.981 0 0 1-.392.816c-.256.197-.616.296-1.08.296h-2.056Zm.688-.48h1.32c.272 0 .48-.056.624-.168.144-.118.216-.283.216-.496 0-.219-.072-.384-.216-.496-.144-.112-.352-.168-.624-.168h-1.32v1.328Zm0-1.808h1.232c.25 0 .445-.056.584-.168a.566.566 0 0 0 .208-.464c0-.203-.07-.358-.208-.464-.139-.107-.334-.16-.584-.16h-1.232v1.256Zm3.82 2.288v-4.024h2.856v.584h-2.128v3.44h-.728Zm2.309 0v-.888h.888v.888h-.888Zm4.168 0v-.552l1.968-2.064c.256-.262.446-.512.568-.752.128-.24.192-.488.192-.744 0-.315-.098-.552-.296-.712-.192-.166-.474-.248-.848-.248-.288 0-.56.053-.816.16-.25.101-.49.258-.72.472l-.264-.568c.219-.214.494-.384.824-.512a2.941 2.941 0 0 1 1.056-.192c.576 0 1.022.133 1.336.4.315.261.472.637.472 1.128 0 .357-.088.698-.264 1.024-.17.32-.424.65-.76.992l-1.72 1.744v-.208h2.976v.632h-3.704Zm5.109 0v-.632h1.32v-4.376h.376l-1.576.976v-.728l1.408-.88h.536v5.008h1.24v.632h-3.304ZM771.62 293.847v-5.64h.688v4.688h-.184l3.536-4.688h.576v5.64h-.696v-4.688h.184l-3.544 4.688h-.56Zm9.329.072c-.55 0-.995-.163-1.336-.488-.336-.331-.528-.787-.576-1.368h-.784v1.784h-.712v-4.024h.712v1.664h.792c.069-.544.272-.968.608-1.272.336-.31.768-.464 1.296-.464.394 0 .736.082 1.024.248.293.165.52.405.68.72.16.309.24.68.24 1.112 0 .432-.08.805-.24 1.12-.16.309-.387.549-.68.72-.288.165-.63.248-1.024.248Zm0-.576c.368 0 .661-.126.88-.376.218-.256.328-.635.328-1.136 0-.496-.11-.87-.328-1.12-.219-.256-.512-.384-.88-.384s-.662.128-.88.384c-.219.25-.328.624-.328 1.12 0 .501.109.88.328 1.136.218.25.512.376.88.376Zm2.974.504v-4.024h.72v1.664h2.128v-1.664h.72v4.024h-.72v-1.784h-2.128v1.784h-.72Zm4.677 0v-.888h.888v.888h-.888Zm4.169 0v-.552l1.968-2.064c.256-.262.445-.512.568-.752.128-.24.192-.488.192-.744 0-.315-.099-.552-.296-.712-.192-.166-.475-.248-.848-.248-.288 0-.56.053-.816.16a2.335 2.335 0 0 0-.72.472l-.264-.568c.218-.214.493-.384.824-.512a2.941 2.941 0 0 1 1.056-.192c.576 0 1.021.133 1.336.4.314.261.472.637.472 1.128 0 .357-.088.698-.264 1.024-.171.32-.424.65-.76.992l-1.72 1.744v-.208h2.976v.632h-3.704Zm4.796 0v-.552l1.968-2.064c.256-.262.446-.512.568-.752.128-.24.192-.488.192-.744 0-.315-.098-.552-.296-.712-.192-.166-.474-.248-.848-.248-.288 0-.56.053-.816.16-.25.101-.49.258-.72.472l-.264-.568c.219-.214.494-.384.824-.512a2.941 2.941 0 0 1 1.056-.192c.576 0 1.022.133 1.336.4.315.261.472.637.472 1.128 0 .357-.088.698-.264 1.024-.17.32-.424.65-.76.992l-1.72 1.744v-.208h2.976v.632h-3.704Z" fill="#1F2E4D"/><path d="M17.868 7.633h793.325" stroke="#D9D9D9" stroke-width=".5" stroke-linecap="round"/><ellipse cx="40.965" cy="209.5" rx="3.824" ry="3.45" fill="#6A8CF9"/><ellipse cx="89.914" cy="121.011" rx="3.824" ry="3.45" fill="#DF6449"/><ellipse cx="140.169" cy="75.19" rx="3.824" ry="3.45" fill="#DF6449"/><ellipse cx="189.172" cy="75.19" rx="3.824" ry="3.45" fill="#DF6449"/><ellipse cx="239.426" cy="98.1" rx="3.824" ry="3.45" fill="#DF6449"/><ellipse cx="289.502" cy="53.893" rx="3.824" ry="3.45" fill="#DF6449"/><ellipse cx="339.037" cy="75.19" rx="3.824" ry="3.45" fill="#DF6449"/><ellipse cx="388.573" cy="53.893" rx="3.824" ry="3.45" fill="#DF6449"/><ellipse cx="488.473" cy="53.893" rx="3.824" ry="3.45" fill="#DF6449"/><path d="M687.047 7.633a.25.25 0 0 0-.5 0h.5Zm-.5.499a.25.25 0 0 0 .5 0h-.5Zm.5.998a.25.25 0 0 0-.5 0h.5Zm-.5.998a.25.25 0 0 0 .5 0h-.5Zm.5.998a.25.25 0 0 0-.5 0h.5Zm-.5.998a.25.25 0 0 0 .5 0h-.5Zm.5.998a.25.25 0 0 0-.5 0h.5Zm-.5.999a.25.25 0 0 0 .5 0h-.5Zm.5.998a.25.25 0 0 0-.5 0h.5Zm-.5.998a.25.25 0 0 0 .5 0h-.5Zm.5.998a.25.25 0 0 0-.5 0h.5Zm-.5.998a.25.25 0 0 0 .5 0h-.5Zm.5.998a.25.25 0 0 0-.5 0h.5Zm-.5.998a.25.25 0 0 0 .5 0h-.5Zm.5.998a.25.25 0 0 0-.5 0h.5Zm-.5.999a.25.25 0 0 0 .5 0h-.5Zm.5.998a.25.25 0 0 0-.5 0h.5Zm-.5.998a.25.25 0 0 0 .5 0h-.5Zm.5.998a.25.25 0 0 0-.5 0h.5Zm-.5.998a.25.25 0 0 0 .5 0h-.5Zm.5.998a.25.25 0 0 0-.5 0h.5Zm-.5.998a.25.25 0 0 0 .5 0h-.5Zm.5.998a.25.25 0 0 0-.5 0h.5Zm-.5.999a.25.25 0 0 0 .5 0h-.5Zm.5.998a.25.25 0 0 0-.5 0h.5Zm-.5.998a.25.25 0 0 0 .5 0h-.5Zm.5.998a.25.25 0 0 0-.5 0h.5Zm-.5.998a.25.25 0 0 0 .5 0h-.5Zm.5.998a.25.25 0 0 0-.5 0h.5Zm-.5.998a.25.25 0 0 0 .5 0h-.5Zm.5.998a.25.25 0 0 0-.5 0h.5Zm-.5.998a.25.25 0 0 0 .5 0h-.5Zm.5.999a.25.25 0 0 0-.5 0h.5Zm-.5.998a.25.25 0 0 0 .5 0h-.5Zm.5.998a.25.25 0 0 0-.5 0h.5Zm-.5.998a.25.25 0 0 0 .5 0h-.5Zm.5.998a.25.25 0 0 0-.5 0h.5Zm-.5.998a.25.25 0 0 0 .5 0h-.5Zm.5.998a.25.25 0 0 0-.5 0h.5Zm-.5.998a.25.25 0 0 0 .5 0h-.5Zm.5.999a.25.25 0 0 0-.5 0h.5Zm-.5.998a.25.25 0 0 0 .5 0h-.5Zm.5.998a.25.25 0 0 0-.5 0h.5Zm-.5.998a.25.25 0 0 0 .5 0h-.5Zm.5.998a.25.25 0 0 0-.5 0h.5Zm-.5.998a.25.25 0 0 0 .5 0h-.5Zm.5.998a.25.25 0 0 0-.5 0h.5Zm-.5.998a.25.25 0 0 0 .5 0h-.5Zm.5.999a.25.25 0 0 0-.5 0h.5Zm-.5.998a.25.25 0 0 0 .5 0h-.5Zm.5.998a.25.25 0 0 0-.5 0h.5Zm-.5.998a.25.25 0 0 0 .5 0h-.5Zm.5.998a.25.25 0 0 0-.5 0h.5Zm-.5.998a.25.25 0 0 0 .5 0h-.5Zm.5.998a.25.25 0 0 0-.5 0h.5Zm-.5.999a.25.25 0 0 0 .5 0h-.5Zm.5.998a.25.25 0 0 0-.5 0h.5Zm-.5.998a.25.25 0 0 0 .5 0h-.5Zm.5.998a.25.25 0 0 0-.5 0h.5Zm-.5.998a.25.25 0 0 0 .5 0h-.5Zm.5.998a.25.25 0 0 0-.5 0h.5Zm-.5.998a.25.25 0 0 0 .5 0h-.5Zm.5.998a.25.25 0 0 0-.5 0h.5Zm-.5.999a.25.25 0 0 0 .5 0h-.5Zm.5.998a.25.25 0 0 0-.5 0h.5Zm-.5.998a.25.25 0 0 0 .5 0h-.5Zm.5.998a.25.25 0 0 0-.5 0h.5Zm-.5.998a.25.25 0 0 0 .5 0h-.5Zm.5.998a.25.25 0 0 0-.5 0h.5Zm-.5.998a.25.25 0 0 0 .5 0h-.5Zm.5.998a.25.25 0 0 0-.5 0h.5Zm-.5.998a.25.25 0 0 0 .5 0h-.5Zm.5.999a.25.25 0 0 0-.5 0h.5Zm-.5.998a.25.25 0 0 0 .5 0h-.5Zm.5.998a.25.25 0 0 0-.5 0h.5Zm-.5.998a.25.25 0 0 0 .5 0h-.5Zm.5.998a.25.25 0 0 0-.5 0h.5Zm-.5.998a.25.25 0 0 0 .5 0h-.5Zm.5.998a.25.25 0 0 0-.5 0h.5Zm-.5.998a.25.25 0 0 0 .5 0h-.5Zm.5.999a.25.25 0 0 0-.5 0h.5Zm-.5.998a.25.25 0 0 0 .5 0h-.5Zm.5.998a.25.25 0 0 0-.5 0h.5Zm-.5.998a.25.25 0 0 0 .5 0h-.5Zm.5.998a.25.25 0 0 0-.5 0h.5Zm-.5.998a.25.25 0 0 0 .5 0h-.5Zm.5.998a.25.25 0 0 0-.5 0h.5Zm-.5.998a.25.25 0 0 0 .5 0h-.5Zm.5.999a.25.25 0 0 0-.5 0h.5Zm-.5.998a.25.25 0 0 0 .5 0h-.5Zm.5.998a.25.25 0 0 0-.5 0h.5Zm-.5.998a.25.25 0 0 0 .5 0h-.5Zm.5.998a.25.25 0 0 0-.5 0h.5Zm-.5.998a.25.25 0 0 0 .5 0h-.5Zm.5.998a.25.25 0 0 0-.5 0h.5Zm-.5.998a.25.25 0 0 0 .5 0h-.5Zm.5.999a.25.25 0 1 0-.5 0h.5Zm-.5.998a.25.25 0 0 0 .5 0h-.5Zm.5.998a.25.25 0 0 0-.5 0h.5Zm-.5.998a.25.25 0 0 0 .5 0h-.5Zm.5.998a.25.25 0 0 0-.5 0h.5Zm-.5.998a.25.25 0 0 0 .5 0h-.5Zm.5.998a.25.25 0 0 0-.5 0h.5Zm-.5.998a.25.25 0 0 0 .5 0h-.5Zm.5.999a.25.25 0 1 0-.5 0h.5Zm-.5.998a.25.25 0 0 0 .5 0h-.5Zm.5.998a.25.25 0 0 0-.5 0h.5Zm-.5.998a.25.25 0 0 0 .5 0h-.5Zm.5.998a.25.25 0 0 0-.5 0h.5Zm-.5.998a.25.25 0 0 0 .5 0h-.5Zm.5.998a.25.25 0 0 0-.5 0h.5Zm-.5.998a.25.25 0 0 0 .5 0h-.5Zm.5.998a.25.25 0 0 0-.5 0h.5Zm-.5.999a.25.25 0 0 0 .5 0h-.5Zm.5.998a.25.25 0 0 0-.5 0h.5Zm-.5.998a.25.25 0 0 0 .5 0h-.5Zm.5.998a.25.25 0 0 0-.5 0h.5Zm-.5.998a.25.25 0 0 0 .5 0h-.5Zm.5.998a.25.25 0 0 0-.5 0h.5Zm-.5.998a.25.25 0 0 0 .5 0h-.5Zm.5.998a.25.25 0 0 0-.5 0h.5Zm-.5.999a.25.25 0 0 0 .5 0h-.5Zm.5.998a.25.25 0 0 0-.5 0h.5Zm-.5.998a.25.25 0 0 0 .5 0h-.5Zm.5.998a.25.25 0 0 0-.5 0h.5Zm-.5.998a.25.25 0 0 0 .5 0h-.5Zm.5.998a.25.25 0 0 0-.5 0h.5Zm-.5.998a.25.25 0 0 0 .5 0h-.5Zm.5.998a.25.25 0 0 0-.5 0h.5Zm-.5.999a.25.25 0 0 0 .5 0h-.5Zm.5.998a.25.25 0 0 0-.5 0h.5Zm-.5.998a.25.25 0 0 0 .5 0h-.5Zm.5.998a.25.25 0 0 0-.5 0h.5Zm-.5.998a.25.25 0 0 0 .5 0h-.5Zm.5.998a.25.25 0 0 0-.5 0h.5Zm-.5.998a.25.25 0 0 0 .5 0h-.5Zm.5.998a.25.25 0 0 0-.5 0h.5Zm-.5.999a.25.25 0 0 0 .5 0h-.5Zm.5.998a.25.25 0 0 0-.5 0h.5Zm-.5.998a.25.25 0 0 0 .5 0h-.5Zm.5.998a.25.25 0 0 0-.5 0h.5Zm-.5.998a.25.25 0 0 0 .5 0h-.5Zm.5.998a.25.25 0 0 0-.5 0h.5Zm-.5.998a.25.25 0 0 0 .5 0h-.5Zm.5.998a.25.25 0 0 0-.5 0h.5Zm-.5.999a.25.25 0 0 0 .5 0h-.5Zm.5.998a.25.25 0 0 0-.5 0h.5Zm-.5.998a.25.25 0 0 0 .5 0h-.5Zm.5.998a.25.25 0 0 0-.5 0h.5Zm-.5.998a.25.25 0 0 0 .5 0h-.5Zm.5.998a.25.25 0 0 0-.5 0h.5Zm-.5.998a.25.25 0 0 0 .5 0h-.5Zm.5.998a.25.25 0 0 0-.5 0h.5Zm-.5.999a.25.25 0 0 0 .5 0h-.5Zm.5.998a.25.25 0 0 0-.5 0h.5Zm-.5.998a.25.25 0 0 0 .5 0h-.5Zm.5.998a.25.25 0 0 0-.5 0h.5Zm-.5.998a.25.25 0 0 0 .5 0h-.5Zm.5.998a.25.25 0 0 0-.5 0h.5Zm-.5.998a.25.25 0 0 0 .5 0h-.5Zm.5.998a.25.25 0 0 0-.5 0h.5Zm-.5.999a.25.25 0 0 0 .5 0h-.5Zm.5.998a.25.25 0 0 0-.5 0h.5Zm-.5.998a.25.25 0 0 0 .5 0h-.5Zm.5.998a.25.25 0 0 0-.5 0h.5Zm-.5.998a.25.25 0 0 0 .5 0h-.5Zm.5.998a.25.25 0 0 0-.5 0h.5Zm-.5.998a.25.25 0 0 0 .5 0h-.5Zm.5.998a.25.25 0 0 0-.5 0h.5Zm-.5.999a.25.25 0 0 0 .5 0h-.5Zm.5.998a.25.25 0 0 0-.5 0h.5Zm-.5.998a.25.25 0 0 0 .5 0h-.5Zm.5.998a.25.25 0 0 0-.5 0h.5Zm-.5.998a.25.25 0 0 0 .5 0h-.5Zm.5.998a.25.25 0 0 0-.5 0h.5Zm-.5.998a.25.25 0 0 0 .5 0h-.5Zm.5.998a.25.25 0 0 0-.5 0h.5Zm-.5.999a.25.25 0 0 0 .5 0h-.5Zm.5.998a.25.25 0 0 0-.5 0h.5Zm-.5.998a.25.25 0 0 0 .5 0h-.5Zm.5.998a.25.25 0 0 0-.5 0h.5Zm-.5.998a.25.25 0 0 0 .5 0h-.5Zm.5.998a.25.25 0 0 0-.5 0h.5Zm-.5.998a.25.25 0 0 0 .5 0h-.5Zm.5.998a.25.25 0 0 0-.5 0h.5Zm-.5.998a.25.25 0 1 0 .5 0h-.5Zm.5.999a.25.25 0 0 0-.5 0h.5Zm-.5.998a.25.25 0 0 0 .5 0h-.5Zm.5.998a.25.25 0 0 0-.5 0h.5Zm-.5.998a.25.25 0 0 0 .5 0h-.5Zm.5.998a.25.25 0 0 0-.5 0h.5Zm-.5.998a.25.25 0 0 0 .5 0h-.5Zm.5.998a.25.25 0 0 0-.5 0h.5Zm-.5.998a.25.25 0 1 0 .5 0h-.5Zm.5.999a.25.25 0 0 0-.5 0h.5Zm-.5.998a.25.25 0 0 0 .5 0h-.5Zm.5.998a.25.25 0 0 0-.5 0h.5Zm-.5.998a.25.25 0 0 0 .5 0h-.5Zm.5.998a.25.25 0 0 0-.5 0h.5Zm-.5.998a.25.25 0 0 0 .5 0h-.5Zm.5.998a.25.25 0 0 0-.5 0h.5Zm-.5.998a.25.25 0 1 0 .5 0h-.5Zm.5.999a.25.25 0 0 0-.5 0h.5Zm-.5.998a.25.25 0 0 0 .5 0h-.5Zm.5.998a.25.25 0 0 0-.5 0h.5Zm-.5.998a.25.25 0 0 0 .5 0h-.5Zm.5.998a.25.25 0 0 0-.5 0h.5Zm-.5.998a.25.25 0 0 0 .5 0h-.5Zm.5.998a.25.25 0 0 0-.5 0h.5Zm-.5.998a.25.25 0 1 0 .5 0h-.5Zm.5.999a.25.25 0 0 0-.5 0h.5Zm-.5.998a.25.25 0 0 0 .5 0h-.5Zm.5.998a.25.25 0 0 0-.5 0h.5Zm-.5.998a.25.25 0 0 0 .5 0h-.5Zm.5.998a.25.25 0 0 0-.5 0h.5Zm-.5.998a.25.25 0 0 0 .5 0h-.5Zm.5.998a.25.25 0 0 0-.5 0h.5Zm-.5.998a.25.25 0 1 0 .5 0h-.5Zm.5.999a.25.25 0 1 0-.5 0h.5Zm-.5.998a.25.25 0 0 0 .5 0h-.5Zm.5.998a.25.25 0 0 0-.5 0h.5Zm-.5.998a.25.25 0 0 0 .5 0h-.5Zm.5.998a.25.25 0 0 0-.5 0h.5Zm-.5.998a.25.25 0 0 0 .5 0h-.5Zm.5.998a.25.25 0 0 0-.5 0h.5Zm-.5.998a.25.25 0 0 0 .5 0h-.5Zm.5.999a.25.25 0 1 0-.5 0h.5Zm-.5.998a.25.25 0 0 0 .5 0h-.5Zm.5.998a.25.25 0 0 0-.5 0h.5Zm-.5.998a.25.25 0 0 0 .5 0h-.5Zm.5.998a.25.25 0 0 0-.5 0h.5Zm-.5.998a.25.25 0 0 0 .5 0h-.5Zm.5.998a.25.25 0 0 0-.5 0h.5Zm-.5.998a.25.25 0 0 0 .5 0h-.5Zm.5.999a.25.25 0 1 0-.5 0h.5Zm-.5.998a.25.25 0 0 0 .5 0h-.5Zm.5.998a.25.25 0 0 0-.5 0h.5Zm-.5.998a.25.25 0 0 0 .5 0h-.5Zm.5.998a.25.25 0 0 0-.5 0h.5Zm-.5.998a.25.25 0 0 0 .5 0h-.5Zm.5.998a.25.25 0 0 0-.5 0h.5Zm-.5.998a.25.25 0 0 0 .5 0h-.5Zm.5.999a.25.25 0 1 0-.5 0h.5Zm-.5.998a.25.25 0 0 0 .5 0h-.5Zm.5.998a.25.25 0 0 0-.5 0h.5Zm-.5.998a.25.25 0 0 0 .5 0h-.5Zm.5.998a.25.25 0 0 0-.5 0h.5Zm-.5.998a.25.25 0 0 0 .5 0h-.5Zm.5.998a.25.25 0 0 0-.5 0h.5Zm-.5.998a.25.25 0 0 0 .5 0h-.5Zm.5.998a.25.25 0 0 0-.5 0h.5Zm-.5.999a.25.25 0 0 0 .5 0h-.5Zm.5.998a.25.25 0 0 0-.5 0h.5Zm-.5.998a.25.25 0 0 0 .5 0h-.5Zm.5.998a.25.25 0 0 0-.5 0h.5Zm-.5.998a.25.25 0 0 0 .5 0h-.5Zm.5.998a.25.25 0 0 0-.5 0h.5Zm-.5.998a.25.25 0 0 0 .5 0h-.5Zm.5.998a.25.25 0 0 0-.5 0h.5Zm-.5.999a.25.25 0 0 0 .5 0h-.5Zm.5.998a.25.25 0 0 0-.5 0h.5Zm-.5.998a.25.25 0 0 0 .5 0h-.5Zm.5.998a.25.25 0 0 0-.5 0h.5Zm-.5.998a.25.25 0 0 0 .5 0h-.5Zm.5.998a.25.25 0 0 0-.5 0h.5Zm-.5.998a.25.25 0 0 0 .5 0h-.5Zm.5.998a.25.25 0 0 0-.5 0h.5Zm-.5.998a.25.25 0 0 0 .5 0h-.5Zm.5.999a.25.25 0 1 0-.5 0h.5Zm-.5.998a.25.25 0 0 0 .5 0h-.5Zm.5.998a.25.25 0 0 0-.5 0h.5Zm-.5-268.994v.499h.5v-.5h-.5Zm0 1.497v.998h.5V9.13h-.5Zm0 1.996v.998h.5v-.998h-.5Zm0 1.997v.998h.5v-.998h-.5Zm0 1.996v.998h.5v-.998h-.5Zm0 1.996v.998h.5v-.998h-.5Zm0 1.996v.998h.5v-.998h-.5Zm0 1.997v.998h.5v-.998h-.5Zm0 1.996v.998h.5v-.998h-.5Zm0 1.996v.998h.5V25.1h-.5Zm0 1.996v.998h.5v-.998h-.5Zm0 1.996v.999h.5v-.999h-.5Zm0 1.997v.998h.5v-.998h-.5Zm0 1.996v.998h.5v-.998h-.5Zm0 1.996v.998h.5v-.998h-.5Zm0 1.996v.998h.5v-.998h-.5Zm0 1.997v.998h.5v-.998h-.5Zm0 1.996v.998h.5v-.998h-.5Zm0 1.996v.998h.5v-.998h-.5Zm0 1.996v.998h.5v-.998h-.5Zm0 1.997v.998h.5v-.998h-.5Zm0 1.996v.998h.5v-.998h-.5Zm0 1.996v.998h.5v-.998h-.5Zm0 1.996v.998h.5v-.998h-.5Zm0 1.997v.998h.5v-.998h-.5Zm0 1.996v.998h.5v-.998h-.5Zm0 1.996v.998h.5v-.998h-.5Zm0 1.996v.999h.5v-.999h-.5Zm0 1.997v.998h.5v-.998h-.5Zm0 1.996v.998h.5v-.998h-.5Zm0 1.996v.998h.5v-.998h-.5Zm0 1.996v.999h.5v-.999h-.5Zm0 1.997v.998h.5v-.998h-.5Zm0 1.996v.998h.5v-.998h-.5Zm0 1.996v.998h.5v-.998h-.5Zm0 1.996V78h.5v-.998h-.5Zm0 1.997v.998h.5v-.998h-.5Zm0 1.996v.998h.5v-.998h-.5Zm0 1.996v.998h.5v-.998h-.5Zm0 1.996v.998h.5v-.998h-.5Zm0 1.997v.998h.5v-.998h-.5Zm0 1.996v.998h.5v-.998h-.5Zm0 1.996v.998h.5v-.998h-.5Zm0 1.996v.998h.5v-.998h-.5Zm0 1.997v.998h.5v-.998h-.5Zm0 1.996v.998h.5v-.998h-.5Zm0 1.996v.998h.5v-.998h-.5Zm0 1.996v.998h.5v-.998h-.5Zm0 1.997v.998h.5v-.998h-.5Zm0 1.996v.998h.5v-.998h-.5Zm0 1.996v.998h.5v-.998h-.5Zm0 1.996v.998h.5v-.998h-.5Zm0 1.997v.998h.5v-.998h-.5Zm0 1.996v.998h.5v-.998h-.5Zm0 1.996v.998h.5v-.998h-.5Zm0 1.996v.998h.5v-.998h-.5Zm0 1.996v.999h.5v-.999h-.5Zm0 1.997v.998h.5v-.998h-.5Zm0 1.996v.998h.5v-.998h-.5Zm0 1.996v.998h.5v-.998h-.5Zm0 1.996v.999h.5v-.999h-.5Zm0 1.997v.998h.5v-.998h-.5Zm0 1.996v.998h.5v-.998h-.5Zm0 1.996v.998h.5v-.998h-.5Zm0 1.996v.999h.5v-.999h-.5Zm0 1.997v.998h.5v-.998h-.5Zm0 1.996v.998h.5v-.998h-.5Zm0 1.996v.998h.5v-.998h-.5Zm0 1.996v.999h.5v-.999h-.5Zm0 1.997v.998h.5v-.998h-.5Zm0 1.996v.998h.5v-.998h-.5Zm0 1.996v.998h.5v-.998h-.5Zm0 1.996v.999h.5v-.999h-.5Zm0 1.997v.998h.5v-.998h-.5Zm0 1.996v.998h.5v-.998h-.5Zm0 1.996v.998h.5v-.998h-.5Zm0 1.996v.999h.5v-.999h-.5Zm0 1.997v.998h.5v-.998h-.5Zm0 1.996v.998h.5v-.998h-.5Zm0 1.996v.998h.5v-.998h-.5Zm0 1.996v.999h.5v-.999h-.5Zm0 1.997v.998h.5v-.998h-.5Zm0 1.996v.998h.5v-.998h-.5Zm0 1.996v.998h.5v-.998h-.5Zm0 1.996v.999h.5v-.999h-.5Zm0 1.997v.998h.5v-.998h-.5Zm0 1.996v.998h.5v-.998h-.5Zm0 1.996v.998h.5v-.998h-.5Zm0 1.996v.999h.5v-.999h-.5Zm0 1.997v.998h.5v-.998h-.5Zm0 1.996v.998h.5v-.998h-.5Zm0 1.996v.998h.5v-.998h-.5Zm0 1.996v.998h.5v-.998h-.5Zm0 1.997v.998h.5v-.998h-.5Zm0 1.996v.998h.5v-.998h-.5Zm0 1.996v.998h.5v-.998h-.5Zm0 1.996v.998h.5v-.998h-.5Zm0 1.997v.998h.5v-.998h-.5Zm0 1.996v.998h.5v-.998h-.5Zm0 1.996v.998h.5v-.998h-.5Zm0 1.996v.998h.5v-.998h-.5Zm0 1.997v.998h.5v-.998h-.5Zm0 1.996v.998h.5v-.998h-.5Zm0 1.996v.998h.5v-.998h-.5Zm0 1.996v.998h.5v-.998h-.5Zm0 1.997v.998h.5v-.998h-.5Zm0 1.996v.998h.5v-.998h-.5Zm0 1.996v.998h.5v-.998h-.5Zm0 1.996v.998h.5v-.998h-.5Zm0 1.997v.998h.5v-.998h-.5Zm0 1.996v.998h.5v-.998h-.5Zm0 1.996v.998h.5v-.998h-.5Zm0 1.996v.998h.5v-.998h-.5Zm0 1.997v.998h.5v-.998h-.5Zm0 1.996v.998h.5v-.998h-.5Zm0 1.996v.998h.5v-.998h-.5Zm0 1.996v.998h.5v-.998h-.5Zm0 1.997v.998h.5v-.998h-.5Zm0 1.996v.998h.5v-.998h-.5Zm0 1.996v.998h.5v-.998h-.5Zm0 1.996v.998h.5v-.998h-.5Zm0 1.997v.998h.5v-.998h-.5Zm0 1.996v.998h.5v-.998h-.5Zm0 1.996v.998h.5v-.998h-.5Zm0 1.996v.998h.5v-.998h-.5Zm0 1.996v.999h.5v-.999h-.5Zm0 1.997v.998h.5v-.998h-.5Zm0 1.996v.998h.5v-.998h-.5Zm0 1.996v.998h.5v-.998h-.5Zm0 1.996v.999h.5v-.999h-.5Zm0 1.997v.998h.5v-.998h-.5Zm0 1.996v.998h.5v-.998h-.5Zm0 1.996v.998h.5v-.998h-.5Zm0 1.996v.998h.5v-.998h-.5Zm0 1.997v.998h.5v-.998h-.5Zm0 1.996v.499h.5v-.499h-.5ZM638.365 7.633a.25.25 0 0 0-.5 0h.5Zm-.5.499a.25.25 0 0 0 .5 0h-.5Zm.5.998a.25.25 0 0 0-.5 0h.5Zm-.5.998a.25.25 0 0 0 .5 0h-.5Zm.5.998a.25.25 0 0 0-.5 0h.5Zm-.5.998a.25.25 0 0 0 .5 0h-.5Zm.5.998a.25.25 0 0 0-.5 0h.5Zm-.5.999a.25.25 0 0 0 .5 0h-.5Zm.5.998a.25.25 0 0 0-.5 0h.5Zm-.5.998a.25.25 0 0 0 .5 0h-.5Zm.5.998a.25.25 0 0 0-.5 0h.5Zm-.5.998a.25.25 0 0 0 .5 0h-.5Zm.5.998a.25.25 0 0 0-.5 0h.5Zm-.5.998a.25.25 0 0 0 .5 0h-.5Zm.5.998a.25.25 0 0 0-.5 0h.5Zm-.5.999a.25.25 0 0 0 .5 0h-.5Zm.5.998a.25.25 0 0 0-.5 0h.5Zm-.5.998a.25.25 0 0 0 .5 0h-.5Zm.5.998a.25.25 0 0 0-.5 0h.5Zm-.5.998a.25.25 0 0 0 .5 0h-.5Zm.5.998a.25.25 0 0 0-.5 0h.5Zm-.5.998a.25.25 0 0 0 .5 0h-.5Zm.5.998a.25.25 0 0 0-.5 0h.5Zm-.5.999a.25.25 0 0 0 .5 0h-.5Zm.5.998a.25.25 0 0 0-.5 0h.5Zm-.5.998a.25.25 0 0 0 .5 0h-.5Zm.5.998a.25.25 0 0 0-.5 0h.5Zm-.5.998a.25.25 0 0 0 .5 0h-.5Zm.5.998a.25.25 0 0 0-.5 0h.5Zm-.5.998a.25.25 0 0 0 .5 0h-.5Zm.5.998a.25.25 0 0 0-.5 0h.5Zm-.5.998a.25.25 0 0 0 .5 0h-.5Zm.5.999a.25.25 0 0 0-.5 0h.5Zm-.5.998a.25.25 0 0 0 .5 0h-.5Zm.5.998a.25.25 0 0 0-.5 0h.5Zm-.5.998a.25.25 0 0 0 .5 0h-.5Zm.5.998a.25.25 0 0 0-.5 0h.5Zm-.5.998a.25.25 0 0 0 .5 0h-.5Zm.5.998a.25.25 0 0 0-.5 0h.5Zm-.5.998a.25.25 0 0 0 .5 0h-.5Zm.5.999a.25.25 0 0 0-.5 0h.5Zm-.5.998a.25.25 0 0 0 .5 0h-.5Zm.5.998a.25.25 0 0 0-.5 0h.5Zm-.5.998a.25.25 0 0 0 .5 0h-.5Zm.5.998a.25.25 0 0 0-.5 0h.5Zm-.5.998a.25.25 0 0 0 .5 0h-.5Zm.5.998a.25.25 0 0 0-.5 0h.5Zm-.5.998a.25.25 0 0 0 .5 0h-.5Zm.5.999a.25.25 0 0 0-.5 0h.5Zm-.5.998a.25.25 0 0 0 .5 0h-.5Zm.5.998a.25.25 0 0 0-.5 0h.5Zm-.5.998a.25.25 0 0 0 .5 0h-.5Zm.5.998a.25.25 0 0 0-.5 0h.5Zm-.5.998a.25.25 0 0 0 .5 0h-.5Zm.5.998a.25.25 0 0 0-.5 0h.5Zm-.5.999a.25.25 0 0 0 .5 0h-.5Zm.5.998a.25.25 0 0 0-.5 0h.5Zm-.5.998a.25.25 0 0 0 .5 0h-.5Zm.5.998a.25.25 0 0 0-.5 0h.5Zm-.5.998a.25.25 0 0 0 .5 0h-.5Zm.5.998a.25.25 0 0 0-.5 0h.5Zm-.5.998a.25.25 0 0 0 .5 0h-.5Zm.5.998a.25.25 0 0 0-.5 0h.5Zm-.5.999a.25.25 0 0 0 .5 0h-.5Zm.5.998a.25.25 0 0 0-.5 0h.5Zm-.5.998a.25.25 0 0 0 .5 0h-.5Zm.5.998a.25.25 0 0 0-.5 0h.5Zm-.5.998a.25.25 0 0 0 .5 0h-.5Zm.5.998a.25.25 0 0 0-.5 0h.5Zm-.5.998a.25.25 0 0 0 .5 0h-.5Zm.5.998a.25.25 0 0 0-.5 0h.5Zm-.5.998a.25.25 0 0 0 .5 0h-.5Zm.5.999a.25.25 0 0 0-.5 0h.5Zm-.5.998a.25.25 0 0 0 .5 0h-.5Zm.5.998a.25.25 0 0 0-.5 0h.5Zm-.5.998a.25.25 0 0 0 .5 0h-.5Zm.5.998a.25.25 0 0 0-.5 0h.5Zm-.5.998a.25.25 0 0 0 .5 0h-.5Zm.5.998a.25.25 0 0 0-.5 0h.5Zm-.5.998a.25.25 0 0 0 .5 0h-.5Zm.5.999a.25.25 0 0 0-.5 0h.5Zm-.5.998a.25.25 0 0 0 .5 0h-.5Zm.5.998a.25.25 0 0 0-.5 0h.5Zm-.5.998a.25.25 0 0 0 .5 0h-.5Zm.5.998a.25.25 0 0 0-.5 0h.5Zm-.5.998a.25.25 0 0 0 .5 0h-.5Zm.5.998a.25.25 0 0 0-.5 0h.5Zm-.5.998a.25.25 0 0 0 .5 0h-.5Zm.5.999a.25.25 0 0 0-.5 0h.5Zm-.5.998a.25.25 0 0 0 .5 0h-.5Zm.5.998a.25.25 0 0 0-.5 0h.5Zm-.5.998a.25.25 0 0 0 .5 0h-.5Zm.5.998a.25.25 0 0 0-.5 0h.5Zm-.5.998a.25.25 0 0 0 .5 0h-.5Zm.5.998a.25.25 0 0 0-.5 0h.5Zm-.5.998a.25.25 0 0 0 .5 0h-.5Zm.5.999a.25.25 0 1 0-.5 0h.5Zm-.5.998a.25.25 0 0 0 .5 0h-.5Zm.5.998a.25.25 0 0 0-.5 0h.5Zm-.5.998a.25.25 0 0 0 .5 0h-.5Zm.5.998a.25.25 0 0 0-.5 0h.5Zm-.5.998a.25.25 0 0 0 .5 0h-.5Zm.5.998a.25.25 0 0 0-.5 0h.5Zm-.5.998a.25.25 0 0 0 .5 0h-.5Zm.5.999a.25.25 0 1 0-.5 0h.5Zm-.5.998a.25.25 0 0 0 .5 0h-.5Zm.5.998a.25.25 0 0 0-.5 0h.5Zm-.5.998a.25.25 0 0 0 .5 0h-.5Zm.5.998a.25.25 0 0 0-.5 0h.5Zm-.5.998a.25.25 0 0 0 .5 0h-.5Zm.5.998a.25.25 0 0 0-.5 0h.5Zm-.5.998a.25.25 0 0 0 .5 0h-.5Zm.5.998a.25.25 0 0 0-.5 0h.5Zm-.5.999a.25.25 0 0 0 .5 0h-.5Zm.5.998a.25.25 0 0 0-.5 0h.5Zm-.5.998a.25.25 0 0 0 .5 0h-.5Zm.5.998a.25.25 0 0 0-.5 0h.5Zm-.5.998a.25.25 0 0 0 .5 0h-.5Zm.5.998a.25.25 0 0 0-.5 0h.5Zm-.5.998a.25.25 0 0 0 .5 0h-.5Zm.5.998a.25.25 0 0 0-.5 0h.5Zm-.5.999a.25.25 0 0 0 .5 0h-.5Zm.5.998a.25.25 0 0 0-.5 0h.5Zm-.5.998a.25.25 0 0 0 .5 0h-.5Zm.5.998a.25.25 0 0 0-.5 0h.5Zm-.5.998a.25.25 0 0 0 .5 0h-.5Zm.5.998a.25.25 0 0 0-.5 0h.5Zm-.5.998a.25.25 0 0 0 .5 0h-.5Zm.5.998a.25.25 0 0 0-.5 0h.5Zm-.5.999a.25.25 0 0 0 .5 0h-.5Zm.5.998a.25.25 0 0 0-.5 0h.5Zm-.5.998a.25.25 0 0 0 .5 0h-.5Zm.5.998a.25.25 0 0 0-.5 0h.5Zm-.5.998a.25.25 0 0 0 .5 0h-.5Zm.5.998a.25.25 0 0 0-.5 0h.5Zm-.5.998a.25.25 0 0 0 .5 0h-.5Zm.5.998a.25.25 0 0 0-.5 0h.5Zm-.5.999a.25.25 0 0 0 .5 0h-.5Zm.5.998a.25.25 0 0 0-.5 0h.5Zm-.5.998a.25.25 0 0 0 .5 0h-.5Zm.5.998a.25.25 0 0 0-.5 0h.5Zm-.5.998a.25.25 0 0 0 .5 0h-.5Zm.5.998a.25.25 0 0 0-.5 0h.5Zm-.5.998a.25.25 0 0 0 .5 0h-.5Zm.5.998a.25.25 0 0 0-.5 0h.5Zm-.5.999a.25.25 0 0 0 .5 0h-.5Zm.5.998a.25.25 0 0 0-.5 0h.5Zm-.5.998a.25.25 0 0 0 .5 0h-.5Zm.5.998a.25.25 0 0 0-.5 0h.5Zm-.5.998a.25.25 0 0 0 .5 0h-.5Zm.5.998a.25.25 0 0 0-.5 0h.5Zm-.5.998a.25.25 0 0 0 .5 0h-.5Zm.5.998a.25.25 0 0 0-.5 0h.5Zm-.5.999a.25.25 0 0 0 .5 0h-.5Zm.5.998a.25.25 0 0 0-.5 0h.5Zm-.5.998a.25.25 0 0 0 .5 0h-.5Zm.5.998a.25.25 0 0 0-.5 0h.5Zm-.5.998a.25.25 0 0 0 .5 0h-.5Zm.5.998a.25.25 0 0 0-.5 0h.5Zm-.5.998a.25.25 0 0 0 .5 0h-.5Zm.5.998a.25.25 0 0 0-.5 0h.5Zm-.5.999a.25.25 0 0 0 .5 0h-.5Zm.5.998a.25.25 0 0 0-.5 0h.5Zm-.5.998a.25.25 0 0 0 .5 0h-.5Zm.5.998a.25.25 0 0 0-.5 0h.5Zm-.5.998a.25.25 0 0 0 .5 0h-.5Zm.5.998a.25.25 0 0 0-.5 0h.5Zm-.5.998a.25.25 0 0 0 .5 0h-.5Zm.5.998a.25.25 0 0 0-.5 0h.5Zm-.5.999a.25.25 0 0 0 .5 0h-.5Zm.5.998a.25.25 0 0 0-.5 0h.5Zm-.5.998a.25.25 0 0 0 .5 0h-.5Zm.5.998a.25.25 0 0 0-.5 0h.5Zm-.5.998a.25.25 0 0 0 .5 0h-.5Zm.5.998a.25.25 0 0 0-.5 0h.5Zm-.5.998a.25.25 0 0 0 .5 0h-.5Zm.5.998a.25.25 0 0 0-.5 0h.5Zm-.5.999a.25.25 0 0 0 .5 0h-.5Zm.5.998a.25.25 0 0 0-.5 0h.5Zm-.5.998a.25.25 0 0 0 .5 0h-.5Zm.5.998a.25.25 0 0 0-.5 0h.5Zm-.5.998a.25.25 0 0 0 .5 0h-.5Zm.5.998a.25.25 0 0 0-.5 0h.5Zm-.5.998a.25.25 0 0 0 .5 0h-.5Zm.5.998a.25.25 0 0 0-.5 0h.5Zm-.5.998a.25.25 0 1 0 .5 0h-.5Zm.5.999a.25.25 0 0 0-.5 0h.5Zm-.5.998a.25.25 0 0 0 .5 0h-.5Zm.5.998a.25.25 0 0 0-.5 0h.5Zm-.5.998a.25.25 0 0 0 .5 0h-.5Zm.5.998a.25.25 0 0 0-.5 0h.5Zm-.5.998a.25.25 0 0 0 .5 0h-.5Zm.5.998a.25.25 0 0 0-.5 0h.5Zm-.5.998a.25.25 0 1 0 .5 0h-.5Zm.5.999a.25.25 0 0 0-.5 0h.5Zm-.5.998a.25.25 0 0 0 .5 0h-.5Zm.5.998a.25.25 0 0 0-.5 0h.5Zm-.5.998a.25.25 0 0 0 .5 0h-.5Zm.5.998a.25.25 0 0 0-.5 0h.5Zm-.5.998a.25.25 0 0 0 .5 0h-.5Zm.5.998a.25.25 0 0 0-.5 0h.5Zm-.5.998a.25.25 0 1 0 .5 0h-.5Zm.5.999a.25.25 0 0 0-.5 0h.5Zm-.5.998a.25.25 0 0 0 .5 0h-.5Zm.5.998a.25.25 0 0 0-.5 0h.5Zm-.5.998a.25.25 0 0 0 .5 0h-.5Zm.5.998a.25.25 0 0 0-.5 0h.5Zm-.5.998a.25.25 0 0 0 .5 0h-.5Zm.5.998a.25.25 0 0 0-.5 0h.5Zm-.5.998a.25.25 0 1 0 .5 0h-.5Zm.5.999a.25.25 0 0 0-.5 0h.5Zm-.5.998a.25.25 0 0 0 .5 0h-.5Zm.5.998a.25.25 0 0 0-.5 0h.5Zm-.5.998a.25.25 0 0 0 .5 0h-.5Zm.5.998a.25.25 0 0 0-.5 0h.5Zm-.5.998a.25.25 0 0 0 .5 0h-.5Zm.5.998a.25.25 0 0 0-.5 0h.5Zm-.5.998a.25.25 0 1 0 .5 0h-.5Zm.5.999a.25.25 0 1 0-.5 0h.5Zm-.5.998a.25.25 0 0 0 .5 0h-.5Zm.5.998a.25.25 0 0 0-.5 0h.5Zm-.5.998a.25.25 0 0 0 .5 0h-.5Zm.5.998a.25.25 0 0 0-.5 0h.5Zm-.5.998a.25.25 0 0 0 .5 0h-.5Zm.5.998a.25.25 0 0 0-.5 0h.5Zm-.5.998a.25.25 0 0 0 .5 0h-.5Zm.5.999a.25.25 0 1 0-.5 0h.5Zm-.5.998a.25.25 0 0 0 .5 0h-.5Zm.5.998a.25.25 0 0 0-.5 0h.5Zm-.5.998a.25.25 0 0 0 .5 0h-.5Zm.5.998a.25.25 0 0 0-.5 0h.5Zm-.5.998a.25.25 0 0 0 .5 0h-.5Zm.5.998a.25.25 0 0 0-.5 0h.5Zm-.5.998a.25.25 0 0 0 .5 0h-.5Zm.5.999a.25.25 0 1 0-.5 0h.5Zm-.5.998a.25.25 0 0 0 .5 0h-.5Zm.5.998a.25.25 0 0 0-.5 0h.5Zm-.5.998a.25.25 0 0 0 .5 0h-.5Zm.5.998a.25.25 0 0 0-.5 0h.5Zm-.5.998a.25.25 0 0 0 .5 0h-.5Zm.5.998a.25.25 0 0 0-.5 0h.5Zm-.5.998a.25.25 0 0 0 .5 0h-.5Zm.5.999a.25.25 0 1 0-.5 0h.5Zm-.5.998a.25.25 0 0 0 .5 0h-.5Zm.5.998a.25.25 0 0 0-.5 0h.5Zm-.5.998a.25.25 0 0 0 .5 0h-.5Zm.5.998a.25.25 0 0 0-.5 0h.5Zm-.5.998a.25.25 0 0 0 .5 0h-.5Zm.5.998a.25.25 0 0 0-.5 0h.5Zm-.5.998a.25.25 0 0 0 .5 0h-.5Zm.5.998a.25.25 0 0 0-.5 0h.5Zm-.5.999a.25.25 0 0 0 .5 0h-.5Zm.5.998a.25.25 0 0 0-.5 0h.5Zm-.5.998a.25.25 0 0 0 .5 0h-.5Zm.5.998a.25.25 0 0 0-.5 0h.5Zm-.5.998a.25.25 0 0 0 .5 0h-.5Zm.5.998a.25.25 0 0 0-.5 0h.5Zm-.5.998a.25.25 0 0 0 .5 0h-.5Zm.5.998a.25.25 0 0 0-.5 0h.5Zm-.5.999a.25.25 0 0 0 .5 0h-.5Zm.5.998a.25.25 0 0 0-.5 0h.5Zm-.5.998a.25.25 0 0 0 .5 0h-.5Zm.5.998a.25.25 0 0 0-.5 0h.5Zm-.5.998a.25.25 0 0 0 .5 0h-.5Zm.5.998a.25.25 0 0 0-.5 0h.5Zm-.5.998a.25.25 0 0 0 .5 0h-.5Zm.5.998a.25.25 0 0 0-.5 0h.5Zm-.5.998a.25.25 0 0 0 .5 0h-.5Zm.5.999a.25.25 0 1 0-.5 0h.5Zm-.5.998a.25.25 0 0 0 .5 0h-.5Zm.5.998a.25.25 0 0 0-.5 0h.5Zm-.5-268.994v.499h.5v-.5h-.5Zm0 1.497v.998h.5V9.13h-.5Zm0 1.996v.998h.5v-.998h-.5Zm0 1.997v.998h.5v-.998h-.5Zm0 1.996v.998h.5v-.998h-.5Zm0 1.996v.998h.5v-.998h-.5Zm0 1.996v.998h.5v-.998h-.5Zm0 1.997v.998h.5v-.998h-.5Zm0 1.996v.998h.5v-.998h-.5Zm0 1.996v.998h.5V25.1h-.5Zm0 1.996v.998h.5v-.998h-.5Zm0 1.996v.999h.5v-.999h-.5Zm0 1.997v.998h.5v-.998h-.5Zm0 1.996v.998h.5v-.998h-.5Zm0 1.996v.998h.5v-.998h-.5Zm0 1.996v.998h.5v-.998h-.5Zm0 1.997v.998h.5v-.998h-.5Zm0 1.996v.998h.5v-.998h-.5Zm0 1.996v.998h.5v-.998h-.5Zm0 1.996v.998h.5v-.998h-.5Zm0 1.997v.998h.5v-.998h-.5Zm0 1.996v.998h.5v-.998h-.5Zm0 1.996v.998h.5v-.998h-.5Zm0 1.996v.998h.5v-.998h-.5Zm0 1.997v.998h.5v-.998h-.5Zm0 1.996v.998h.5v-.998h-.5Zm0 1.996v.998h.5v-.998h-.5Zm0 1.996v.999h.5v-.999h-.5Zm0 1.997v.998h.5v-.998h-.5Zm0 1.996v.998h.5v-.998h-.5Zm0 1.996v.998h.5v-.998h-.5Zm0 1.996v.999h.5v-.999h-.5Zm0 1.997v.998h.5v-.998h-.5Zm0 1.996v.998h.5v-.998h-.5Zm0 1.996v.998h.5v-.998h-.5Zm0 1.996V78h.5v-.998h-.5Zm0 1.997v.998h.5v-.998h-.5Zm0 1.996v.998h.5v-.998h-.5Zm0 1.996v.998h.5v-.998h-.5Zm0 1.996v.998h.5v-.998h-.5Zm0 1.997v.998h.5v-.998h-.5Zm0 1.996v.998h.5v-.998h-.5Zm0 1.996v.998h.5v-.998h-.5Zm0 1.996v.998h.5v-.998h-.5Zm0 1.997v.998h.5v-.998h-.5Zm0 1.996v.998h.5v-.998h-.5Zm0 1.996v.998h.5v-.998h-.5Zm0 1.996v.998h.5v-.998h-.5Zm0 1.997v.998h.5v-.998h-.5Zm0 1.996v.998h.5v-.998h-.5Zm0 1.996v.998h.5v-.998h-.5Zm0 1.996v.998h.5v-.998h-.5Zm0 1.997v.998h.5v-.998h-.5Zm0 1.996v.998h.5v-.998h-.5Zm0 1.996v.998h.5v-.998h-.5Zm0 1.996v.998h.5v-.998h-.5Zm0 1.996v.999h.5v-.999h-.5Zm0 1.997v.998h.5v-.998h-.5Zm0 1.996v.998h.5v-.998h-.5Zm0 1.996v.998h.5v-.998h-.5Zm0 1.996v.999h.5v-.999h-.5Zm0 1.997v.998h.5v-.998h-.5Zm0 1.996v.998h.5v-.998h-.5Zm0 1.996v.998h.5v-.998h-.5Zm0 1.996v.999h.5v-.999h-.5Zm0 1.997v.998h.5v-.998h-.5Zm0 1.996v.998h.5v-.998h-.5Zm0 1.996v.998h.5v-.998h-.5Zm0 1.996v.999h.5v-.999h-.5Zm0 1.997v.998h.5v-.998h-.5Zm0 1.996v.998h.5v-.998h-.5Zm0 1.996v.998h.5v-.998h-.5Zm0 1.996v.999h.5v-.999h-.5Zm0 1.997v.998h.5v-.998h-.5Zm0 1.996v.998h.5v-.998h-.5Zm0 1.996v.998h.5v-.998h-.5Zm0 1.996v.999h.5v-.999h-.5Zm0 1.997v.998h.5v-.998h-.5Zm0 1.996v.998h.5v-.998h-.5Zm0 1.996v.998h.5v-.998h-.5Zm0 1.996v.999h.5v-.999h-.5Zm0 1.997v.998h.5v-.998h-.5Zm0 1.996v.998h.5v-.998h-.5Zm0 1.996v.998h.5v-.998h-.5Zm0 1.996v.999h.5v-.999h-.5Zm0 1.997v.998h.5v-.998h-.5Zm0 1.996v.998h.5v-.998h-.5Zm0 1.996v.998h.5v-.998h-.5Zm0 1.996v.999h.5v-.999h-.5Zm0 1.997v.998h.5v-.998h-.5Zm0 1.996v.998h.5v-.998h-.5Zm0 1.996v.998h.5v-.998h-.5Zm0 1.996v.998h.5v-.998h-.5Zm0 1.997v.998h.5v-.998h-.5Zm0 1.996v.998h.5v-.998h-.5Zm0 1.996v.998h.5v-.998h-.5Zm0 1.996v.998h.5v-.998h-.5Zm0 1.997v.998h.5v-.998h-.5Zm0 1.996v.998h.5v-.998h-.5Zm0 1.996v.998h.5v-.998h-.5Zm0 1.996v.998h.5v-.998h-.5Zm0 1.997v.998h.5v-.998h-.5Zm0 1.996v.998h.5v-.998h-.5Zm0 1.996v.998h.5v-.998h-.5Zm0 1.996v.998h.5v-.998h-.5Zm0 1.997v.998h.5v-.998h-.5Zm0 1.996v.998h.5v-.998h-.5Zm0 1.996v.998h.5v-.998h-.5Zm0 1.996v.998h.5v-.998h-.5Zm0 1.997v.998h.5v-.998h-.5Zm0 1.996v.998h.5v-.998h-.5Zm0 1.996v.998h.5v-.998h-.5Zm0 1.996v.998h.5v-.998h-.5Zm0 1.997v.998h.5v-.998h-.5Zm0 1.996v.998h.5v-.998h-.5Zm0 1.996v.998h.5v-.998h-.5Zm0 1.996v.998h.5v-.998h-.5Zm0 1.997v.998h.5v-.998h-.5Zm0 1.996v.998h.5v-.998h-.5Zm0 1.996v.998h.5v-.998h-.5Zm0 1.996v.998h.5v-.998h-.5Zm0 1.997v.998h.5v-.998h-.5Zm0 1.996v.998h.5v-.998h-.5Zm0 1.996v.998h.5v-.998h-.5Zm0 1.996v.998h.5v-.998h-.5Zm0 1.996v.999h.5v-.999h-.5Zm0 1.997v.998h.5v-.998h-.5Zm0 1.996v.998h.5v-.998h-.5Zm0 1.996v.998h.5v-.998h-.5Zm0 1.996v.999h.5v-.999h-.5Zm0 1.997v.998h.5v-.998h-.5Zm0 1.996v.998h.5v-.998h-.5Zm0 1.996v.998h.5v-.998h-.5Zm0 1.996v.998h.5v-.998h-.5Zm0 1.997v.998h.5v-.998h-.5Zm0 1.996v.499h.5v-.499h-.5Z" fill="#DF6449"/><ellipse cx="438.522" cy="97.646" rx="3.824" ry="3.45" fill="#6A8CF9"/><ellipse cx="538.215" cy="97.646" rx="3.824" ry="3.45" fill="#6A8CF9"/><ellipse cx="587.336" cy="97.646" rx="3.824" ry="3.45" fill="#6A8CF9"/><ellipse cx="638.115" cy="75.022" rx="3.824" ry="3.45" fill="#6A8CF9"/><ellipse cx="686.821" cy="31.078" rx="3.824" ry="3.45" fill="#6A8CF9"/><ellipse cx="737.393" cy="31.078" rx="3.824" ry="3.45" fill="#6A8CF9"/><ellipse cx="788.032" cy="31.078" rx="3.824" ry="3.45" fill="#6A8CF9"/><ellipse cx="367.824" cy="331.866" rx="3.824" ry="3.45" fill="#DF6449"/></svg>