<svg width="60" height="60" fill="none" xmlns="http://www.w3.org/2000/svg"><mask id="mask0_1_751" style="mask-type:alpha" maskUnits="userSpaceOnUse" x="2" y="2" width="57" height="56"><g clip-path="url('#clip0_1_751')" stroke="#FFED00" stroke-linecap="round" stroke-linejoin="round"><path d="M50.7 14.748h-5.18v7.472h5.18v-7.472ZM35.162 22.227H48v3.732c0 1.385-1.134 2.516-2.54 2.516h-5.506c-2.64 0-4.79-2.124-4.79-4.748v-1.5 0ZM45.513 28.59h-5.289v3.71h5.289v-3.71Z"/><path d="M43.79 36.362c7.625 0 13.807-6.125 13.807-13.68C57.597 15.124 51.415 9 43.79 9c-7.626 0-13.808 6.125-13.808 13.681 0 7.556 6.182 13.681 13.808 13.681ZM40.926 56.706c4.377 0 7.926-3.516 7.926-7.853S45.303 41 40.926 41C36.548 41 33 44.516 33 48.853s3.548 7.853 7.926 7.853ZM32.701 10.353c1.492 0 2.701-1.198 2.701-2.677 0-1.478-1.209-2.676-2.7-2.676C31.208 5 30 6.198 30 7.676c0 1.479 1.21 2.677 2.701 2.677ZM26.253 6.483c.692 0 1.253-.556 1.253-1.242 0-.685-.561-1.241-1.253-1.241C25.56 4 25 4.556 25 5.241c0 .686.56 1.242 1.253 1.242ZM41.059 44.627v5.362M41.156 52.384v.114M12.36 18.499H9.844a2.015 2.015 0 0 1-2.026-1.946 48.607 48.607 0 0 1 0-3.6c.098-2.633.284-9.58 7.775-10.24 7.49-.66 8.245 6.383 8.343 7.888.053.854.027 3.24.027 5.133 0 1.603-.756 2.853-2.622 2.888h-2.718"/><path d="M20.17 16.888c-.471 1.144-2.4 2.782-4.736 2.632-2.337-.15-3.82-2.016-4.167-2.58-.347-.563-1.244-1.69-1.111-3.477 0 0 1.262-.185 1.955-1.629.693-1.444-.16-2.756 2.559-3.6 2.719-.846 2.559-2.193 2.559-2.193s1.99 3.918 3.883 3.786l-.125 3.099s-.222 2.535-.817 3.962v0ZM17.114 44.99c-1.484-2.931-8.69-8.9-8.69-8.9l1.35-7.845"/><path d="M13.417 19.07c.098 1.436-.488 1.533-1.297 1.973-.808.44-3.021 1.303-4.931 2.113-.702.3-1.413.942-2.035 1.646C3.919 26.193 3.297 35.86 3.297 37.71c0 0 9.73 8.875 11.4 10.24"/><path d="M18.925 18.78s-.08.625.196 1.426c.275.802 3.59 1.515 5.722 2.668 2.4 1.294 3.083 4.614 3.092 5.934 0 0 .8 9.535.142 10.292-1.412 1.638-8.734 9.702-10.351 10.838-2.32 1.629-5.011-.247-2.4-2.632 1.716-1.576 8.069-9.113 8.069-9.113l-.738-9.411"/><path d="m7.34 41.345-4.541 13.33c-.507 1.047.72 2.121 2.426 2.121h23.502c1.474 0 2.532-.915 2.088-1.822l-5.35-12.845M10.014 21.924s5.846 4.499 12.555.044M14.607 16.377s1.244-.89 2.337.053M18.403 12.952s-.765.546-1.44-.026M14.6 12.952s-.765.546-1.44-.026"/></g></mask><g mask="url('#mask0_1_751')"><path fill="url('#paint0_linear_1_751')" d="M0 0h60v60H0z"/></g><defs><linearGradient id="paint0_linear_1_751" x1="60" y1="8.4" x2="10.2" y2="60" gradientUnits="userSpaceOnUse"><stop offset=".02" stop-color="#DF6449"/><stop offset="1" stop-color="#6A8CF9"/></linearGradient><clipPath id="clip0_1_751"><path fill="#fff" transform="translate(2 2)" d="M0 0h57v56H0z"/></clipPath></defs></svg>