<svg width="60" height="60" fill="none" xmlns="http://www.w3.org/2000/svg"><mask id="mask0_866_21283" style="mask-type:alpha" maskUnits="userSpaceOnUse" x="1" y="5" width="58" height="52"><g clip-path="url('#clip0_866_21283')" stroke="#FFED00" stroke-linecap="round" stroke-linejoin="round"><path d="M11.35 34.466s-5.668 4.972-5.003 15.058h5.597s.202-8.444.927-12.176c.725-3.732.927-4.452 1.188-5.763.262-1.311.523-5.563 3.423-5.232 2.899.33 5.204 3.862 2.507 6.743 0 0-.333 14.078-.392 17.09-.06 3.011-2.104 6.224-5.669 6.153-4.55-.083-6.654-2.09-6.654-6.354M1.606 56.327h55.588M15.628 23.73s.606-4.062 6.19-5.562c3.887-1.05 5.205-.2 6.584.46 1.378.662 3.16-.72 3.16-.72s4.088 2.032 1.058 9.035"/><path d="M20.963 25.242s2.103 1.24 3.957.461c1.854-.78 2.234-2.22 4.147-.98 1.913 1.24 1.248.98 2.638 2.22 1.39 1.24 2.9 1.96.855 4.842 0 0-1.342 6.708-5.204 7.523-3.09.65-5.074-.98-6.06-1.96M35.258 32.695s5.727.98 7.7 2.752c1.972 1.771 5.799 13.286 5.799 13.286s-.072 3.271-9.09 2.22l-1.45-4.511M35.78 50.504s-7.51-.39-9.743.85c-2.234 1.24-2.828 2.552-2.698 5.044"/><path d="M45.929 56.398s4.349-.39 2.507-6.484M24.98 35.446h2.768M27.689 30.545h2.364M22.52 30.545h1.806M57.67 8.224h-2.39v-1.04a1.6 1.6 0 0 0-1.604-1.594H38.04a1.6 1.6 0 0 0-1.604 1.595v8.208a1.6 1.6 0 0 0 1.604 1.594h15.637a1.6 1.6 0 0 0 1.605-1.594v-1.04h2.388a.718.718 0 0 0 .725-.72V8.956c0-.401-.32-.72-.725-.72v-.012ZM40.26 8.65v5.302"/></g></mask><g mask="url('#mask0_866_21283')"><path fill="url('#paint0_linear_866_21283')" d="M0 0h60v60H0z"/></g><defs><linearGradient id="paint0_linear_866_21283" x1="60" y1="8.4" x2="10.2" y2="60" gradientUnits="userSpaceOnUse"><stop offset=".02" stop-color="#DF6449"/><stop offset="1" stop-color="#6A8CF9"/></linearGradient><clipPath id="clip0_866_21283"><path fill="#fff" transform="translate(1 5)" d="M0 0h58v52H0z"/></clipPath></defs></svg>