<svg width="60" height="60" fill="none" xmlns="http://www.w3.org/2000/svg"><mask id="mask0_866_21336" style="mask-type:alpha" maskUnits="userSpaceOnUse" x="5" y="1" width="49" height="58"><g clip-path="url('#clip0_866_21336')" stroke="#FFED00" stroke-linecap="round" stroke-linejoin="round"><path d="M42.138 36.45V20.763c0-1.096.857-1.99 1.905-1.99 1.058 0 1.906.894 1.906 1.99V36.45"/><path d="M45.94 37.257V22.675c0-1.096.857-1.99 1.905-1.99 1.058 0 1.906.895 1.906 1.99v15.687"/><path d="M42.128 36.45V23.156c0-1.096-.886-1.99-1.972-1.99a1.985 1.985 0 0 0-1.972 1.99v16.447s-.705 1.086-2.096.375c-.896-.462-1.191-1.433-2.258-3.096s-2.468-1.672-2.992-1.643c-.524.029-1.343.24-1.153.922.191.683 3.65 9.036 4.888 11.497 1.239 2.46 2.363 3.393 2.944 4.21.581.817.629 2.547.629 3.335v3.47H49.33s-.21-3.393 0-4.45c.21-1.057 1.105-2.067 1.839-2.913.734-.846 1.886-4.239 2.2-7.42.125-1.24.21-3.72.258-6.402l.057-4.152v-7.017c0-1.096-.876-1.99-1.963-1.99-1.086 0-1.962.894-1.962 1.99V38.16M16.862 36.45V20.763c0-1.096-.858-1.99-1.906-1.99-1.057 0-1.905.894-1.905 1.99V36.45"/><path d="M13.051 37.257V22.675c0-1.096-.857-1.99-1.905-1.99-1.058 0-1.906.895-1.906 1.99v15.687"/><path d="M16.872 36.45V23.156c0-1.096.886-1.99 1.972-1.99 1.086 0 1.972.894 1.972 1.99v16.447s.705 1.086 2.096.375c.896-.462 1.19-1.433 2.258-3.096 1.067-1.663 2.468-1.672 2.992-1.643.524.029 1.343.24 1.152.922-.19.683-3.648 9.036-4.887 11.497-1.239 2.46-2.363 3.393-2.944 4.21-.581.817-.629 2.547-.629 3.335v3.47H9.678s.21-3.393 0-4.45c-.21-1.057-1.105-2.067-1.839-2.913-.733-.846-1.886-4.239-2.2-7.42-.124-1.24-.21-3.72-.258-6.402l-.057-4.152v-7.017c0-1.096.877-1.99 1.963-1.99s1.963.894 1.963 1.99V38.16M30.081 12.793l-5.827 5.88 5.827 5.879 5.828-5.88-5.828-5.879ZM40.217 6.849l-4.547 4.588 4.547 4.587 4.548-4.588-4.548-4.587ZM22.904 1.428l-5.12 5.165 5.12 5.166 5.12-5.166-5.12-5.165Z"/></g></mask><g mask="url('#mask0_866_21336')"><path fill="url('#paint0_linear_866_21336')" d="M0 0h60v60H0z"/></g><defs><linearGradient id="paint0_linear_866_21336" x1="60" y1="8.4" x2="10.2" y2="60" gradientUnits="userSpaceOnUse"><stop offset=".02" stop-color="#DF6449"/><stop offset="1" stop-color="#6A8CF9"/></linearGradient><clipPath id="clip0_866_21336"><path fill="#fff" transform="translate(5 1)" d="M0 0h49v58H0z"/></clipPath></defs></svg>