<svg width="60" height="60" fill="none" xmlns="http://www.w3.org/2000/svg"><mask id="mask0_105_3657" style="mask-type:alpha" maskUnits="userSpaceOnUse" x="11" y="1" width="39" height="58"><path d="M41.835 19.328c1.073-4.13 1.251-14.057 1.207-17.074L31.577 4.78v10.727c0 1.676.336 4.76 1.542 7.91 1.207 3.152.872 6.504.872 10.46 0 3.955 1.475 13.676 1.944 16.29.47 2.615-1.102 4.67-1.102 6.614 0 1.488 2.72 1.488 4.597 1.488 1.877 0 4.976-.08 4.105-1.488-.698-1.127-2.647-4.572-2.463-5.594.763-4.256 3.9-14.04 1.97-17.31-2.414-4.09-2.548-9.387-1.207-14.549Z" stroke="#8484D3" stroke-linejoin="round"/><path d="M48.656 7.244s-1.046 1.084-1.27 2.928c-.226 1.845 1.276 1.923.77 4.412-.505 2.49-1.847 2.423-2.129 5.1-.244 2.294 1.624 3.088.244 6.24M47.584 37.74s-1.411 1.03-.717 3.304c.694 2.274.465 4.379-1.648 5.715" stroke="#8484D3" stroke-linecap="round" stroke-linejoin="round"/><path d="M19.256 19.328C18.183 15.198 18.004 5.017 18.049 2l11.464 2.78v10.726c0 1.677-.335 4.76-1.542 7.912-1.206 3.15-.871 6.503-.871 10.458 0 3.956-1.475 13.677-1.944 16.291-.47 2.615 1.102 4.67 1.102 6.613 0 1.49-2.72 1.49-4.598 1.49-1.877 0-4.975-.082-4.104-1.49.697-1.126 2.646-4.57 2.463-5.594-.763-4.256-3.9-14.038-1.97-17.31 2.414-4.09 2.548-9.386 1.207-14.548Z" stroke="#8484D3" stroke-linejoin="round"/><path d="M12.457 7.24s1.043 1.087 1.263 2.932c.221 1.846-1.28 1.92-.781 4.41.5 2.491 1.842 2.428 2.117 5.105.239 2.295-1.631 3.085-.259 6.24M13.38 37.74s1.412 1.03.718 3.304-.465 4.379 1.647 5.715" stroke="#8484D3" stroke-linecap="round" stroke-linejoin="round"/></mask><g mask="url('#mask0_105_3657')"><path fill="url('#paint0_linear_105_3657')" d="M-.102.261h60v60h-60z"/></g><defs><linearGradient id="paint0_linear_105_3657" x1="59.898" y1="8.661" x2="10.098" y2="60.261" gradientUnits="userSpaceOnUse"><stop offset=".02" stop-color="#DF6449"/><stop offset="1" stop-color="#6A8CF9"/></linearGradient></defs></svg>