<svg width="60" height="60" fill="none" xmlns="http://www.w3.org/2000/svg"><mask id="mask0_1_761" style="mask-type:alpha" maskUnits="userSpaceOnUse" x="5" y="1" width="49" height="58"><g clip-path="url('#clip0_1_761')" stroke="#FFED00" stroke-linecap="round" stroke-linejoin="round"><path d="M46.185 13.523a4.606 4.606 0 0 1-5 5.092"/><path d="M44.652 13.74c.055.479 0 .969-.195 1.447a3.006 3.006 0 0 1-3.066 1.872M6.446 25.774a4.734 4.734 0 0 1 0-2.24 4.588 4.588 0 0 1 4.26-3.471"/><path d="M7.935 25.361a3.051 3.051 0 0 1 0-1.469 3.006 3.006 0 0 1 2.782-2.263M19.598 13.882c2.696 1.12 4.424.043 5.337-1.186 1.348-1.817-.957-5.669-.957-5.669-.217-2.023-1.152-1.762-2.217-1.773-1.065-.011-.685-.152-1.978.032-1.294.185-.913.958-1.413 2.002-.5 1.045-1.87 1.306-1.87 1.306-.804.49-.576 1.99-.304 3.057.174.73-.337 1.066.456 1.73.913.762 1.566.13 1.566.13l1.39.37h-.01Z"/><path d="M22.163 4.906c-1.37-4.189-3.902-3.514-3.902-3.514s-.24 1.273-1.087 1.512c-.848.24-1.74.37-3.011 2.306-1.826 2.775-.543 4.766-.543 4.766.424.63 1.989 2.045 2.347 2.47M23.141 11.358s-.282-.795-1.087-.457c-.63.272-.663.783-.239 1.48.424.696 1.924.663 1.326-1.023ZM19.782 10.9c.011-.587-.315-.902-.902-1.022M22.228 8.746c.011-.587-.315-.903-.902-1.022M25.109 12.848c.554 2.415 1.924 2.034 2.848 1.588.728-.348 1.728-.565 2.51-.75 2.153-.5 5.718-1.023 6.946-2.416 2.75-3.133-2.359-7.713 1.055-8.399 2.967-.598 3.673 3.786 4 7.17.195 1.97-.838 4.515-3.479 5.951-3.021 1.643-6.26 3.319-6.26 3.319l3.065 8.061c.239.653.652 1.23 1.206 1.654 1.859 1.436 8.152 2.524 10.294 4.004 1.76 2.807 4.956 10.684 6.152 13.708 1.195 3.025-3.337 5.212-4.946 1.578-1.217-2.764-5.282-10.847-5.282-10.847l-9.327-2.916 1.935 9.302c.065.327.076.653.044.98-.25 1.99-.479 9.41-.848 11.739-.37 2.328-4.533 3.264-5.304-.642-.772-3.906.597-7.29.163-10.358-.36-2.491-3.979-11.652-4.316-12.196L20.891 23.14s-4.858 1.904-6.62 4.352c-.77 1.077-1.825 5.168-2.336 6.985-.555 1.98-3.141 2.372-3.424-1.034-.163-1.882.587-7.409 4.054-10.422 2.457-2.133 6.913-5.18 7.37-5.451 1.37-.838 2.337-.773 1.533-3.134"/><path d="M21.544 16.656s3.369 1.643 4.923-1.958M29.554 46.249h-6.51M20.337 46.249h-2.109M29.37 56.552h-9.576M24.49 51.123h-9.577M49.25 50.22h-9.576"/></g></mask><g mask="url('#mask0_1_761')"><path fill="url('#paint0_linear_1_761')" d="M0 0h60v60H0z"/></g><defs><linearGradient id="paint0_linear_1_761" x1="60" y1="8.4" x2="10.2" y2="60" gradientUnits="userSpaceOnUse"><stop offset=".02" stop-color="#DF6449"/><stop offset="1" stop-color="#6A8CF9"/></linearGradient><clipPath id="clip0_1_761"><path fill="#fff" transform="translate(5 1)" d="M0 0h49v58H0z"/></clipPath></defs></svg>