<svg width="22" height="30" fill="none" xmlns="http://www.w3.org/2000/svg"><path fill-rule="evenodd" clip-rule="evenodd" d="M1.72.472a1.656 1.656 0 0 0-.747.706l-.121.228v27.003l.121.227c.161.303.439.565.747.706.25.115.319.116 9.632.116 9.313 0 9.382 0 9.632-.116.309-.141.586-.403.747-.706l.121-.227.015-11.37c.01-7.874-.004-11.414-.044-11.515-.033-.08-1.174-1.276-2.537-2.658L16.81.354 9.391.355C2.05.357 1.969.358 1.72.472Zm14.403 2.739.017 1.89.163.299c.173.316.403.526.747.684.18.082.47.099 2.016.115l1.806.019v10.971c0 7.048-.02 11.009-.055 11.076-.03.057-.134.132-.232.166-.252.09-18.214.09-18.466 0-.097-.034-.202-.11-.232-.166-.062-.117-.08-26.528-.019-26.69.096-.253-.003-.25 7.31-.252l6.927-.003.018 1.89Zm2.565.412 1.54 1.563h-2.833l-.137-.14-.138-.139V3.483c0-.783.007-1.423.014-1.423.008 0 .707.703 1.554 1.563ZM5.052 8.73c-.507.24-.811.668-.856 1.203-.07.85.573 1.563 1.408 1.562.828-.002 1.434-.614 1.434-1.45 0-1.044-1.068-1.75-1.986-1.315Zm.877.987c.306.268.081.812-.335.812-.14 0-.345-.16-.403-.316-.16-.429.391-.8.738-.496Zm3.015.329v.483h9.576v-.966H8.944v.483Zm-3.556 3.421c-.327.075-.513.166-.716.352-1.13 1.034-.116 2.907 1.344 2.48.257-.075.384-.158.614-.397.31-.324.41-.565.41-.996 0-.43-.1-.671-.41-.995-.366-.38-.815-.541-1.242-.444Zm3.556 1.44v.511h9.576V14.396H8.944v.511Zm-3.084-.4c.17.092.254.37.171.572-.082.2-.208.283-.43.28-.195-.002-.331-.103-.405-.3a.493.493 0 0 1 .152-.53c.114-.088.371-.1.512-.023Zm-.899 3.969c-1.073.57-1.021 2.078.091 2.607.691.328 1.554-.01 1.88-.738.226-.507.08-1.262-.319-1.64a1.457 1.457 0 0 0-1.652-.229Zm.869.872c.364.168.287.793-.106.852-.502.075-.764-.534-.355-.825.151-.108.271-.115.46-.027Zm3.114.419v.483h9.576v-.966H8.944v.483Zm-3.892 3.516c-.507.241-.811.669-.856 1.203-.07.85.573 1.564 1.408 1.562.828-.001 1.434-.614 1.434-1.449 0-1.044-1.068-1.752-1.986-1.316Zm.877.987c.306.268.081.812-.335.812-.14 0-.345-.16-.403-.316-.16-.429.391-.8.738-.496Zm3.015.329v.483h9.576v-.966H8.944v.483Z" fill="#000"/></svg>