<svg width="393" height="420" fill="none" xmlns="http://www.w3.org/2000/svg"><rect x=".5" y=".5" width="392" height="419" rx="9.5" fill="#fff" stroke="url('#a')"/><path d="M367.5 120.5V301M257 120.5V301M156 120.5V301" stroke="#D9D9D9" stroke-width=".5" stroke-dasharray="3 3"/><path d="m368 378-5-2.887v5.774l5-2.887Zm-351 0 5 2.887v-5.774L17 378Zm346.5-.5h-342v1h342v-1Z" fill="#6A8CF9"/><path d="m257 301-5-2.887v5.774l5-2.887Zm-226 0 5 2.887v-5.774L31 301Zm221.5-.5h-217v1h217v-1Z" fill="#8B49DF"/><path d="m367 227-5-2.887v5.774l5-2.887Zm-4.5-.5H31v1h331.5v-1Z" fill="#6A8CF9"/><path d="m366 120-5-2.887v5.774l5-2.887Zm-209.5 0v-.5h-.184l-.14.12.324.38Zm205-.5h-205v1h205v-1Zm-205.324.12-125.5 107 .648.76 125.5-107-.648-.76Z" fill="#6A8CF9"/><path d="m366.5 119.5-5.642-1.223 1.761 5.498 3.881-4.275Zm-4.438.897L30.847 226.524l.306.952 331.214-106.127-.305-.952Z" fill="#DF6449"/><path d="M155.646 114.354a.502.502 0 0 0 .708 0l3.182-3.182a.502.502 0 0 0-.708-.708L156 113.293l-2.828-2.829a.502.502 0 0 0-.708.708l3.182 3.182ZM156 55v-.5h-.5v.5h.5Zm116-.5H156v1h116v-1Zm-116.5.5v59h1V55h-1Zm101.146 59.354a.502.502 0 0 0 .708 0l3.182-3.182a.502.502 0 0 0-.708-.708L257 113.293l-2.828-2.829a.502.502 0 0 0-.708.708l3.182 3.182ZM257 85v-.5h-.5v.5h.5Zm116-.5H257v1h116v-1Zm-116.5.5v29h1V85h-1ZM30.646 216.854a.5.5 0 0 0 .708 0l3.181-3.182a.501.501 0 0 0-.707-.708L31 215.793l-2.828-2.829a.5.5 0 0 0-.707.708l3.181 3.182ZM30.5 144.5v72h1v-72h-1Zm.854 91.646a.5.5 0 0 0-.708 0l-3.181 3.182a.501.501 0 0 0 .707.708L31 237.207l2.828 2.829a.5.5 0 0 0 .707-.708l-3.181-3.182Zm-.854.354V291h1v-54.5h-1Zm71.854 86.146a.502.502 0 0 0-.708 0l-3.181 3.182a.501.501 0 0 0 .707.708l2.828-2.829 2.828 2.829a.502.502 0 0 0 .708-.708l-3.182-3.182Zm-.854.354v10h1v-10h-1Zm55.436-288v-8.46h7.404V35h-1.536v-7.2h-4.344V35h-1.524Zm12.162.12c-1.016 0-1.812-.28-2.388-.84-.576-.56-.864-1.328-.864-2.304 0-.632.124-1.184.372-1.656a2.75 2.75 0 0 1 1.032-1.104c.448-.264.968-.396 1.56-.396.584 0 1.072.124 1.464.372.392.248.688.596.888 1.044.208.448.312.972.312 1.572v.396h-4.416v-.792h3.348l-.204.168c0-.56-.12-.988-.36-1.284-.232-.296-.572-.444-1.02-.444-.496 0-.88.176-1.152.528-.264.352-.396.844-.396 1.476v.156c0 .656.16 1.148.48 1.476.328.32.788.48 1.38.48.344 0 .664-.044.96-.132.304-.096.592-.248.864-.456l.444 1.008a3.162 3.162 0 0 1-1.032.54c-.4.128-.824.192-1.272.192Zm3.81 2.472v-7.14a12.12 12.12 0 0 0-.096-1.512h1.452l.132 1.272h-.132c.12-.424.372-.76.756-1.008a2.424 2.424 0 0 1 1.356-.384c.536 0 1.004.128 1.404.384.4.248.712.608.936 1.08.224.464.336 1.024.336 1.68 0 .656-.112 1.22-.336 1.692a2.564 2.564 0 0 1-.936 1.092c-.4.248-.868.372-1.404.372a2.4 2.4 0 0 1-1.332-.372 1.784 1.784 0 0 1-.768-.996h.132v3.84h-1.5Zm3.048-3.624c.48 0 .864-.164 1.152-.492.288-.336.432-.84.432-1.512s-.144-1.172-.432-1.5c-.288-.328-.672-.492-1.152-.492-.472 0-.852.164-1.14.492-.288.328-.432.828-.432 1.5s.144 1.176.432 1.512c.288.328.668.492 1.14.492ZM180.465 35v-6.06h3.228c.76 0 1.316.14 1.668.42.352.272.528.66.528 1.164 0 .384-.128.704-.384.96s-.596.416-1.02.48v-.168c.52.032.92.184 1.2.456.28.272.42.624.42 1.056 0 .52-.2.932-.6 1.236-.4.304-.968.456-1.704.456h-3.336Zm1.392-.924h1.788c.352 0 .62-.072.804-.216.192-.144.288-.356.288-.636s-.096-.492-.288-.636c-.184-.144-.452-.216-.804-.216h-1.788v1.704Zm0-2.628h1.656c.32 0 .568-.068.744-.204.176-.144.264-.344.264-.6s-.088-.452-.264-.588c-.176-.136-.424-.204-.744-.204h-1.656v1.596Zm8.342 3.672c-.624 0-1.164-.128-1.62-.384a2.7 2.7 0 0 1-1.068-1.092c-.248-.472-.372-1.032-.372-1.68 0-.648.124-1.204.372-1.668a2.7 2.7 0 0 1 1.068-1.092c.456-.256.996-.384 1.62-.384.624 0 1.164.128 1.62.384.464.256.82.62 1.068 1.092.256.464.384 1.02.384 1.668 0 .648-.128 1.208-.384 1.68a2.603 2.603 0 0 1-1.068 1.092c-.456.256-.996.384-1.62.384Zm0-1.152c.472 0 .848-.164 1.128-.492.28-.336.42-.84.42-1.512s-.14-1.172-.42-1.5c-.28-.328-.656-.492-1.128-.492-.472 0-.848.164-1.128.492-.28.328-.42.828-.42 1.5s.14 1.176.42 1.512c.28.328.656.492 1.128.492Zm7.469 1.152c-1.016 0-1.812-.28-2.388-.84-.576-.56-.864-1.328-.864-2.304 0-.632.124-1.184.372-1.656a2.75 2.75 0 0 1 1.032-1.104c.448-.264.968-.396 1.56-.396.584 0 1.072.124 1.464.372.392.248.688.596.888 1.044.208.448.312.972.312 1.572v.396h-4.416v-.792h3.348l-.204.168c0-.56-.12-.988-.36-1.284-.232-.296-.572-.444-1.02-.444-.496 0-.88.176-1.152.528-.264.352-.396.844-.396 1.476v.156c0 .656.16 1.148.48 1.476.328.32.788.48 1.38.48.344 0 .664-.044.96-.132.304-.096.592-.248.864-.456l.444 1.008a3.162 3.162 0 0 1-1.032.54c-.4.128-.824.192-1.272.192Zm9.287 0a5.94 5.94 0 0 1-1.536-.192c-.472-.128-.868-.312-1.188-.552l.42-.984c.296.216.64.38 1.032.492.4.112.82.168 1.26.168.512 0 .884-.068 1.116-.204a.687.687 0 0 0 .36-.624c0-.256-.092-.448-.276-.576-.184-.136-.456-.204-.816-.204h-1.572v-1.032h1.428c.328 0 .58-.064.756-.192a.629.629 0 0 0 .264-.54.672.672 0 0 0-.324-.588c-.208-.144-.552-.216-1.032-.216-.416 0-.796.052-1.14.156-.344.096-.668.24-.972.432l-.408-.936a3.597 3.597 0 0 1 1.188-.528c.472-.12.984-.18 1.536-.18.808 0 1.428.148 1.86.444.432.296.648.716.648 1.26 0 .368-.128.684-.384.948-.248.264-.584.428-1.008.492v-.168c.496.032.888.18 1.176.444.288.264.432.62.432 1.068 0 .552-.244.992-.732 1.32-.488.328-1.184.492-2.088.492Zm4.131-.12v-6.06h1.488v2.376h2.736V28.94h1.488V35h-1.488v-2.532h-2.736V35h-1.488Zm9.806.12c-.528 0-.992-.124-1.392-.372-.4-.256-.712-.62-.936-1.092-.224-.472-.336-1.036-.336-1.692 0-.656.112-1.216.336-1.68.224-.472.536-.832.936-1.08.4-.256.864-.384 1.392-.384.512 0 .96.128 1.344.384.392.248.652.584.78 1.008h-.132l.132-1.272h1.44l-.072.756a12.12 12.12 0 0 0-.024.756V35h-1.488l-.012-1.248h.144a1.77 1.77 0 0 1-.78.996 2.439 2.439 0 0 1-1.332.372Zm.42-1.152c.472 0 .852-.164 1.14-.492.288-.336.432-.84.432-1.512s-.144-1.172-.432-1.5c-.288-.328-.668-.492-1.14-.492-.472 0-.852.164-1.14.492-.288.328-.432.828-.432 1.5s.14 1.176.42 1.512c.288.328.672.492 1.152.492Zm8.65 1.032v-2.208a3.58 3.58 0 0 1-.696.24c-.24.056-.492.084-.756.084-.888 0-1.552-.212-1.992-.636-.432-.424-.648-1.056-.648-1.896V28.94h1.488v1.512c0 .512.112.884.336 1.116.224.224.584.336 1.08.336.232 0 .44-.024.624-.072a1.92 1.92 0 0 0 .528-.228V28.94h1.488V35h-1.452Zm3.156 0v-6.06h1.356v4.584h-.36l3.444-4.584h1.236V35h-1.356v-4.596h.372L234.354 35h-1.236Zm7.382 0v-6.06h1.248l2.088 3.624 2.088-3.624h1.248V35h-1.32v-4.38h.276l-1.944 3.396h-.696l-1.944-3.396h.276V35h-1.32Zm11.163.12c-.624 0-1.164-.128-1.62-.384a2.7 2.7 0 0 1-1.068-1.092c-.248-.472-.372-1.032-.372-1.68 0-.648.124-1.204.372-1.668a2.7 2.7 0 0 1 1.068-1.092c.456-.256.996-.384 1.62-.384.624 0 1.164.128 1.62.384.464.256.82.62 1.068 1.092.256.464.384 1.02.384 1.668 0 .648-.128 1.208-.384 1.68a2.603 2.603 0 0 1-1.068 1.092c-.456.256-.996.384-1.62.384Zm0-1.152c.472 0 .848-.164 1.128-.492.28-.336.42-.84.42-1.512s-.14-1.172-.42-1.5c-.28-.328-.656-.492-1.128-.492-.472 0-.848.164-1.128.492-.28.328-.42.828-.42 1.5s.14 1.176.42 1.512c.28.328.656.492 1.128.492Zm7.47 1.152c-1.016 0-1.812-.28-2.388-.84-.576-.56-.864-1.328-.864-2.304 0-.632.124-1.184.372-1.656a2.75 2.75 0 0 1 1.032-1.104c.448-.264.968-.396 1.56-.396.584 0 1.072.124 1.464.372.392.248.688.596.888 1.044.208.448.312.972.312 1.572v.396h-4.416v-.792h3.348l-.204.168c0-.56-.12-.988-.36-1.284-.232-.296-.572-.444-1.02-.444-.496 0-.88.176-1.152.528-.264.352-.396.844-.396 1.476v.156c0 .656.16 1.148.48 1.476.328.32.788.48 1.38.48.344 0 .664-.044.96-.132.304-.096.592-.248.864-.456l.444 1.008a3.162 3.162 0 0 1-1.032.54c-.4.128-.824.192-1.272.192ZM156.78 50.724l-.348-1.188c.376-.08.692-.172.948-.276.256-.104.468-.24.636-.408.168-.168.308-.384.42-.648l.3-.708-.036.588-2.64-6.144h1.596l1.896 4.728h-.348l1.908-4.728h1.512l-2.76 6.396a4.882 4.882 0 0 1-.6 1.068 2.952 2.952 0 0 1-.696.684 3 3 0 0 1-.816.408c-.296.096-.62.172-.972.228ZM163.532 48v-6.06h3.228c.76 0 1.316.14 1.668.42.352.272.528.66.528 1.164 0 .384-.128.704-.384.96s-.596.416-1.02.48v-.168c.52.032.92.184 1.2.456.28.272.42.624.42 1.056 0 .52-.2.932-.6 1.236-.4.304-.968.456-1.704.456h-3.336Zm1.392-.924h1.788c.352 0 .62-.072.804-.216.192-.144.288-.356.288-.636s-.096-.492-.288-.636c-.184-.144-.452-.216-.804-.216h-1.788v1.704Zm0-2.628h1.656c.32 0 .568-.068.744-.204.176-.144.264-.344.264-.6s-.088-.452-.264-.588c-.176-.136-.424-.204-.744-.204h-1.656v1.596Zm8.533 3.672c-1.016 0-1.812-.28-2.388-.84-.576-.56-.864-1.328-.864-2.304 0-.632.124-1.184.372-1.656a2.75 2.75 0 0 1 1.032-1.104c.448-.264.968-.396 1.56-.396.584 0 1.072.124 1.464.372.392.248.688.596.888 1.044.208.448.312.972.312 1.572v.396h-4.416v-.792h3.348l-.204.168c0-.56-.12-.988-.36-1.284-.232-.296-.572-.444-1.02-.444-.496 0-.88.176-1.152.528-.264.352-.396.844-.396 1.476v.156c0 .656.16 1.148.48 1.476.328.32.788.48 1.38.48.344 0 .664-.044.96-.132.304-.096.592-.248.864-.456l.444 1.008a3.162 3.162 0 0 1-1.032.54c-.4.128-.824.192-1.272.192Zm3.606.048-.468-1.176c.264-.096.484-.22.66-.372.184-.16.328-.36.432-.6.112-.248.192-.552.24-.912.048-.368.072-.804.072-1.308v-1.86h4.824V48h-1.488v-4.908h-1.968v.756c0 .872-.08 1.604-.24 2.196-.16.584-.408 1.048-.744 1.392-.336.344-.776.588-1.32.732Zm7.469-.168v-6.06h1.356v4.584h-.36l3.444-4.584h1.236V48h-1.356v-4.596h.372L185.768 48h-1.236Zm11.235 0v-2.208a3.58 3.58 0 0 1-.696.24c-.24.056-.492.084-.756.084-.888 0-1.552-.212-1.992-.636-.432-.424-.648-1.056-.648-1.896V41.94h1.488v1.512c0 .512.112.884.336 1.116.224.224.584.336 1.08.336.232 0 .44-.024.624-.072a1.92 1.92 0 0 0 .528-.228V41.94h1.488V48h-1.452Zm6.131.12c-1.016 0-1.812-.28-2.388-.84-.576-.56-.864-1.328-.864-2.304 0-.632.124-1.184.372-1.656a2.75 2.75 0 0 1 1.032-1.104c.448-.264.968-.396 1.56-.396.584 0 1.072.124 1.464.372.392.248.688.596.888 1.044.208.448.312.972.312 1.572v.396h-4.416v-.792h3.348l-.204.168c0-.56-.12-.988-.36-1.284-.232-.296-.572-.444-1.02-.444-.496 0-.88.176-1.152.528-.264.352-.396.844-.396 1.476v.156c0 .656.16 1.148.48 1.476.328.32.788.48 1.38.48.344 0 .664-.044.96-.132.304-.096.592-.248.864-.456l.444 1.008a3.162 3.162 0 0 1-1.032.54c-.4.128-.824.192-1.272.192Zm3.763-.12v-6.06h1.488v2.376h2.736V41.94h1.488V48h-1.488v-2.532h-2.736V48h-1.488Zm7.418 0v-6.06h1.356v4.584h-.36l3.444-4.584h1.236V48h-1.356v-4.596h.372L214.315 48h-1.236Zm10.358.12c-1.016 0-1.812-.28-2.388-.84-.576-.56-.864-1.328-.864-2.304 0-.632.124-1.184.372-1.656a2.75 2.75 0 0 1 1.032-1.104c.448-.264.968-.396 1.56-.396.584 0 1.072.124 1.464.372.392.248.688.596.888 1.044.208.448.312.972.312 1.572v.396h-4.416v-.792h3.348l-.204.168c0-.56-.12-.988-.36-1.284-.232-.296-.572-.444-1.02-.444-.496 0-.88.176-1.152.528-.264.352-.396.844-.396 1.476v.156c0 .656.16 1.148.48 1.476.328.32.788.48 1.38.48.344 0 .664-.044.96-.132.304-.096.592-.248.864-.456l.444 1.008a3.162 3.162 0 0 1-1.032.54c-.4.128-.824.192-1.272.192Zm7.14-.12v-8.46h5.7v1.212h-4.212v2.34h3.936v1.224h-3.936v2.46h4.212V48h-5.7Zm7.136 0v-8.46h3.072c.968 0 1.784.168 2.448.504.672.328 1.18.808 1.524 1.44.344.624.516 1.384.516 2.28 0 .888-.172 1.648-.516 2.28a3.435 3.435 0 0 1-1.524 1.452c-.664.336-1.48.504-2.448.504h-3.072Zm1.548-1.284h1.428c1.024 0 1.784-.244 2.28-.732.496-.488.744-1.228.744-2.22 0-1-.248-1.74-.744-2.22-.496-.488-1.256-.732-2.28-.732h-1.428v5.904Zm10.545 1.404c-.68 0-1.308-.084-1.884-.252a4.81 4.81 0 0 1-1.464-.72l.48-1.212c.272.192.556.356.852.492.296.128.612.228.948.3.336.064.692.096 1.068.096.632 0 1.088-.104 1.368-.312a.97.97 0 0 0 .42-.816c0-.296-.096-.52-.288-.672-.192-.16-.536-.292-1.032-.396l-1.356-.276c-.776-.16-1.356-.428-1.74-.804-.384-.376-.576-.88-.576-1.512 0-.528.14-.988.42-1.38.28-.392.672-.696 1.176-.912.504-.216 1.092-.324 1.764-.324a5.1 5.1 0 0 1 1.668.264c.512.168.94.412 1.284.732l-.48 1.152c-.344-.288-.72-.5-1.128-.636a4.09 4.09 0 0 0-1.368-.216c-.568 0-1.012.112-1.332.336a1.034 1.034 0 0 0-.468.9c0 .296.096.532.288.708.2.176.536.312 1.008.408l1.344.264c.8.16 1.392.424 1.776.792.384.36.576.848.576 1.464 0 .504-.136.948-.408 1.332-.272.376-.656.672-1.152.888-.496.208-1.084.312-1.764.312Zm7.734 0c-.68 0-1.308-.084-1.884-.252a4.81 4.81 0 0 1-1.464-.72l.48-1.212c.272.192.556.356.852.492.296.128.612.228.948.3.336.064.692.096 1.068.096.632 0 1.088-.104 1.368-.312a.97.97 0 0 0 .42-.816c0-.296-.096-.52-.288-.672-.192-.16-.536-.292-1.032-.396l-1.356-.276c-.776-.16-1.356-.428-1.74-.804-.384-.376-.576-.88-.576-1.512 0-.528.14-.988.42-1.38.28-.392.672-.696 1.176-.912.504-.216 1.092-.324 1.764-.324a5.1 5.1 0 0 1 1.668.264c.512.168.94.412 1.284.732l-.48 1.152c-.344-.288-.72-.5-1.128-.636a4.09 4.09 0 0 0-1.368-.216c-.568 0-1.012.112-1.332.336a1.034 1.034 0 0 0-.468.9c0 .296.096.532.288.708.2.176.536.312 1.008.408l1.344.264c.8.16 1.392.424 1.776.792.384.36.576.848.576 1.464 0 .504-.136.948-.408 1.332-.272.376-.656.672-1.152.888-.496.208-1.084.312-1.764.312ZM294.936 79v-8.46h7.404V79h-1.536v-7.2h-4.344V79h-1.524Zm9.27 0v-8.46h7.404V79h-1.536v-7.2h-4.344V79h-1.524Zm9.269 0v-8.46h1.428v6.384h-.288l4.896-6.384h1.164V79h-1.44v-6.384h.288L314.615 79h-1.14Zm8.927-2.712V75.1h3.648v1.188h-3.648Zm7.925 2.832a5.584 5.584 0 0 1-1.68-.252c-.536-.176-.976-.416-1.32-.72l.504-1.164c.376.288.764.5 1.164.636.408.136.836.204 1.284.204.544 0 .956-.108 1.236-.324.28-.216.42-.532.42-.948 0-.4-.14-.7-.42-.9-.272-.208-.672-.312-1.2-.312h-1.368v-1.236h1.236c.456 0 .82-.112 1.092-.336.272-.224.408-.532.408-.924 0-.368-.128-.648-.384-.84-.248-.192-.608-.288-1.08-.288-.848 0-1.596.288-2.244.864l-.504-1.152c.344-.32.768-.568 1.272-.744a4.912 4.912 0 0 1 1.608-.264c.88 0 1.568.2 2.064.6.504.392.756.94.756 1.644 0 .504-.144.94-.432 1.308-.28.36-.668.6-1.164.72v-.144c.584.096 1.036.336 1.356.72.328.376.492.848.492 1.416 0 .752-.276 1.348-.828 1.788-.552.432-1.308.648-2.268.648ZM97.936 319v-8.46h7.404V319h-1.536v-7.2H99.46v7.2h-1.524Zm12.162.12c-1.016 0-1.812-.28-2.388-.84-.576-.56-.864-1.328-.864-2.304 0-.632.124-1.184.372-1.656a2.75 2.75 0 0 1 1.032-1.104c.448-.264.968-.396 1.56-.396.584 0 1.072.124 1.464.372.392.248.688.596.888 1.044.208.448.312.972.312 1.572v.396h-4.416v-.792h3.348l-.204.168c0-.56-.12-.988-.36-1.284-.232-.296-.572-.444-1.02-.444-.496 0-.88.176-1.152.528-.264.352-.396.844-.396 1.476v.156c0 .656.16 1.148.48 1.476.328.32.788.48 1.38.48.344 0 .664-.044.96-.132.304-.096.592-.248.864-.456l.444 1.008a3.162 3.162 0 0 1-1.032.54c-.4.128-.824.192-1.272.192Zm3.81 2.472v-7.14a12.12 12.12 0 0 0-.096-1.512h1.452l.132 1.272h-.132c.12-.424.372-.76.756-1.008a2.424 2.424 0 0 1 1.356-.384c.536 0 1.004.128 1.404.384.4.248.712.608.936 1.08.224.464.336 1.024.336 1.68 0 .656-.112 1.22-.336 1.692a2.564 2.564 0 0 1-.936 1.092c-.4.248-.868.372-1.404.372a2.4 2.4 0 0 1-1.332-.372 1.784 1.784 0 0 1-.768-.996h.132v3.84h-1.5Zm3.048-3.624c.48 0 .864-.164 1.152-.492.288-.336.432-.84.432-1.512s-.144-1.172-.432-1.5c-.288-.328-.672-.492-1.152-.492-.472 0-.852.164-1.14.492-.288.328-.432.828-.432 1.5s.144 1.176.432 1.512c.288.328.668.492 1.14.492Zm4.509 1.032v-6.06h3.228c.76 0 1.316.14 1.668.42.352.272.528.66.528 1.164 0 .384-.128.704-.384.96s-.596.416-1.02.48v-.168c.52.032.92.184 1.2.456.28.272.42.624.42 1.056 0 .52-.2.932-.6 1.236-.4.304-.968.456-1.704.456h-3.336Zm1.392-.924h1.788c.352 0 .62-.072.804-.216.192-.144.288-.356.288-.636s-.096-.492-.288-.636c-.184-.144-.452-.216-.804-.216h-1.788v1.704Zm0-2.628h1.656c.32 0 .568-.068.744-.204.176-.144.264-.344.264-.6s-.088-.452-.264-.588c-.176-.136-.424-.204-.744-.204h-1.656v1.596Zm8.342 3.672c-.624 0-1.164-.128-1.62-.384a2.7 2.7 0 0 1-1.068-1.092c-.248-.472-.372-1.032-.372-1.68 0-.648.124-1.204.372-1.668a2.7 2.7 0 0 1 1.068-1.092c.456-.256.996-.384 1.62-.384.624 0 1.164.128 1.62.384.464.256.82.62 1.068 1.092.256.464.384 1.02.384 1.668 0 .648-.128 1.208-.384 1.68a2.603 2.603 0 0 1-1.068 1.092c-.456.256-.996.384-1.62.384Zm0-1.152c.472 0 .848-.164 1.128-.492.28-.336.42-.84.42-1.512s-.14-1.172-.42-1.5c-.28-.328-.656-.492-1.128-.492-.472 0-.848.164-1.128.492-.28.328-.42.828-.42 1.5s.14 1.176.42 1.512c.28.328.656.492 1.128.492Zm7.469 1.152c-1.016 0-1.812-.28-2.388-.84-.576-.56-.864-1.328-.864-2.304 0-.632.124-1.184.372-1.656a2.75 2.75 0 0 1 1.032-1.104c.448-.264.968-.396 1.56-.396.584 0 1.072.124 1.464.372.392.248.688.596.888 1.044.208.448.312.972.312 1.572v.396h-4.416v-.792h3.348l-.204.168c0-.56-.12-.988-.36-1.284-.232-.296-.572-.444-1.02-.444-.496 0-.88.176-1.152.528-.264.352-.396.844-.396 1.476v.156c0 .656.16 1.148.48 1.476.328.32.788.48 1.38.48.344 0 .664-.044.96-.132.304-.096.592-.248.864-.456l.444 1.008a3.162 3.162 0 0 1-1.032.54c-.4.128-.824.192-1.272.192Zm9.287 0a5.94 5.94 0 0 1-1.536-.192c-.472-.128-.868-.312-1.188-.552l.42-.984c.296.216.64.38 1.032.492.4.112.82.168 1.26.168.512 0 .884-.068 1.116-.204a.687.687 0 0 0 .36-.624c0-.256-.092-.448-.276-.576-.184-.136-.456-.204-.816-.204h-1.572v-1.032h1.428c.328 0 .58-.064.756-.192a.629.629 0 0 0 .264-.54.672.672 0 0 0-.324-.588c-.208-.144-.552-.216-1.032-.216-.416 0-.796.052-1.14.156-.344.096-.668.24-.972.432l-.408-.936a3.597 3.597 0 0 1 1.188-.528c.472-.12.984-.18 1.536-.18.808 0 1.428.148 1.86.444.432.296.648.716.648 1.26 0 .368-.128.684-.384.948-.248.264-.584.428-1.008.492v-.168c.496.032.888.18 1.176.444.288.264.432.62.432 1.068 0 .552-.244.992-.732 1.32-.488.328-1.184.492-2.088.492Zm4.131-.12v-6.06h1.488v2.376h2.736v-2.376h1.488V319h-1.488v-2.532h-2.736V319h-1.488Zm9.806.12c-.528 0-.992-.124-1.392-.372-.4-.256-.712-.62-.936-1.092-.224-.472-.336-1.036-.336-1.692 0-.656.112-1.216.336-1.68.224-.472.536-.832.936-1.08.4-.256.864-.384 1.392-.384.512 0 .96.128 1.344.384.392.248.652.584.78 1.008h-.132l.132-1.272h1.44l-.072.756a12.12 12.12 0 0 0-.024.756V319h-1.488l-.012-1.248h.144a1.77 1.77 0 0 1-.78.996 2.439 2.439 0 0 1-1.332.372Zm.42-1.152c.472 0 .852-.164 1.14-.492.288-.336.432-.84.432-1.512s-.144-1.172-.432-1.5c-.288-.328-.668-.492-1.14-.492-.472 0-.852.164-1.14.492-.288.328-.432.828-.432 1.5s.14 1.176.42 1.512c.288.328.672.492 1.152.492Zm8.65 1.032v-2.208a3.58 3.58 0 0 1-.696.24c-.24.056-.492.084-.756.084-.888 0-1.552-.212-1.992-.636-.432-.424-.648-1.056-.648-1.896v-1.644h1.488v1.512c0 .512.112.884.336 1.116.224.224.584.336 1.08.336.232 0 .44-.024.624-.072a1.92 1.92 0 0 0 .528-.228v-2.664h1.488V319h-1.452Zm3.156 0v-6.06h1.356v4.584h-.36l3.444-4.584h1.236V319h-1.356v-4.596h.372L175.354 319h-1.236Zm7.382 0v-6.06h1.248l2.088 3.624 2.088-3.624h1.248V319h-1.32v-4.38h.276l-1.944 3.396h-.696l-1.944-3.396h.276V319h-1.32Zm11.163.12c-.624 0-1.164-.128-1.62-.384a2.7 2.7 0 0 1-1.068-1.092c-.248-.472-.372-1.032-.372-1.68 0-.648.124-1.204.372-1.668a2.7 2.7 0 0 1 1.068-1.092c.456-.256.996-.384 1.62-.384.624 0 1.164.128 1.62.384.464.256.82.62 1.068 1.092.256.464.384 1.02.384 1.668 0 .648-.128 1.208-.384 1.68a2.603 2.603 0 0 1-1.068 1.092c-.456.256-.996.384-1.62.384Zm0-1.152c.472 0 .848-.164 1.128-.492.28-.336.42-.84.42-1.512s-.14-1.172-.42-1.5c-.28-.328-.656-.492-1.128-.492-.472 0-.848.164-1.128.492-.28.328-.42.828-.42 1.5s.14 1.176.42 1.512c.28.328.656.492 1.128.492Zm7.47 1.152c-1.016 0-1.812-.28-2.388-.84-.576-.56-.864-1.328-.864-2.304 0-.632.124-1.184.372-1.656a2.75 2.75 0 0 1 1.032-1.104c.448-.264.968-.396 1.56-.396.584 0 1.072.124 1.464.372.392.248.688.596.888 1.044.208.448.312.972.312 1.572v.396h-4.416v-.792h3.348l-.204.168c0-.56-.12-.988-.36-1.284-.232-.296-.572-.444-1.02-.444-.496 0-.88.176-1.152.528-.264.352-.396.844-.396 1.476v.156c0 .656.16 1.148.48 1.476.328.32.788.48 1.38.48.344 0 .664-.044.96-.132.304-.096.592-.248.864-.456l.444 1.008a3.162 3.162 0 0 1-1.032.54c-.4.128-.824.192-1.272.192ZM107.815 332v-8.46h5.7v1.212h-4.212v2.34h3.936v1.224h-3.936v2.46h4.212V332h-5.7Zm7.137 0v-8.46h3.072c.968 0 1.784.168 2.448.504.672.328 1.18.808 1.524 1.44.344.624.516 1.384.516 2.28 0 .888-.172 1.648-.516 2.28a3.435 3.435 0 0 1-1.524 1.452c-.664.336-1.48.504-2.448.504h-3.072Zm1.548-1.284h1.428c1.024 0 1.784-.244 2.28-.732.496-.488.744-1.228.744-2.22 0-1-.248-1.74-.744-2.22-.496-.488-1.256-.732-2.28-.732H116.5v5.904Zm10.544 1.404c-.68 0-1.308-.084-1.884-.252a4.81 4.81 0 0 1-1.464-.72l.48-1.212c.272.192.556.356.852.492.296.128.612.228.948.3.336.064.692.096 1.068.096.632 0 1.088-.104 1.368-.312a.97.97 0 0 0 .42-.816c0-.296-.096-.52-.288-.672-.192-.16-.536-.292-1.032-.396l-1.356-.276c-.776-.16-1.356-.428-1.74-.804-.384-.376-.576-.88-.576-1.512 0-.528.14-.988.42-1.38.28-.392.672-.696 1.176-.912.504-.216 1.092-.324 1.764-.324a5.1 5.1 0 0 1 1.668.264c.512.168.94.412 1.284.732l-.48 1.152c-.344-.288-.72-.5-1.128-.636a4.09 4.09 0 0 0-1.368-.216c-.568 0-1.012.112-1.332.336a1.034 1.034 0 0 0-.468.9c0 .296.096.532.288.708.2.176.536.312 1.008.408l1.344.264c.8.16 1.392.424 1.776.792.384.36.576.848.576 1.464 0 .504-.136.948-.408 1.332-.272.376-.656.672-1.152.888-.496.208-1.084.312-1.764.312Zm7.735 0c-.68 0-1.308-.084-1.884-.252a4.81 4.81 0 0 1-1.464-.72l.48-1.212c.272.192.556.356.852.492.296.128.612.228.948.3.336.064.692.096 1.068.096.632 0 1.088-.104 1.368-.312a.97.97 0 0 0 .42-.816c0-.296-.096-.52-.288-.672-.192-.16-.536-.292-1.032-.396l-1.356-.276c-.776-.16-1.356-.428-1.74-.804-.384-.376-.576-.88-.576-1.512 0-.528.14-.988.42-1.38.28-.392.672-.696 1.176-.912.504-.216 1.092-.324 1.764-.324a5.1 5.1 0 0 1 1.668.264c.512.168.94.412 1.284.732l-.48 1.152c-.344-.288-.72-.5-1.128-.636a4.09 4.09 0 0 0-1.368-.216c-.568 0-1.012.112-1.332.336a1.034 1.034 0 0 0-.468.9c0 .296.096.532.288.708.2.176.536.312 1.008.408l1.344.264c.8.16 1.392.424 1.776.792.384.36.576.848.576 1.464 0 .504-.136.948-.408 1.332-.272.376-.656.672-1.152.888-.496.208-1.084.312-1.764.312ZM37.032 153v-8.46h1.032v7.032h-.276l5.304-7.032h.864V153h-1.044v-7.032h.276L37.872 153h-.84Zm11.509.108c-.6 0-1.12-.124-1.56-.372a2.667 2.667 0 0 1-1.032-1.092c-.24-.48-.36-1.048-.36-1.704 0-.648.124-1.2.372-1.656a2.528 2.528 0 0 1 1.032-1.056c.44-.248.956-.372 1.548-.372.392 0 .772.068 1.14.204.368.128.668.316.9.564l-.372.768a2.207 2.207 0 0 0-.768-.492 2.218 2.218 0 0 0-.828-.168c-.592 0-1.056.192-1.392.576-.336.376-.504.924-.504 1.644 0 .728.168 1.288.504 1.68.336.392.8.588 1.392.588.264 0 .536-.052.816-.156.28-.104.54-.268.78-.492l.372.756c-.24.256-.548.452-.924.588-.368.128-.74.192-1.116.192Zm2.661-.108 2.736-3.384v.54l-2.58-3.192h1.308l1.884 2.412h-.396l1.884-2.412h1.296l-2.544 3.168v-.492l2.7 3.36h-1.32l-2.016-2.58h.396L52.51 153h-1.308Zm9.853.108c-.592 0-1.104-.124-1.536-.372a2.63 2.63 0 0 1-1.008-1.08c-.24-.472-.36-1.032-.36-1.68 0-.64.12-1.192.36-1.656.24-.472.576-.832 1.008-1.08.432-.256.944-.384 1.536-.384.592 0 1.104.128 1.536.384.44.248.776.608 1.008 1.08.24.464.36 1.016.36 1.656 0 .648-.12 1.208-.36 1.68a2.53 2.53 0 0 1-1.008 1.08c-.432.248-.944.372-1.536.372Zm0-.864c.544 0 .98-.192 1.308-.576.328-.384.492-.948.492-1.692s-.164-1.304-.492-1.68c-.328-.376-.764-.564-1.308-.564-.552 0-.992.188-1.32.564-.32.376-.48.936-.48 1.68 0 .744.16 1.308.48 1.692.328.384.768.576 1.32.576Zm3.839 2.316v-2.412h.66c.272-.408.468-.888.588-1.44.128-.552.192-1.208.192-1.968v-1.776h4.332v5.184h.96v2.412h-.936V153h-4.848v1.56h-.948Zm1.692-2.4h3.06v-4.356h-2.352v1.128c0 .608-.06 1.2-.18 1.776-.12.568-.296 1.052-.528 1.452Zm6.303.84v-6.036h1.08v2.496h3.192v-2.496h1.08V153h-1.08v-2.676H73.97V153h-1.08Zm9.799.108c-.592 0-1.104-.124-1.536-.372a2.63 2.63 0 0 1-1.008-1.08c-.24-.472-.36-1.032-.36-1.68 0-.64.12-1.192.36-1.656.24-.472.576-.832 1.008-1.08.432-.256.944-.384 1.536-.384.592 0 1.104.128 1.536.384.44.248.776.608 1.008 1.08.24.464.36 1.016.36 1.656 0 .648-.12 1.208-.36 1.68a2.53 2.53 0 0 1-1.008 1.08c-.432.248-.944.372-1.536.372Zm0-.864c.544 0 .98-.192 1.308-.576.328-.384.492-.948.492-1.692s-.164-1.304-.492-1.68c-.328-.376-.764-.564-1.308-.564-.552 0-.992.188-1.32.564-.32.376-.48.936-.48 1.68 0 .744.16 1.308.48 1.692.328.384.768.576 1.32.576Zm7.247.864c-.96 0-1.72-.276-2.28-.828-.552-.552-.828-1.312-.828-2.28 0-.64.12-1.192.36-1.656a2.692 2.692 0 0 1 1.02-1.092c.432-.264.936-.396 1.512-.396.552 0 1.02.12 1.404.36.384.232.676.564.876.996.2.432.3.944.3 1.536v.36h-4.62v-.648h3.876l-.204.156c0-.624-.14-1.108-.42-1.452-.272-.344-.676-.516-1.212-.516-.584 0-1.036.204-1.356.612-.32.4-.48.948-.48 1.644v.108c0 .736.18 1.292.54 1.668.368.376.876.564 1.524.564.36 0 .696-.052 1.008-.156.312-.104.612-.276.9-.516l.36.756c-.272.248-.612.44-1.02.576-.4.136-.82.204-1.26.204ZM37.032 166v-8.46h5.472v.912h-4.392v2.796h4.116v.912h-4.116v2.928h4.392V166h-5.472Zm7.078 0v-8.46h2.868c.944 0 1.74.164 2.388.492a3.324 3.324 0 0 1 1.488 1.44c.336.624.504 1.388.504 2.292 0 .904-.168 1.672-.504 2.304a3.324 3.324 0 0 1-1.488 1.44c-.648.328-1.444.492-2.388.492H44.11Zm1.116-.948h1.668c1.128 0 1.964-.272 2.508-.816.544-.544.816-1.368.816-2.472 0-1.104-.272-1.924-.816-2.46-.544-.544-1.38-.816-2.508-.816h-1.668v6.564Zm10.68 1.056c-.68 0-1.292-.088-1.836-.264a4.419 4.419 0 0 1-1.416-.744l.384-.888c.28.208.564.384.852.528.288.136.596.24.924.312.336.064.7.096 1.092.096.696 0 1.208-.124 1.536-.372.336-.256.504-.592.504-1.008 0-.36-.116-.636-.348-.828-.232-.192-.636-.344-1.212-.456l-1.284-.264c-.776-.16-1.356-.42-1.74-.78-.376-.368-.564-.864-.564-1.488 0-.504.132-.944.396-1.32.272-.384.644-.68 1.116-.888.48-.208 1.04-.312 1.68-.312.592 0 1.14.088 1.644.264.504.176.928.436 1.272.78l-.384.852a3.354 3.354 0 0 0-1.164-.708 3.969 3.969 0 0 0-1.392-.228c-.632 0-1.132.136-1.5.408-.368.272-.552.64-.552 1.104 0 .368.116.66.348.876.232.208.616.368 1.152.48l1.284.252c.816.16 1.412.412 1.788.756.384.344.576.82.576 1.428 0 .48-.128.904-.384 1.272-.256.36-.62.64-1.092.84-.472.2-1.032.3-1.68.3Zm7.535 0c-.68 0-1.292-.088-1.836-.264a4.419 4.419 0 0 1-1.416-.744l.384-.888c.28.208.564.384.852.528.288.136.596.24.924.312.336.064.7.096 1.092.096.696 0 1.208-.124 1.536-.372.336-.256.504-.592.504-1.008 0-.36-.116-.636-.348-.828-.232-.192-.636-.344-1.212-.456l-1.284-.264c-.776-.16-1.356-.42-1.74-.78-.376-.368-.564-.864-.564-1.488 0-.504.132-.944.396-1.32.272-.384.644-.68 1.116-.888.48-.208 1.04-.312 1.68-.312.592 0 1.14.088 1.644.264.504.176.928.436 1.272.78l-.384.852a3.354 3.354 0 0 0-1.164-.708 3.969 3.969 0 0 0-1.392-.228c-.632 0-1.132.136-1.5.408-.368.272-.552.64-.552 1.104 0 .368.116.66.348.876.232.208.616.368 1.152.48l1.284.252c.816.16 1.412.412 1.788.756.384.344.576.82.576 1.428 0 .48-.128.904-.384 1.272-.256.36-.62.64-1.092.84-.472.2-1.032.3-1.68.3Z" fill="#1F2E4D"/><path d="M136 243.09c-.807 0-1.427-.31-1.86-.93-.433-.627-.65-1.523-.65-2.69 0-1.187.217-2.083.65-2.69.433-.613 1.053-.92 1.86-.92.813 0 1.433.307 1.86.92.433.607.65 1.5.65 2.68 0 1.173-.217 2.073-.65 2.7-.433.62-1.053.93-1.86.93Zm0-.79c.533 0 .93-.23 1.19-.69.267-.46.4-1.177.4-2.15 0-.973-.133-1.683-.4-2.13-.26-.453-.657-.68-1.19-.68-.527 0-.923.227-1.19.68-.267.447-.4 1.157-.4 2.13 0 .973.133 1.69.4 2.15.267.46.663.69 1.19.69Zm3.706-1.67v-.74h2.89v.74h-2.89Zm4.837 2.37v-.79h1.65v-5.47h.47l-1.97 1.22v-.91l1.76-1.1h.67v6.26h1.55v.79h-4.13Zm5.606 0v-.69l2.46-2.58c.32-.327.556-.64.71-.94.16-.3.24-.61.24-.93 0-.393-.124-.69-.37-.89-.24-.207-.594-.31-1.06-.31-.36 0-.7.067-1.02.2a2.936 2.936 0 0 0-.9.59l-.33-.71c.273-.267.616-.48 1.03-.64.42-.16.86-.24 1.32-.24.72 0 1.276.167 1.67.5.393.327.59.797.59 1.41 0 .447-.11.873-.33 1.28-.214.4-.53.813-.95 1.24l-2.15 2.18v-.26h3.72v.79h-4.63Zm8.563 0v-5.03h.9v2.08h2.66v-2.08h.9V243h-.9v-2.23h-2.66V243h-.9Zm8.335.09c-.8 0-1.433-.23-1.9-.69-.46-.46-.69-1.093-.69-1.9 0-.533.1-.993.3-1.38.207-.393.49-.697.85-.91.36-.22.78-.33 1.26-.33.46 0 .85.1 1.17.3.32.193.564.47.73.83.167.36.25.787.25 1.28v.3h-3.85v-.54h3.23l-.17.13c0-.52-.116-.923-.35-1.21-.226-.287-.563-.43-1.01-.43-.486 0-.863.17-1.13.51-.266.333-.4.79-.4 1.37v.09c0 .613.15 1.077.45 1.39.307.313.73.47 1.27.47.3 0 .58-.043.84-.13.26-.087.51-.23.75-.43l.3.63c-.226.207-.51.367-.85.48-.333.113-.683.17-1.05.17Zm2.717 1.21v-2.01h.55c.227-.34.39-.74.49-1.2.107-.46.16-1.007.16-1.64v-1.48h3.61v4.32h.8v2.01h-.78V243h-4.04v1.3h-.79Zm1.41-2h2.55v-3.63h-1.96v.94c0 .507-.05 1-.15 1.48-.1.473-.247.877-.44 1.21Zm72.676.7v-.69l2.46-2.58c.32-.327.557-.64.71-.94.16-.3.24-.61.24-.93 0-.393-.123-.69-.37-.89-.24-.207-.593-.31-1.06-.31-.36 0-.7.067-1.02.2a2.96 2.96 0 0 0-.9.59l-.33-.71c.273-.267.617-.48 1.03-.64.42-.16.86-.24 1.32-.24.72 0 1.277.167 1.67.5.393.327.59.797.59 1.41 0 .447-.11.873-.33 1.28-.213.4-.53.813-.95 1.24l-2.15 2.18v-.26h3.72v.79h-4.63Zm8.936 0v-1.49h-3.31v-.67l3.46-4.89h.76v4.82h1.06v.74h-1.06V243h-.91Zm0-2.23v-3.72h.23l-2.79 3.94v-.22h2.56Zm5.623 2.23v-5.03h.9v2.08h2.66v-2.08h.9V243h-.9v-2.23h-2.66V243h-.9Zm8.336.09c-.8 0-1.434-.23-1.9-.69-.46-.46-.69-1.093-.69-1.9 0-.533.1-.993.3-1.38a2.24 2.24 0 0 1 .85-.91c.36-.22.78-.33 1.26-.33.46 0 .85.1 1.17.3.32.193.563.47.73.83.166.36.25.787.25 1.28v.3h-3.85v-.54h3.23l-.17.13c0-.52-.117-.923-.35-1.21-.227-.287-.564-.43-1.01-.43-.487 0-.864.17-1.13.51-.267.333-.4.79-.4 1.37v.09c0 .613.15 1.077.45 1.39.306.313.73.47 1.27.47.3 0 .58-.043.84-.13.26-.087.51-.23.75-.43l.3.63c-.227.207-.51.367-.85.48-.334.113-.684.17-1.05.17Zm2.716 1.21v-2.01h.55c.227-.34.39-.74.49-1.2.107-.46.16-1.007.16-1.64v-1.48h3.61v4.32h.8v2.01h-.78V243h-4.04v1.3h-.79Zm1.41-2h2.55v-3.63h-1.96v.94c0 .507-.05 1-.15 1.48a4.07 4.07 0 0 1-.44 1.21Zm65.079.79c-.48 0-.94-.073-1.38-.22a3.05 3.05 0 0 1-1.09-.62l.33-.72c.327.267.663.46 1.01.58.347.12.713.18 1.1.18.513 0 .903-.107 1.17-.32.267-.22.4-.533.4-.94 0-.4-.137-.703-.41-.91-.267-.207-.66-.31-1.18-.31h-1.08v-.77h1.01c.44 0 .793-.113 1.06-.34.267-.227.4-.537.4-.93 0-.36-.123-.633-.37-.82-.24-.193-.583-.29-1.03-.29-.753 0-1.407.263-1.96.79l-.33-.71c.28-.28.627-.497 1.04-.65.413-.153.85-.23 1.31-.23.7 0 1.25.16 1.65.48.4.32.6.767.6 1.34 0 .433-.123.807-.37 1.12-.24.307-.57.51-.99.61v-.11c.493.087.877.29 1.15.61.273.313.41.707.41 1.18 0 .62-.22 1.11-.66 1.47-.433.353-1.03.53-1.79.53Zm6.276 0c-.86 0-1.523-.303-1.99-.91-.467-.607-.7-1.453-.7-2.54 0-.813.117-1.5.35-2.06.24-.56.58-.987 1.02-1.28.44-.293.967-.44 1.58-.44.373 0 .747.073 1.12.22.373.147.683.35.93.61l-.34.72a2.377 2.377 0 0 0-.82-.56 2.242 2.242 0 0 0-.9-.19c-.66 0-1.167.237-1.52.71-.347.467-.52 1.163-.52 2.09v.89h-.1c.047-.373.16-.693.34-.96.187-.267.423-.473.71-.62.293-.147.623-.22.99-.22.42 0 .793.097 1.12.29.327.193.583.457.77.79.187.333.28.72.28 1.16 0 .44-.1.837-.3 1.19-.2.347-.473.62-.82.82-.347.193-.747.29-1.2.29Zm-.05-.77c.293 0 .55-.063.77-.19.227-.127.4-.303.52-.53a1.57 1.57 0 0 0 .19-.78 1.57 1.57 0 0 0-.19-.78 1.283 1.283 0 0 0-.52-.53 1.514 1.514 0 0 0-.77-.19 1.57 1.57 0 0 0-.78.19c-.22.127-.393.303-.52.53a1.57 1.57 0 0 0-.19.78c0 .293.063.553.19.78.127.227.3.403.52.53.227.127.487.19.78.19Zm6.233.68v-5.03h.9v2.08h2.66v-2.08h.9V243h-.9v-2.23h-2.66V243h-.9Zm8.336.09c-.8 0-1.434-.23-1.9-.69-.46-.46-.69-1.093-.69-1.9 0-.533.1-.993.3-1.38a2.24 2.24 0 0 1 .85-.91c.36-.22.78-.33 1.26-.33.46 0 .85.1 1.17.3.32.193.563.47.73.83.166.36.25.787.25 1.28v.3h-3.85v-.54h3.23l-.17.13c0-.52-.117-.923-.35-1.21-.227-.287-.564-.43-1.01-.43-.487 0-.864.17-1.13.51-.267.333-.4.79-.4 1.37v.09c0 .613.15 1.077.45 1.39.306.313.73.47 1.27.47.3 0 .58-.043.84-.13.26-.087.51-.23.75-.43l.3.63c-.227.207-.51.367-.85.48-.334.113-.684.17-1.05.17Zm2.716 1.21v-2.01h.55c.227-.34.39-.74.49-1.2.107-.46.16-1.007.16-1.64v-1.48h3.61v4.32h.8v2.01h-.78V243h-4.04v1.3h-.79Zm1.41-2h2.55v-3.63h-1.96v.94c0 .507-.05 1-.15 1.48a4.07 4.07 0 0 1-.44 1.21Z" fill="#8E8E93"/><path d="M32.032 319v-8.46h1.116v3.696h4.92v-3.696h1.128V319h-1.128v-3.816h-4.92V319h-1.116Zm11.455.108c-.528 0-.992-.124-1.392-.372-.4-.248-.712-.608-.936-1.08-.224-.472-.336-1.032-.336-1.68 0-.648.112-1.204.336-1.668.224-.472.536-.832.936-1.08.4-.248.864-.372 1.392-.372.536 0 1 .136 1.392.408.4.264.664.628.792 1.092h-.144l.132-1.392h1.056l-.072.72c-.016.24-.024.476-.024.708V319h-1.092v-1.38h.132a1.91 1.91 0 0 1-.792 1.092c-.392.264-.852.396-1.38.396Zm.252-.864c.544 0 .98-.192 1.308-.576.328-.384.492-.948.492-1.692s-.164-1.304-.492-1.68c-.328-.376-.764-.564-1.308-.564s-.984.188-1.32.564c-.328.376-.492.936-.492 1.68 0 .744.164 1.308.492 1.692.328.384.768.576 1.32.576Zm8.678.756v-2.388c-.232.128-.48.228-.744.3a3.556 3.556 0 0 1-.84.096c-.864 0-1.503-.2-1.92-.6-.407-.408-.611-1.02-.611-1.836v-1.608h1.08v1.524c0 .568.128.98.384 1.236.264.248.672.372 1.224.372.28 0 .532-.028.755-.084.224-.064.44-.164.649-.3v-2.748h1.092V319h-1.069Zm5.285.108c-.528 0-.992-.124-1.392-.372-.4-.248-.712-.608-.936-1.08-.224-.472-.336-1.032-.336-1.68 0-.648.112-1.204.336-1.668.224-.472.536-.832.936-1.08.4-.248.864-.372 1.392-.372.536 0 1 .136 1.392.408.4.264.664.628.792 1.092h-.144l.132-1.392h1.056l-.072.72c-.016.24-.024.476-.024.708V319h-1.092v-1.38h.132a1.91 1.91 0 0 1-.792 1.092c-.392.264-.852.396-1.38.396Zm.252-.864c.544 0 .98-.192 1.308-.576.328-.384.492-.948.492-1.692s-.164-1.304-.492-1.68c-.328-.376-.764-.564-1.308-.564s-.984.188-1.32.564c-.328.376-.492.936-.492 1.68 0 .744.164 1.308.492 1.692.328.384.768.576 1.32.576Zm4.514.9-.384-.852a2.5 2.5 0 0 0 .696-.456c.192-.184.34-.416.444-.696a4.11 4.11 0 0 0 .24-1.044c.048-.416.072-.92.072-1.512v-1.62h4.452V319h-1.08v-5.184h-2.364v.792c0 .928-.072 1.696-.216 2.304-.136.6-.356 1.076-.66 1.428-.296.352-.696.62-1.2.804Zm9.97-.036c-.592 0-1.104-.124-1.536-.372a2.63 2.63 0 0 1-1.008-1.08c-.24-.472-.36-1.032-.36-1.68 0-.64.12-1.192.36-1.656.24-.472.576-.832 1.008-1.08.432-.256.944-.384 1.536-.384.592 0 1.104.128 1.536.384.44.248.776.608 1.008 1.08.24.464.36 1.016.36 1.656 0 .648-.12 1.208-.36 1.68a2.53 2.53 0 0 1-1.008 1.08c-.432.248-.944.372-1.536.372Zm0-.864c.544 0 .98-.192 1.308-.576.328-.384.492-.948.492-1.692s-.164-1.304-.492-1.68c-.328-.376-.764-.564-1.308-.564-.552 0-.992.188-1.32.564-.32.376-.48.936-.48 1.68 0 .744.16 1.308.48 1.692.328.384.768.576 1.32.576ZM32.032 332v-8.46h3.444c.912 0 1.612.192 2.1.576.488.384.732.924.732 1.62 0 .528-.16.968-.48 1.32-.312.352-.74.588-1.284.708v-.18c.624.072 1.108.288 1.452.648.352.36.528.836.528 1.428 0 .752-.252 1.332-.756 1.74-.504.4-1.216.6-2.136.6h-3.6Zm1.08-.888h2.412c.592 0 1.056-.112 1.392-.336.344-.232.516-.612.516-1.14 0-.536-.172-.916-.516-1.14-.336-.224-.8-.336-1.392-.336h-2.412v2.952Zm0-3.84h2.208c.632 0 1.104-.12 1.416-.36.312-.248.468-.604.468-1.068 0-.464-.156-.816-.468-1.056-.312-.248-.784-.372-1.416-.372h-2.208v2.856ZM40.223 332v-8.46h7.14V332H46.26v-7.524h-4.932V332h-1.104Zm9.2 0v-8.46h3.504c.904 0 1.596.216 2.076.648.48.432.72 1.028.72 1.788s-.24 1.36-.72 1.8c-.48.432-1.172.648-2.076.648h-2.388V332h-1.116Zm1.116-4.488h2.28c.592 0 1.04-.132 1.344-.396.304-.272.456-.652.456-1.14 0-.488-.152-.864-.456-1.128-.304-.264-.752-.396-1.344-.396h-2.28v3.06Zm10.362 4.596c-.848 0-1.576-.176-2.184-.528a3.483 3.483 0 0 1-1.38-1.5c-.32-.656-.48-1.428-.48-2.316 0-.888.16-1.656.48-2.304.32-.648.78-1.148 1.38-1.5.608-.352 1.336-.528 2.184-.528.608 0 1.148.092 1.62.276.472.176.884.436 1.236.78l-.408.9c-.384-.336-.764-.576-1.14-.72-.368-.152-.796-.228-1.284-.228-.936 0-1.652.288-2.148.864-.496.576-.744 1.396-.744 2.46s.248 1.888.744 2.472c.496.576 1.212.864 2.148.864.488 0 .916-.072 1.284-.216.376-.152.756-.396 1.14-.732l.408.888a3.613 3.613 0 0 1-1.248.792c-.472.184-1.008.276-1.608.276Zm-11.337 61c-.904 0-1.62-.284-2.148-.852-.528-.568-.792-1.4-.792-2.496v-1.044c0-1.12.236-2.024.708-2.712.472-.688 1.204-1.152 2.196-1.392l2.208-.552.324.888-2.448.588c-.44.104-.804.292-1.092.564a2.616 2.616 0 0 0-.648.96c-.136.368-.204.76-.204 1.176v.516H47.5c.096-.36.248-.672.456-.936.216-.264.484-.464.804-.6.32-.144.672-.216 1.056-.216.52 0 .976.12 1.368.36.392.24.696.588.912 1.044.224.448.336.984.336 1.608 0 .64-.12 1.192-.36 1.656-.232.464-.564.82-.996 1.068-.432.248-.936.372-1.512.372Zm-.036-.864c.56 0 1-.184 1.32-.552.328-.368.492-.916.492-1.644 0-.712-.164-1.256-.492-1.632-.32-.376-.76-.564-1.32-.564s-1.004.184-1.332.552c-.32.368-.48.892-.48 1.572 0 .76.16 1.328.48 1.704.328.376.772.564 1.332.564Zm7.235.864c-.96 0-1.72-.276-2.28-.828-.552-.552-.828-1.312-.828-2.28 0-.64.12-1.192.36-1.656a2.692 2.692 0 0 1 1.02-1.092c.432-.264.936-.396 1.512-.396.552 0 1.02.12 1.404.36.384.232.676.564.876.996.2.432.3.944.3 1.536v.36h-4.62v-.648h3.876l-.204.156c0-.624-.14-1.108-.42-1.452-.272-.344-.676-.516-1.212-.516-.584 0-1.036.204-1.356.612-.32.4-.48.948-.48 1.644v.108c0 .736.18 1.292.54 1.668.368.376.876.564 1.524.564.36 0 .696-.052 1.008-.156.312-.104.612-.276.9-.516l.36.756c-.272.248-.612.44-1.02.576-.4.136-.82.204-1.26.204Zm5.936 0c-.528 0-1.02-.068-1.476-.204-.456-.136-.832-.328-1.128-.576l.36-.756c.296.24.632.42 1.008.54.376.12.784.18 1.224.18.576 0 .992-.084 1.248-.252a.855.855 0 0 0 .396-.756c0-.312-.108-.548-.324-.708-.216-.16-.532-.24-.948-.24h-1.464v-.792h1.332c.376 0 .668-.08.876-.24a.82.82 0 0 0 .324-.684.804.804 0 0 0-.36-.696c-.24-.176-.608-.264-1.104-.264a3.667 3.667 0 0 0-2.124.648l-.348-.708a3.23 3.23 0 0 1 1.152-.564c.44-.12.92-.18 1.44-.18.76 0 1.34.148 1.74.444.408.288.612.7.612 1.236 0 .376-.128.7-.384.972-.256.264-.596.424-1.02.48v-.156c.48.024.868.172 1.164.444.296.264.444.616.444 1.056 0 .536-.224.968-.672 1.296-.448.32-1.104.48-1.968.48Zm9.844 0c-.592 0-1.104-.124-1.536-.372a2.63 2.63 0 0 1-1.008-1.08c-.24-.472-.36-1.032-.36-1.68 0-.64.12-1.192.36-1.656.24-.472.576-.832 1.008-1.08.432-.256.944-.384 1.536-.384.592 0 1.104.128 1.536.384.44.248.776.608 1.008 1.08.24.464.36 1.016.36 1.656 0 .648-.12 1.208-.36 1.68a2.53 2.53 0 0 1-1.008 1.08c-.432.248-.944.372-1.536.372Zm0-.864c.544 0 .98-.192 1.308-.576.328-.384.492-.948.492-1.692s-.164-1.304-.492-1.68c-.328-.376-.764-.564-1.308-.564-.552 0-.992.188-1.32.564-.32.376-.48.936-.48 1.68 0 .744.16 1.308.48 1.692.328.384.768.576 1.32.576Zm7.091.864c-.904 0-1.62-.284-2.148-.852-.528-.568-.792-1.4-.792-2.496v-1.044c0-1.12.236-2.024.708-2.712.472-.688 1.204-1.152 2.196-1.392l2.208-.552.324.888-2.448.588c-.44.104-.804.292-1.092.564a2.616 2.616 0 0 0-.648.96c-.136.368-.204.76-.204 1.176v.516h-.168c.096-.36.248-.672.456-.936.216-.264.484-.464.804-.6.32-.144.672-.216 1.056-.216.52 0 .976.12 1.368.36.392.24.696.588.912 1.044.224.448.336.984.336 1.608 0 .64-.12 1.192-.36 1.656-.232.464-.564.82-.996 1.068-.432.248-.936.372-1.512.372Zm-.036-.864c.56 0 1-.184 1.32-.552.328-.368.492-.916.492-1.644 0-.712-.164-1.256-.492-1.632-.32-.376-.76-.564-1.32-.564s-1.004.184-1.332.552c-.32.368-.48.892-.48 1.572 0 .76.16 1.328.48 1.704.328.376.772.564 1.332.564Zm7.031.864c-.592 0-1.104-.124-1.536-.372a2.63 2.63 0 0 1-1.008-1.08c-.24-.472-.36-1.032-.36-1.68 0-.64.12-1.192.36-1.656.24-.472.576-.832 1.008-1.08.432-.256.944-.384 1.536-.384.592 0 1.104.128 1.536.384.44.248.776.608 1.008 1.08.24.464.36 1.016.36 1.656 0 .648-.12 1.208-.36 1.68a2.53 2.53 0 0 1-1.008 1.08c-.432.248-.944.372-1.536.372Zm0-.864c.544 0 .98-.192 1.308-.576.328-.384.492-.948.492-1.692s-.164-1.304-.492-1.68c-.328-.376-.764-.564-1.308-.564-.552 0-.992.188-1.32.564-.32.376-.48.936-.48 1.68 0 .744.16 1.308.48 1.692.328.384.768.576 1.32.576Zm7.091.864c-.6 0-1.12-.124-1.56-.372a2.667 2.667 0 0 1-1.032-1.092c-.24-.48-.36-1.048-.36-1.704 0-.648.124-1.2.372-1.656a2.528 2.528 0 0 1 1.032-1.056c.44-.248.956-.372 1.548-.372.392 0 .772.068 1.14.204.368.128.668.316.9.564l-.372.768a2.207 2.207 0 0 0-.768-.492 2.218 2.218 0 0 0-.828-.168c-.592 0-1.056.192-1.392.576-.336.376-.504.924-.504 1.644 0 .728.168 1.288.504 1.68.336.392.8.588 1.392.588.264 0 .536-.052.816-.156.28-.104.54-.268.78-.492l.372.756c-.24.256-.548.452-.924.588-.368.128-.74.192-1.116.192Zm4.762-.108v-5.16H96.31v-.876h5.424v.876h-2.172V393h-1.08Zm4.283 2.592v-7.2a10.643 10.643 0 0 0-.096-1.428h1.056l.132 1.392h-.132c.12-.464.376-.828.768-1.092.392-.272.86-.408 1.404-.408.536 0 1.004.124 1.404.372.4.248.708.608.924 1.08.224.464.336 1.02.336 1.668 0 .648-.112 1.208-.336 1.68-.216.472-.524.832-.924 1.08-.4.248-.868.372-1.404.372-.536 0-1-.132-1.392-.396a2.002 2.002 0 0 1-.78-1.092h.132v3.972h-1.092Zm2.88-3.348c.552 0 .992-.192 1.32-.576.328-.384.492-.948.492-1.692s-.164-1.304-.492-1.68c-.328-.376-.768-.564-1.32-.564s-.992.188-1.32.564c-.32.376-.48.936-.48 1.68 0 .744.16 1.308.48 1.692.328.384.768.576 1.32.576Zm7.263.864c-.96 0-1.72-.276-2.28-.828-.552-.552-.828-1.312-.828-2.28 0-.64.12-1.192.36-1.656a2.692 2.692 0 0 1 1.02-1.092c.432-.264.936-.396 1.512-.396.552 0 1.02.12 1.404.36.384.232.676.564.876.996.2.432.3.944.3 1.536v.36h-4.62v-.648h3.876l-.204.156c0-.624-.14-1.108-.42-1.452-.272-.344-.676-.516-1.212-.516-.584 0-1.036.204-1.356.612-.32.4-.48.948-.48 1.644v.108c0 .736.18 1.292.54 1.668.368.376.876.564 1.524.564.36 0 .696-.052 1.008-.156.312-.104.612-.276.9-.516l.36.756c-.272.248-.612.44-1.02.576-.4.136-.82.204-1.26.204Zm3.883-.108v-6.036h1.08v2.496h3.192v-2.496h1.08V393h-1.08v-2.676h-3.192V393h-1.08Zm7.219 0v-6.036h.996v5.004h-.324l3.744-5.004h.912V393h-.996v-5.016h.336L124.922 393h-.912Zm7.196 0v-6.036h.996v5.004h-.324l3.744-5.004h.912V393h-.996v-5.016h.336L132.118 393h-.912Zm2.664-6.588c-.344 0-.66-.06-.948-.18a2.11 2.11 0 0 1-.744-.516c-.2-.232-.352-.52-.456-.864l.624-.228c.144.384.34.668.588.852.248.176.56.264.936.264.384 0 .7-.084.948-.252.248-.168.464-.452.648-.852l.588.216c-.2.544-.492.94-.876 1.188a2.32 2.32 0 0 1-1.308.372Z" fill="#1F2E4D"/><path d="M95.23 291.09c-.86 0-1.523-.303-1.99-.91-.467-.607-.7-1.453-.7-2.54 0-.813.117-1.5.35-2.06.24-.56.58-.987 1.02-1.28.44-.293.967-.44 1.58-.44.373 0 .747.073 1.12.22.373.147.683.35.93.61l-.34.72a2.374 2.374 0 0 0-.82-.56 2.244 2.244 0 0 0-.9-.19c-.66 0-1.167.237-1.52.71-.347.467-.52 1.163-.52 2.09v.89h-.1c.047-.373.16-.693.34-.96.187-.267.423-.473.71-.62.293-.147.623-.22.99-.22.42 0 .793.097 1.12.29.327.193.583.457.77.79.187.333.28.72.28 1.16 0 .44-.1.837-.3 1.19-.2.347-.473.62-.82.82-.347.193-.747.29-1.2.29Zm-.05-.77c.293 0 .55-.063.77-.19.227-.127.4-.303.52-.53a1.57 1.57 0 0 0 .19-.78 1.57 1.57 0 0 0-.19-.78 1.284 1.284 0 0 0-.52-.53 1.513 1.513 0 0 0-.77-.19 1.57 1.57 0 0 0-.78.19 1.37 1.37 0 0 0-.52.53 1.57 1.57 0 0 0-.19.78c0 .293.063.553.19.78.127.227.3.403.52.53.227.127.487.19.78.19Zm6.233.68v-5.03h.76l1.85 3.29 1.86-3.29h.75V291h-.8v-4.01h.22l-1.8 3.2h-.45l-1.8-3.21h.21V291h-.8Zm9.097.09c-.8 0-1.433-.23-1.9-.69-.46-.46-.69-1.093-.69-1.9 0-.533.1-.993.3-1.38.207-.393.49-.697.85-.91.36-.22.78-.33 1.26-.33.46 0 .85.1 1.17.3.32.193.563.47.73.83.167.36.25.787.25 1.28v.3h-3.85v-.54h3.23l-.17.13c0-.52-.117-.923-.35-1.21-.227-.287-.563-.43-1.01-.43-.487 0-.863.17-1.13.51-.267.333-.4.79-.4 1.37v.09c0 .613.15 1.077.45 1.39.307.313.73.47 1.27.47.3 0 .58-.043.84-.13.26-.087.51-.23.75-.43l.3.63c-.227.207-.51.367-.85.48-.333.113-.683.17-1.05.17Zm5.427 0c-.5 0-.934-.103-1.3-.31a2.216 2.216 0 0 1-.86-.91c-.2-.4-.3-.873-.3-1.42 0-.54.103-1 .31-1.38.206-.387.493-.68.86-.88.366-.207.796-.31 1.29-.31.326 0 .643.057.95.17.306.107.556.263.75.47l-.31.64a1.849 1.849 0 0 0-.64-.41 1.86 1.86 0 0 0-.69-.14c-.494 0-.88.16-1.16.48-.28.313-.42.77-.42 1.37 0 .607.14 1.073.42 1.4.28.327.666.49 1.16.49.22 0 .446-.043.68-.13.233-.087.45-.223.65-.41l.31.63a1.94 1.94 0 0 1-.77.49c-.307.107-.617.16-.93.16Zm2.488-.09.79-1.37c.127-.22.287-.397.48-.53.193-.14.397-.21.61-.21h.16l-.01.09c-.567 0-1.01-.127-1.33-.38-.32-.26-.48-.633-.48-1.12 0-.48.157-.85.47-1.11.313-.267.78-.4 1.4-.4h2.29V291h-.84v-1.9h-.72c-.26 0-.483.067-.67.2-.187.127-.34.297-.46.51l-.68 1.19h-1.01Zm2.25-2.53h1.29v-1.88h-1.29c-.393 0-.687.083-.88.25-.187.167-.28.397-.28.69 0 .3.093.533.28.7.193.16.487.24.88.24Zm8.037 3.83V291h-4.35v-5.03h.9v4.32h2.52v-4.32h.9v4.32h.8v2.01h-.77Zm4.132-1.21c-.8 0-1.433-.23-1.9-.69-.46-.46-.69-1.093-.69-1.9 0-.533.1-.993.3-1.38.207-.393.49-.697.85-.91.36-.22.78-.33 1.26-.33.46 0 .85.1 1.17.3.32.193.563.47.73.83.167.36.25.787.25 1.28v.3h-3.85v-.54h3.23l-.17.13c0-.52-.117-.923-.35-1.21-.227-.287-.563-.43-1.01-.43-.487 0-.863.17-1.13.51-.267.333-.4.79-.4 1.37v.09c0 .613.15 1.077.45 1.39.307.313.73.47 1.27.47.3 0 .58-.043.84-.13.26-.087.51-.23.75-.43l.3.63c-.227.207-.51.367-.85.48-.333.113-.683.17-1.05.17Zm3.237-.09v-5.03h2.48c.593 0 1.033.113 1.32.34.293.227.44.553.44.98 0 .32-.11.59-.33.81-.22.213-.507.343-.86.39v-.13c.42.013.75.137.99.37.246.227.37.52.37.88 0 .427-.164.767-.49 1.02-.32.247-.77.37-1.35.37h-2.57Zm.86-.6h1.65c.34 0 .6-.07.78-.21.18-.147.27-.353.27-.62 0-.273-.09-.48-.27-.62-.18-.14-.44-.21-.78-.21h-1.65v1.66Zm0-2.26h1.54c.313 0 .556-.07.73-.21a.705.705 0 0 0 .26-.58c0-.253-.087-.447-.26-.58-.174-.133-.417-.2-.73-.2h-1.54v1.57Zm6.891 4.16v-2.01h.55c.227-.34.39-.74.49-1.2.107-.46.16-1.007.16-1.64v-1.48h3.61v4.32h.8v2.01h-.78V291h-4.04v1.3h-.79Zm1.41-2h2.55v-3.63h-1.96v.94c0 .507-.05 1-.15 1.48a4.07 4.07 0 0 1-.44 1.21Zm7.403.79c-.493 0-.92-.103-1.28-.31a2.187 2.187 0 0 1-.84-.9c-.2-.393-.3-.86-.3-1.4 0-.533.1-.993.3-1.38.2-.393.48-.693.84-.9.36-.213.787-.32 1.28-.32s.92.107 1.28.32c.367.207.647.507.84.9.2.387.3.847.3 1.38 0 .54-.1 1.007-.3 1.4a2.1 2.1 0 0 1-.84.9c-.36.207-.787.31-1.28.31Zm0-.72c.453 0 .817-.16 1.09-.48.273-.32.41-.79.41-1.41 0-.62-.137-1.087-.41-1.4-.273-.313-.637-.47-1.09-.47-.46 0-.827.157-1.1.47-.267.313-.4.78-.4 1.4 0 .62.133 1.09.4 1.41.273.32.64.48 1.1.48Zm5.836 1.93v-2.01h.55c.226-.34.39-.74.49-1.2.106-.46.16-1.007.16-1.64v-1.48h3.61v4.32h.8v2.01h-.78V291h-4.04v1.3h-.79Zm1.41-2h2.55v-3.63h-1.96v.94c0 .507-.05 1-.15 1.48-.1.473-.247.877-.44 1.21Zm5.252.7v-5.03h.83v4.17h-.27l3.12-4.17h.76V291h-.83v-4.18h.28l-3.13 4.18h-.76Zm7.946.09c-.44 0-.826-.103-1.16-.31a2.079 2.079 0 0 1-.78-.9c-.186-.393-.28-.86-.28-1.4 0-.54.094-1.003.28-1.39.187-.393.447-.693.78-.9.334-.207.72-.31 1.16-.31.447 0 .834.113 1.16.34.334.22.554.523.66.91h-.12l.11-1.16h.88l-.06.6c-.013.2-.02.397-.02.59V291h-.91v-1.15h.11c-.106.38-.326.683-.66.91-.326.22-.71.33-1.15.33Zm.21-.72c.454 0 .817-.16 1.09-.48.274-.32.41-.79.41-1.41 0-.62-.136-1.087-.41-1.4-.273-.313-.636-.47-1.09-.47-.453 0-.82.157-1.1.47-.273.313-.41.78-.41 1.4 0 .62.137 1.09.41 1.41.274.32.64.48 1.1.48Zm4.002.63v-5.03h3.57v.73h-2.66v4.3h-.91Zm4.502 0v-5.03h.9v2.08h2.66v-2.08h.9V291h-.9v-2.23h-2.66V291h-.9Zm8.166.09c-.493 0-.92-.103-1.28-.31a2.187 2.187 0 0 1-.84-.9c-.2-.393-.3-.86-.3-1.4 0-.533.1-.993.3-1.38.2-.393.48-.693.84-.9.36-.213.787-.32 1.28-.32s.92.107 1.28.32c.367.207.647.507.84.9.2.387.3.847.3 1.38 0 .54-.1 1.007-.3 1.4a2.1 2.1 0 0 1-.84.9c-.36.207-.787.31-1.28.31Zm0-.72c.453 0 .817-.16 1.09-.48.273-.32.41-.79.41-1.41 0-.62-.137-1.087-.41-1.4-.273-.313-.637-.47-1.09-.47-.46 0-.827.157-1.1.47-.267.313-.4.78-.4 1.4 0 .62.133 1.09.4 1.41.273.32.64.48 1.1.48Zm5.429.72c-.44 0-.85-.057-1.23-.17a2.595 2.595 0 0 1-.94-.48l.3-.63c.247.2.527.35.84.45.314.1.654.15 1.02.15.48 0 .827-.07 1.04-.21a.713.713 0 0 0 .33-.63c0-.26-.09-.457-.27-.59-.18-.133-.443-.2-.79-.2h-1.22v-.66h1.11c.314 0 .557-.067.73-.2.18-.14.27-.33.27-.57a.67.67 0 0 0-.3-.58c-.2-.147-.506-.22-.92-.22a3.07 3.07 0 0 0-1.77.54l-.29-.59c.274-.213.594-.37.96-.47.367-.1.767-.15 1.2-.15.634 0 1.117.123 1.45.37.34.24.51.583.51 1.03 0 .313-.106.583-.32.81-.213.22-.496.353-.85.4v-.13c.4.02.724.143.97.37.247.22.37.513.37.88 0 .447-.186.807-.56 1.08-.373.267-.92.4-1.64.4Zm5.367 0c-.44 0-.827-.103-1.16-.31a2.079 2.079 0 0 1-.78-.9c-.187-.393-.28-.86-.28-1.4 0-.54.093-1.003.28-1.39.187-.393.447-.693.78-.9.333-.207.72-.31 1.16-.31.447 0 .833.113 1.16.34.333.22.553.523.66.91h-.12l.11-1.16h.88l-.06.6c-.013.2-.02.397-.02.59V291h-.91v-1.15h.11c-.107.38-.327.683-.66.91-.327.22-.71.33-1.15.33Zm.21-.72c.453 0 .817-.16 1.09-.48.273-.32.41-.79.41-1.41 0-.62-.137-1.087-.41-1.4-.273-.313-.637-.47-1.09-.47-.453 0-.82.157-1.1.47-.273.313-.41.78-.41 1.4 0 .62.137 1.09.41 1.41.273.32.64.48 1.1.48Zm6.719.63v-7.05h2.87c.76 0 1.343.16 1.75.48.407.32.61.77.61 1.35 0 .44-.133.807-.4 1.1-.26.293-.617.49-1.07.59v-.15c.52.06.923.24 1.21.54.293.3.44.697.44 1.19 0 .627-.21 1.11-.63 1.45-.42.333-1.013.5-1.78.5h-3Zm.9-.74h2.01c.493 0 .88-.093 1.16-.28.287-.193.43-.51.43-.95 0-.447-.143-.763-.43-.95-.28-.187-.667-.28-1.16-.28h-2.01v2.46Zm0-3.2h1.84c.527 0 .92-.1 1.18-.3.26-.207.39-.503.39-.89s-.13-.68-.39-.88c-.26-.207-.653-.31-1.18-.31h-1.84v2.38Zm5.926 3.94v-7.05h5.95V291h-.92v-6.27h-4.11V291h-.92Zm7.666 0v-7.05h2.92c.754 0 1.33.18 1.73.54.4.36.6.857.6 1.49s-.2 1.133-.6 1.5c-.4.36-.976.54-1.73.54h-1.99V291h-.93Zm.93-3.74h1.9c.494 0 .867-.11 1.12-.33.254-.227.38-.543.38-.95 0-.407-.126-.72-.38-.94-.253-.22-.626-.33-1.12-.33h-1.9v2.55Zm8.635 3.83c-.706 0-1.313-.147-1.82-.44-.5-.293-.883-.71-1.15-1.25-.266-.547-.4-1.19-.4-1.93s.134-1.38.4-1.92c.267-.54.65-.957 1.15-1.25.507-.293 1.114-.44 1.82-.44.507 0 .957.077 1.35.23.394.147.737.363 1.03.65l-.34.75a3.2 3.2 0 0 0-.95-.6 2.778 2.778 0 0 0-1.07-.19c-.78 0-1.376.24-1.79.72-.413.48-.62 1.163-.62 2.05 0 .887.207 1.573.62 2.06.414.48 1.01.72 1.79.72.407 0 .764-.06 1.07-.18.314-.127.63-.33.95-.61l.34.74c-.293.287-.64.507-1.04.66-.393.153-.84.23-1.34.23Zm-93.231-74c-.373 0-.747-.077-1.12-.23a2.725 2.725 0 0 1-.93-.61l.34-.71c.247.247.517.433.81.56.3.127.603.19.91.19.653 0 1.157-.233 1.51-.7.353-.473.53-1.173.53-2.1v-.89h.1a2.01 2.01 0 0 1-.35.96 1.926 1.926 0 0 1-.71.62c-.287.147-.613.22-.98.22-.42 0-.793-.097-1.12-.29a2.086 2.086 0 0 1-.77-.79 2.368 2.368 0 0 1-.28-1.16c0-.447.097-.843.29-1.19.2-.347.473-.617.82-.81.347-.2.747-.3 1.2-.3.867 0 1.533.303 2 .91.467.6.7 1.447.7 2.54 0 .807-.12 1.493-.36 2.06-.233.56-.57.987-1.01 1.28-.44.293-.967.44-1.58.44Zm.31-3.46c.293 0 .55-.063.77-.19a1.35 1.35 0 0 0 .53-.53 1.57 1.57 0 0 0 .19-.78c0-.3-.063-.56-.19-.78a1.35 1.35 0 0 0-.53-.53 1.46 1.46 0 0 0-.77-.2c-.293 0-.553.067-.78.2-.22.127-.393.303-.52.53-.12.22-.18.48-.18.78 0 .293.06.553.18.78.127.227.3.403.52.53.227.127.487.19.78.19Zm6.583 3.37v-5.03h.76l1.85 3.29 1.86-3.29h.75V217h-.8v-4.01h.22l-1.8 3.2h-.45l-1.8-3.21h.21V217h-.8Zm9.097.09c-.8 0-1.433-.23-1.9-.69-.46-.46-.69-1.093-.69-1.9 0-.533.1-.993.3-1.38.207-.393.49-.697.85-.91.36-.22.78-.33 1.26-.33.46 0 .85.1 1.17.3.32.193.563.47.73.83.167.36.25.787.25 1.28v.3h-3.85v-.54h3.23l-.17.13c0-.52-.117-.923-.35-1.21-.227-.287-.563-.43-1.01-.43-.487 0-.863.17-1.13.51-.267.333-.4.79-.4 1.37v.09c0 .613.15 1.077.45 1.39.307.313.73.47 1.27.47.3 0 .58-.043.84-.13.26-.087.51-.23.75-.43l.3.63c-.227.207-.51.367-.85.48-.333.113-.683.17-1.05.17Zm5.427 0c-.5 0-.934-.103-1.3-.31a2.216 2.216 0 0 1-.86-.91c-.2-.4-.3-.873-.3-1.42 0-.54.103-1 .31-1.38.206-.387.493-.68.86-.88.366-.207.796-.31 1.29-.31.326 0 .643.057.95.17.306.107.556.263.75.47l-.31.64a1.849 1.849 0 0 0-.64-.41 1.86 1.86 0 0 0-.69-.14c-.494 0-.88.16-1.16.48-.28.313-.42.77-.42 1.37 0 .607.14 1.073.42 1.4.28.327.666.49 1.16.49.22 0 .446-.043.68-.13.233-.087.45-.223.65-.41l.31.63a1.94 1.94 0 0 1-.77.49c-.307.107-.617.16-.93.16Zm2.488-.09.79-1.37c.127-.22.287-.397.48-.53.193-.14.397-.21.61-.21h.16l-.01.09c-.567 0-1.01-.127-1.33-.38-.32-.26-.48-.633-.48-1.12 0-.48.157-.85.47-1.11.313-.267.78-.4 1.4-.4h2.29V217h-.84v-1.9h-.72c-.26 0-.483.067-.67.2-.187.127-.34.297-.46.51l-.68 1.19h-1.01Zm2.25-2.53h1.29v-1.88h-1.29c-.393 0-.687.083-.88.25-.187.167-.28.397-.28.69 0 .3.093.533.28.7.193.16.487.24.88.24Zm8.037 3.83V217h-4.35v-5.03h.9v4.32h2.52v-4.32h.9v4.32h.8v2.01h-.77Zm4.132-1.21c-.8 0-1.433-.23-1.9-.69-.46-.46-.69-1.093-.69-1.9 0-.533.1-.993.3-1.38.207-.393.49-.697.85-.91.36-.22.78-.33 1.26-.33.46 0 .85.1 1.17.3.32.193.563.47.73.83.167.36.25.787.25 1.28v.3h-3.85v-.54h3.23l-.17.13c0-.52-.117-.923-.35-1.21-.227-.287-.563-.43-1.01-.43-.487 0-.863.17-1.13.51-.267.333-.4.79-.4 1.37v.09c0 .613.15 1.077.45 1.39.307.313.73.47 1.27.47.3 0 .58-.043.84-.13.26-.087.51-.23.75-.43l.3.63c-.227.207-.51.367-.85.48-.333.113-.683.17-1.05.17Zm3.237-.09v-5.03h2.48c.593 0 1.033.113 1.32.34.293.227.44.553.44.98 0 .32-.11.59-.33.81-.22.213-.507.343-.86.39v-.13c.42.013.75.137.99.37.246.227.37.52.37.88 0 .427-.164.767-.49 1.02-.32.247-.77.37-1.35.37h-2.57Zm.86-.6h1.65c.34 0 .6-.07.78-.21.18-.147.27-.353.27-.62 0-.273-.09-.48-.27-.62-.18-.14-.44-.21-.78-.21h-1.65v1.66Zm0-2.26h1.54c.313 0 .556-.07.73-.21a.705.705 0 0 0 .26-.58c0-.253-.087-.447-.26-.58-.174-.133-.417-.2-.73-.2h-1.54v1.57Zm6.891 4.16v-2.01h.55c.227-.34.39-.74.49-1.2.107-.46.16-1.007.16-1.64v-1.48h3.61v4.32h.8v2.01h-.78V217h-4.04v1.3h-.79Zm1.41-2h2.55v-3.63h-1.96v.94c0 .507-.05 1-.15 1.48a4.07 4.07 0 0 1-.44 1.21Zm7.403.79c-.493 0-.92-.103-1.28-.31a2.187 2.187 0 0 1-.84-.9c-.2-.393-.3-.86-.3-1.4 0-.533.1-.993.3-1.38.2-.393.48-.693.84-.9.36-.213.787-.32 1.28-.32s.92.107 1.28.32c.367.207.647.507.84.9.2.387.3.847.3 1.38 0 .54-.1 1.007-.3 1.4a2.1 2.1 0 0 1-.84.9c-.36.207-.787.31-1.28.31Zm0-.72c.453 0 .817-.16 1.09-.48.273-.32.41-.79.41-1.41 0-.62-.137-1.087-.41-1.4-.273-.313-.637-.47-1.09-.47-.46 0-.827.157-1.1.47-.267.313-.4.78-.4 1.4 0 .62.133 1.09.4 1.41.273.32.64.48 1.1.48Zm6.356.63v-5.03h4.43V217h-.9v-4.32h-2.63V217h-.9Zm8.136.09c-.493 0-.92-.103-1.28-.31a2.187 2.187 0 0 1-.84-.9c-.2-.393-.3-.86-.3-1.4 0-.533.1-.993.3-1.38.2-.393.48-.693.84-.9.36-.213.787-.32 1.28-.32s.92.107 1.28.32c.367.207.647.507.84.9.2.387.3.847.3 1.38 0 .54-.1 1.007-.3 1.4a2.1 2.1 0 0 1-.84.9c-.36.207-.787.31-1.28.31Zm0-.72c.453 0 .817-.16 1.09-.48.273-.32.41-.79.41-1.41 0-.62-.137-1.087-.41-1.4-.273-.313-.637-.47-1.09-.47-.46 0-.827.157-1.1.47-.267.313-.4.78-.4 1.4 0 .62.133 1.09.4 1.41.273.32.64.48 1.1.48Zm5.909.72c-.5 0-.933-.103-1.3-.31a2.23 2.23 0 0 1-.86-.91c-.2-.4-.3-.873-.3-1.42 0-.54.104-1 .31-1.38a2.11 2.11 0 0 1 .86-.88c.367-.207.797-.31 1.29-.31.327 0 .644.057.95.17.307.107.557.263.75.47l-.31.64a1.83 1.83 0 0 0-.64-.41 1.853 1.853 0 0 0-.69-.14c-.493 0-.88.16-1.16.48-.28.313-.42.77-.42 1.37 0 .607.14 1.073.42 1.4.28.327.667.49 1.16.49.22 0 .447-.043.68-.13.234-.087.45-.223.65-.41l.31.63c-.2.213-.456.377-.77.49-.306.107-.616.16-.93.16Zm3.968-.09v-4.3h-1.81v-.73h4.52v.73h-1.81v4.3h-.9Zm5.489.09c-.44 0-.826-.103-1.16-.31a2.079 2.079 0 0 1-.78-.9c-.186-.393-.28-.86-.28-1.4 0-.54.094-1.003.28-1.39.187-.393.447-.693.78-.9.334-.207.72-.31 1.16-.31.447 0 .834.113 1.16.34.334.22.554.523.66.91h-.12l.11-1.16h.88l-.06.6c-.013.2-.02.397-.02.59V217h-.91v-1.15h.11c-.106.38-.326.683-.66.91-.326.22-.71.33-1.15.33Zm.21-.72c.454 0 .817-.16 1.09-.48.274-.32.41-.79.41-1.41 0-.62-.136-1.087-.41-1.4-.273-.313-.636-.47-1.09-.47-.453 0-.82.157-1.1.47-.273.313-.41.78-.41 1.4 0 .62.137 1.09.41 1.41.274.32.64.48 1.1.48Zm4.003.63v-5.03h.9v2.08h2.66v-2.08h.9V217h-.9v-2.23h-2.66V217h-.9Zm8.165.09c-.493 0-.92-.103-1.28-.31a2.187 2.187 0 0 1-.84-.9c-.2-.393-.3-.86-.3-1.4 0-.533.1-.993.3-1.38.2-.393.48-.693.84-.9.36-.213.787-.32 1.28-.32.494 0 .92.107 1.28.32.367.207.647.507.84.9.2.387.3.847.3 1.38 0 .54-.1 1.007-.3 1.4a2.1 2.1 0 0 1-.84.9c-.36.207-.786.31-1.28.31Zm0-.72c.454 0 .817-.16 1.09-.48.274-.32.41-.79.41-1.41 0-.62-.136-1.087-.41-1.4-.273-.313-.636-.47-1.09-.47-.46 0-.826.157-1.1.47-.266.313-.4.78-.4 1.4 0 .62.134 1.09.4 1.41.274.32.64.48 1.1.48Zm3.719.63v-5.03h2.48c.594 0 1.034.113 1.32.34.294.227.44.553.44.98 0 .32-.11.59-.33.81-.22.213-.506.343-.86.39v-.13c.42.013.75.137.99.37.247.227.37.52.37.88 0 .427-.163.767-.49 1.02-.32.247-.77.37-1.35.37h-2.57Zm.86-.6h1.65c.34 0 .6-.07.78-.21.18-.147.27-.353.27-.62 0-.273-.09-.48-.27-.62-.18-.14-.44-.21-.78-.21h-1.65v1.66Zm0-2.26H245c.314 0 .557-.07.73-.21.174-.14.26-.333.26-.58 0-.253-.086-.447-.26-.58-.173-.133-.416-.2-.73-.2h-1.54v1.57Zm4.775 2.86v-5.03h.9v2.08h.91l1.62-2.08h.99l-1.88 2.45-.24-.28c.193.02.36.07.5.15.14.073.273.183.4.33.133.147.277.343.43.59l1.04 1.79h-.98l-.91-1.55c-.1-.18-.2-.32-.3-.42a.828.828 0 0 0-.34-.21c-.12-.04-.273-.06-.46-.06h-.78V217h-.9Zm5.449 0v-5.03h.83v4.17h-.27l3.12-4.17h.76V217h-.83v-4.18h.28l-3.13 4.18h-.76Zm8.113 1.3v-2.01h.55c.227-.34.39-.74.49-1.2.107-.46.16-1.007.16-1.64v-1.48h3.61v4.32h.8v2.01h-.78V217h-4.04v1.3h-.79Zm1.41-2h2.55v-3.63h-1.96v.94c0 .507-.05 1-.15 1.48-.1.473-.247.877-.44 1.21Zm5.253.7v-5.03h.83v4.17h-.27l3.12-4.17h.76V217h-.83v-4.18h.28l-3.13 4.18h-.76Zm7.946.09c-.44 0-.827-.103-1.16-.31a2.066 2.066 0 0 1-.78-.9c-.187-.393-.28-.86-.28-1.4 0-.54.093-1.003.28-1.39.186-.393.446-.693.78-.9.333-.207.72-.31 1.16-.31.446 0 .833.113 1.16.34.333.22.553.523.66.91h-.12l.11-1.16h.88l-.06.6c-.014.2-.02.397-.02.59V217h-.91v-1.15h.11c-.107.38-.327.683-.66.91-.327.22-.71.33-1.15.33Zm.21-.72c.453 0 .816-.16 1.09-.48.273-.32.41-.79.41-1.41 0-.62-.137-1.087-.41-1.4-.274-.313-.637-.47-1.09-.47-.454 0-.82.157-1.1.47-.274.313-.41.78-.41 1.4 0 .62.136 1.09.41 1.41.273.32.64.48 1.1.48Zm4.002.63v-5.03h3.57v.73h-2.66v4.3h-.91Zm4.502 0v-5.03h.9v2.08h2.66v-2.08h.9V217h-.9v-2.23h-2.66V217h-.9Zm8.165.09c-.493 0-.92-.103-1.28-.31a2.187 2.187 0 0 1-.84-.9c-.2-.393-.3-.86-.3-1.4 0-.533.1-.993.3-1.38.2-.393.48-.693.84-.9.36-.213.787-.32 1.28-.32.494 0 .92.107 1.28.32.367.207.647.507.84.9.2.387.3.847.3 1.38 0 .54-.1 1.007-.3 1.4a2.1 2.1 0 0 1-.84.9c-.36.207-.786.31-1.28.31Zm0-.72c.454 0 .817-.16 1.09-.48.274-.32.41-.79.41-1.41 0-.62-.136-1.087-.41-1.4-.273-.313-.636-.47-1.09-.47-.46 0-.826.157-1.1.47-.266.313-.4.78-.4 1.4 0 .62.134 1.09.4 1.41.274.32.64.48 1.1.48Zm5.43.72c-.44 0-.85-.057-1.23-.17a2.587 2.587 0 0 1-.94-.48l.3-.63c.246.2.526.35.84.45.313.1.653.15 1.02.15.48 0 .826-.07 1.04-.21a.713.713 0 0 0 .33-.63c0-.26-.09-.457-.27-.59-.18-.133-.444-.2-.79-.2h-1.22v-.66h1.11c.313 0 .556-.067.73-.2.18-.14.27-.33.27-.57a.67.67 0 0 0-.3-.58c-.2-.147-.507-.22-.92-.22a3.061 3.061 0 0 0-1.77.54l-.29-.59c.273-.213.593-.37.96-.47.366-.1.766-.15 1.2-.15.633 0 1.116.123 1.45.37.34.24.51.583.51 1.03 0 .313-.107.583-.32.81-.214.22-.497.353-.85.4v-.13c.4.02.723.143.97.37.246.22.37.513.37.88 0 .447-.187.807-.56 1.08-.374.267-.92.4-1.64.4Zm5.367 0c-.44 0-.827-.103-1.16-.31a2.066 2.066 0 0 1-.78-.9c-.187-.393-.28-.86-.28-1.4 0-.54.093-1.003.28-1.39.186-.393.446-.693.78-.9.333-.207.72-.31 1.16-.31.446 0 .833.113 1.16.34.333.22.553.523.66.91h-.12l.11-1.16h.88l-.06.6c-.014.2-.02.397-.02.59V217h-.91v-1.15h.11c-.107.38-.327.683-.66.91-.327.22-.71.33-1.15.33Zm.21-.72c.453 0 .816-.16 1.09-.48.273-.32.41-.79.41-1.41 0-.62-.137-1.087-.41-1.4-.274-.313-.637-.47-1.09-.47-.454 0-.82.157-1.1.47-.274.313-.41.78-.41 1.4 0 .62.136 1.09.41 1.41.273.32.64.48 1.1.48Zm6.718.63v-7.05h2.87c.76 0 1.344.16 1.75.48.407.32.61.77.61 1.35 0 .44-.133.807-.4 1.1-.26.293-.616.49-1.07.59v-.15c.52.06.924.24 1.21.54.294.3.44.697.44 1.19 0 .627-.21 1.11-.63 1.45-.42.333-1.013.5-1.78.5h-3Zm.9-.74h2.01c.494 0 .88-.093 1.16-.28.287-.193.43-.51.43-.95 0-.447-.143-.763-.43-.95-.28-.187-.666-.28-1.16-.28h-2.01v2.46Zm0-3.2h1.84c.527 0 .92-.1 1.18-.3.26-.207.39-.503.39-.89s-.13-.68-.39-.88c-.26-.207-.653-.31-1.18-.31h-1.84v2.38Zm5.927 3.94v-7.05h5.95V217h-.92v-6.27h-4.11V217h-.92Zm7.666 0v-7.05h2.92c.753 0 1.33.18 1.73.54.4.36.6.857.6 1.49s-.2 1.133-.6 1.5c-.4.36-.977.54-1.73.54h-1.99V217h-.93Zm.93-3.74h1.9c.493 0 .866-.11 1.12-.33.253-.227.38-.543.38-.95 0-.407-.127-.72-.38-.94-.254-.22-.627-.33-1.12-.33h-1.9v2.55Zm8.635 3.83c-.707 0-1.314-.147-1.82-.44-.5-.293-.884-.71-1.15-1.25-.267-.547-.4-1.19-.4-1.93s.133-1.38.4-1.92c.266-.54.65-.957 1.15-1.25.506-.293 1.113-.44 1.82-.44.506 0 .956.077 1.35.23a2.92 2.92 0 0 1 1.03.65l-.34.75c-.32-.28-.637-.48-.95-.6a2.785 2.785 0 0 0-1.07-.19c-.78 0-1.377.24-1.79.72-.414.48-.62 1.163-.62 2.05 0 .887.206 1.573.62 2.06.413.48 1.01.72 1.79.72.406 0 .763-.06 1.07-.18.313-.127.63-.33.95-.61l.34.74c-.294.287-.64.507-1.04.66-.394.153-.84.23-1.34.23Z" fill="#8E8E93"/><defs><linearGradient id="a" x1="-24.563" y1="497.459" x2="529.055" y2="346.289" gradientUnits="userSpaceOnUse"><stop stop-color="#6A8CF9"/><stop offset="1" stop-color="#DF6449"/></linearGradient></defs></svg>