<svg width="60" height="60" viewBox="0 0 60 60" fill="none" xmlns="http://www.w3.org/2000/svg">
<mask id="mask0_866_21336" style="mask-type:alpha" maskUnits="userSpaceOnUse" x="5" y="1" width="49" height="58">
<g clip-path="url(#clip0_866_21336)">
<path d="M42.1377 36.4498V20.7627C42.1377 19.6669 42.9952 18.7729 44.0432 18.7729C45.1008 18.7729 45.9487 19.6669 45.9487 20.7627V36.4498" stroke="#FFED00" stroke-linecap="round" stroke-linejoin="round"/>
<path d="M45.9395 37.257V22.6753C45.9395 21.5795 46.7969 20.6855 47.845 20.6855C48.9025 20.6855 49.7505 21.5795 49.7505 22.6753V38.3624" stroke="#FFED00" stroke-linecap="round" stroke-linejoin="round"/>
<path d="M42.1283 36.4499V23.1562C42.1283 22.0604 41.2423 21.1665 40.1561 21.1665C39.07 21.1665 38.1839 22.0604 38.1839 23.1562V39.6027C38.1839 39.6027 37.4789 40.6889 36.0879 39.9776C35.1923 39.5162 34.897 38.5454 33.8299 36.8824C32.7628 35.2195 31.3622 35.2099 30.8382 35.2388C30.3142 35.2676 29.4949 35.4791 29.6854 36.1615C29.876 36.844 33.3344 45.197 34.573 47.6577C35.8116 50.1184 36.9358 51.0508 37.517 51.8679C38.0982 52.6849 38.1458 54.4151 38.1458 55.2033V58.6733H49.3311C49.3311 58.6733 49.1215 55.2802 49.3311 54.2228C49.5407 53.1655 50.4363 52.1562 51.1699 51.3104C51.9036 50.4645 53.0564 47.0714 53.3708 43.8897C53.4947 42.6498 53.5804 40.1698 53.628 37.488L53.6852 33.3355V26.3186C53.6852 25.2229 52.8087 24.3289 51.7225 24.3289C50.6364 24.3289 49.7599 25.2229 49.7599 26.3186V38.1609" stroke="#FFED00" stroke-linecap="round" stroke-linejoin="round"/>
<path d="M16.8618 36.4498V20.7627C16.8618 19.6669 16.0043 18.7729 14.9563 18.7729C13.8987 18.7729 13.0508 19.6669 13.0508 20.7627V36.4498" stroke="#FFED00" stroke-linecap="round" stroke-linejoin="round"/>
<path d="M13.0512 37.257V22.6753C13.0512 21.5795 12.1938 20.6855 11.1457 20.6855C10.0882 20.6855 9.24023 21.5795 9.24023 22.6753V38.3624" stroke="#FFED00" stroke-linecap="round" stroke-linejoin="round"/>
<path d="M16.8716 36.4499V23.1562C16.8716 22.0604 17.7576 21.1665 18.8438 21.1665C19.9299 21.1665 20.816 22.0604 20.816 23.1562V39.6027C20.816 39.6027 21.521 40.6889 22.912 39.9776C23.8076 39.5162 24.1029 38.5454 25.17 36.8824C26.2371 35.2195 27.6377 35.2099 28.1617 35.2388C28.6857 35.2676 29.505 35.4791 29.3145 36.1615C29.1239 36.844 25.6655 45.197 24.4269 47.6577C23.1883 50.1184 22.0641 51.0508 21.4829 51.8679C20.9017 52.6849 20.8541 54.4151 20.8541 55.2033V58.6733H9.67829C9.67829 58.6733 9.8879 55.2802 9.67829 54.2228C9.46869 53.1655 8.5731 52.1562 7.83948 51.3104C7.10586 50.4645 5.95303 47.0714 5.63863 43.8897C5.51477 42.6498 5.42902 40.1698 5.38138 37.488L5.32422 33.3355V26.3186C5.32422 25.2229 6.20075 24.3289 7.28689 24.3289C8.37302 24.3289 9.24955 25.2229 9.24955 26.3186V38.1609" stroke="#FFED00" stroke-linecap="round" stroke-linejoin="round"/>
<path d="M30.0814 12.7931L24.2539 18.6724L30.0814 24.5516L35.9089 18.6724L30.0814 12.7931Z" stroke="#FFED00" stroke-linecap="round" stroke-linejoin="round"/>
<path d="M40.2174 6.84865L35.6699 11.4365L40.2174 16.0244L44.7648 11.4365L40.2174 6.84865Z" stroke="#FFED00" stroke-linecap="round" stroke-linejoin="round"/>
<path d="M22.9043 1.42766L17.7842 6.59326L22.9043 11.7589L28.0244 6.59326L22.9043 1.42766Z" stroke="#FFED00" stroke-linecap="round" stroke-linejoin="round"/>
</g>
</mask>
<g mask="url(#mask0_866_21336)">
<rect width="60" height="60" fill="url(#paint0_linear_866_21336)"/>
</g>
<defs>
<linearGradient id="paint0_linear_866_21336" x1="60" y1="8.4" x2="10.2" y2="60" gradientUnits="userSpaceOnUse">
<stop offset="0.02" stop-color="#DF6449"/>
<stop offset="1" stop-color="#6A8CF9"/>
</linearGradient>
<clipPath id="clip0_866_21336">
<rect width="49" height="58" fill="white" transform="translate(5 1)"/>
</clipPath>
</defs>
</svg>
