<svg width="60" height="60" viewBox="0 0 60 60" fill="none" xmlns="http://www.w3.org/2000/svg">
<mask id="mask0_105_3657" style="mask-type:alpha" maskUnits="userSpaceOnUse" x="11" y="1" width="39" height="58">
<path d="M41.8349 19.328C42.9076 15.1982 43.0864 5.27083 43.0417 2.25391L31.5774 4.77977V15.5066C31.5774 17.1827 31.9126 20.2666 33.1194 23.4176C34.3261 26.5686 33.991 29.9207 33.991 33.8763C33.991 37.8318 35.4659 47.553 35.9352 50.1676C36.4045 52.7823 34.8327 54.8363 34.8327 56.7806C34.8327 58.2694 37.5532 58.2694 39.4303 58.2694C41.3075 58.2694 44.4062 58.1885 43.5346 56.7806C42.8374 55.6542 40.8884 52.2093 41.0718 51.1866C41.8349 46.9305 44.9725 37.1479 43.0417 33.8763C40.6282 29.7867 40.4941 24.4903 41.8349 19.328Z" stroke="#8484D3" stroke-linejoin="round"/>
<path d="M48.6555 7.24365C48.6555 7.24365 47.6103 8.32754 47.3854 10.1724C47.1604 12.0172 48.662 12.0955 48.1564 14.5845C47.6508 17.0736 46.3088 17.007 46.027 19.6835C45.7831 21.9777 47.6513 22.7724 46.2711 25.9249" stroke="#8484D3" stroke-linecap="round" stroke-linejoin="round"/>
<path d="M47.5845 37.7404C47.5845 37.7404 46.1726 38.7702 46.8668 41.0438C47.561 43.3175 47.3317 45.4225 45.2193 46.7594" stroke="#8484D3" stroke-linecap="round" stroke-linejoin="round"/>
<path d="M19.2559 19.3279C18.1832 15.198 18.0044 5.01693 18.0491 2L29.5134 4.7796V15.5064C29.5134 17.1825 29.1782 20.2664 27.9714 23.4175C26.7647 26.5685 27.0999 29.9206 27.0999 33.8761C27.0999 37.8316 25.6249 47.5528 25.1556 50.1674C24.6863 52.7821 26.2581 54.8362 26.2581 56.7804C26.2581 58.2692 23.5377 58.2692 21.6605 58.2692C19.7833 58.2692 16.6846 58.1883 17.5562 56.7804C18.2534 55.6541 20.2024 52.2091 20.0191 51.1864C19.2559 46.9303 16.1183 37.1478 18.0491 33.8761C20.4626 29.7865 20.5967 24.4901 19.2559 19.3279Z" stroke="#8484D3" stroke-linejoin="round"/>
<path d="M12.4573 7.24072C12.4573 7.24072 13.4999 8.32708 13.7205 10.1724C13.9411 12.0178 12.4393 12.0926 12.939 14.5828C13.4386 17.073 14.7808 17.0096 15.0563 19.6867C15.2947 21.9816 13.4247 22.7718 14.7973 25.9275" stroke="#8484D3" stroke-linecap="round" stroke-linejoin="round"/>
<path d="M13.3801 37.7404C13.3801 37.7404 14.792 38.7702 14.0978 41.0438C13.4036 43.3175 13.6329 45.4225 15.7453 46.7594" stroke="#8484D3" stroke-linecap="round" stroke-linejoin="round"/>
</mask>
<g mask="url(#mask0_105_3657)">
<rect x="-0.101562" y="0.26123" width="60" height="60" fill="url(#paint0_linear_105_3657)"/>
</g>
<defs>
<linearGradient id="paint0_linear_105_3657" x1="59.8984" y1="8.66123" x2="10.0984" y2="60.2612" gradientUnits="userSpaceOnUse">
<stop offset="0.02" stop-color="#DF6449"/>
<stop offset="1" stop-color="#6A8CF9"/>
</linearGradient>
</defs>
</svg>
