<svg width="60" height="60" viewBox="0 0 60 60" fill="none" xmlns="http://www.w3.org/2000/svg">
<mask id="mask0_1_761" style="mask-type:alpha" maskUnits="userSpaceOnUse" x="5" y="1" width="49" height="58">
<g clip-path="url(#clip0_1_761)">
<path d="M46.1848 13.5225C46.2609 14.2514 46.1739 15.013 45.8805 15.7419C45.0979 17.6785 43.1631 18.7991 41.1848 18.6142" stroke="#FFED00" stroke-linecap="round" stroke-linejoin="round"/>
<path d="M44.6522 13.7402C44.7066 14.2189 44.6522 14.7085 44.4566 15.1872C43.9457 16.4493 42.6848 17.1782 41.3914 17.0586" stroke="#FFED00" stroke-linecap="round" stroke-linejoin="round"/>
<path d="M6.44558 25.7744C6.27166 25.0563 6.26079 24.2947 6.44558 23.5331C6.95645 21.5095 8.72819 20.1387 10.7064 20.0625" stroke="#FFED00" stroke-linecap="round" stroke-linejoin="round"/>
<path d="M7.93464 25.3612C7.81508 24.8933 7.81508 24.3929 7.93464 23.8924C8.2716 22.5759 9.42378 21.6838 10.7173 21.6294" stroke="#FFED00" stroke-linecap="round" stroke-linejoin="round"/>
<path d="M19.5979 13.8815C22.2935 15.0021 24.0218 13.925 24.9348 12.6956C26.2827 10.8787 23.9783 7.02723 23.9783 7.02723C23.7609 5.00359 22.8262 5.26471 21.7609 5.25383C20.6957 5.24295 21.0762 5.10151 19.7827 5.28647C18.4892 5.47142 18.8696 6.24388 18.3696 7.28834C17.8696 8.3328 16.5001 8.59391 16.5001 8.59391C15.6957 9.0835 15.924 10.5849 16.1957 11.6511C16.3696 12.3801 15.8588 12.7173 16.6522 13.381C17.5653 14.1426 18.2175 13.5116 18.2175 13.5116L19.6088 13.8815H19.5979Z" stroke="#FFED00" stroke-linecap="round" stroke-linejoin="round"/>
<path d="M22.163 4.90576C20.7935 0.717051 18.2609 1.3916 18.2609 1.3916C18.2609 1.3916 18.0217 2.66453 17.1739 2.90388C16.3261 3.14324 15.4348 3.27379 14.163 5.21039C12.337 7.98473 13.6196 9.97573 13.6196 9.97573C14.0435 10.6068 15.6087 12.0211 15.9674 12.4454" stroke="#FFED00" stroke-linecap="round" stroke-linejoin="round"/>
<path d="M23.1412 11.3578C23.1412 11.3578 22.8586 10.5635 22.0543 10.9008C21.4238 11.1728 21.3912 11.6842 21.8151 12.3805C22.239 13.0768 23.739 13.0441 23.1412 11.3578Z" stroke="#FFED00" stroke-linecap="round" stroke-linejoin="round"/>
<path d="M19.7825 10.9006C19.7934 10.3131 19.4673 9.99761 18.8804 9.87793" stroke="#FFED00" stroke-linecap="round" stroke-linejoin="round"/>
<path d="M22.2283 8.74633C22.2392 8.15882 21.9131 7.84331 21.3262 7.72363" stroke="#FFED00" stroke-linecap="round" stroke-linejoin="round"/>
<path d="M25.1088 12.8479C25.6631 15.2632 27.0327 14.8824 27.9566 14.4364C28.6848 14.0882 29.6848 13.8706 30.4675 13.6857C32.6196 13.1852 36.1848 12.663 37.4131 11.2704C40.1631 8.13699 35.0544 3.55661 38.4675 2.87118C41.4348 2.2728 42.1414 6.65734 42.4675 10.0409C42.6631 12.0102 41.6305 14.556 38.9892 15.9922C35.9675 17.635 32.7283 19.3105 32.7283 19.3105L35.7935 27.3724C36.0327 28.0252 36.4457 28.6018 37.0001 29.0261C38.8588 30.4623 45.1522 31.5502 47.2935 33.0299C49.0544 35.8369 52.2501 43.7138 53.4457 46.7384C54.6414 49.7629 50.1088 51.9498 48.5001 48.3159C47.2827 45.5525 43.2175 37.4688 43.2175 37.4688L33.8914 34.553L35.8261 43.8552C35.8914 44.1816 35.9022 44.508 35.8696 44.8344C35.6196 46.8254 35.3914 54.2454 35.0218 56.5737C34.6522 58.9019 30.4892 59.8376 29.7175 55.9318C28.9457 52.0259 30.3153 48.6423 29.8805 45.5742C29.5218 43.0828 25.9022 33.922 25.5653 33.378L20.8914 23.1402C20.8914 23.1402 16.0327 25.0441 14.2718 27.4921C13.5001 28.5692 12.4457 32.66 11.9348 34.4769C11.3805 36.457 8.79354 36.8487 8.51093 33.4433C8.34789 31.5611 9.09789 26.0342 12.5653 23.0205C15.0218 20.8881 19.4783 17.8417 19.9348 17.5697C21.3044 16.732 22.2718 16.7973 21.4675 14.4364" stroke="#FFED00" stroke-linecap="round" stroke-linejoin="round"/>
<path d="M21.5435 16.6561C21.5435 16.6561 24.913 18.299 26.4674 14.6978" stroke="#FFED00" stroke-linecap="round" stroke-linejoin="round"/>
<path d="M29.5543 46.249H23.0435" stroke="#FFED00" stroke-linecap="round" stroke-linejoin="round"/>
<path d="M20.337 46.249H18.2283" stroke="#FFED00" stroke-linecap="round" stroke-linejoin="round"/>
<path d="M29.3695 56.5522H19.7935" stroke="#FFED00" stroke-linecap="round" stroke-linejoin="round"/>
<path d="M24.4892 51.123H14.9131" stroke="#FFED00" stroke-linecap="round" stroke-linejoin="round"/>
<path d="M49.2499 50.2202H39.6738" stroke="#FFED00" stroke-linecap="round" stroke-linejoin="round"/>
</g>
</mask>
<g mask="url(#mask0_1_761)">
<rect width="60" height="60" fill="url(#paint0_linear_1_761)"/>
</g>
<defs>
<linearGradient id="paint0_linear_1_761" x1="60" y1="8.4" x2="10.2" y2="60" gradientUnits="userSpaceOnUse">
<stop offset="0.02" stop-color="#DF6449"/>
<stop offset="1" stop-color="#6A8CF9"/>
</linearGradient>
<clipPath id="clip0_1_761">
<rect width="49" height="58" fill="white" transform="translate(5 1)"/>
</clipPath>
</defs>
</svg>
