<svg width="22" height="30" viewBox="0 0 22 30" fill="none" xmlns="http://www.w3.org/2000/svg">
<path fill-rule="evenodd" clip-rule="evenodd" d="M1.72002 0.472253C1.41152 0.613807 1.13404 0.876163 0.973093 1.17837L0.85202 1.40577V14.9073V28.4089L0.973093 28.6363C1.13404 28.9385 1.41152 29.2009 1.72002 29.3424C1.97023 29.4573 2.03872 29.4581 11.3521 29.4581C20.6654 29.4581 20.7339 29.4573 20.9841 29.3424C21.2926 29.2009 21.5701 28.9385 21.731 28.6363L21.8521 28.4089L21.8668 17.0392C21.8771 9.16493 21.8635 5.62473 21.8225 5.52411C21.7901 5.44418 20.6488 4.2482 19.2863 2.86644L16.8092 0.354065L9.3906 0.355316C2.05121 0.356566 1.96934 0.357817 1.72002 0.472253ZM16.1227 3.21071L16.1401 5.10093L16.3031 5.39961C16.4757 5.71592 16.7056 5.92643 17.0501 6.08384C17.23 6.16599 17.5191 6.18253 19.0661 6.19879L20.8721 6.21784V17.1892C20.8721 24.237 20.8525 28.1978 20.8173 28.2646C20.7871 28.3217 20.6826 28.3968 20.5849 28.4314C20.3331 28.5204 2.37103 28.5204 2.11919 28.4314C2.02153 28.3968 1.91698 28.3217 1.88685 28.2646C1.82536 28.1478 1.8071 1.73685 1.86842 1.57466C1.96402 1.32169 1.86512 1.32504 9.17864 1.32271L16.1052 1.32049L16.1227 3.21071ZM18.6881 3.62286L20.2273 5.1862H18.8112H17.395L17.2576 5.04664L17.1201 4.90713V3.4833C17.1201 2.70021 17.1266 2.05953 17.1345 2.05953C17.1424 2.05953 17.8415 2.76303 18.6881 3.62286ZM5.05204 8.73117C4.54535 8.97176 4.24099 9.39937 4.19624 9.93352C4.12512 10.7831 4.76873 11.4972 5.60442 11.4958C6.4316 11.4945 7.03758 10.8818 7.03758 10.0468C7.03758 9.0024 5.97022 8.2952 5.05204 8.73117ZM5.929 9.7179C6.23471 9.98565 6.01009 10.53 5.59384 10.53C5.45373 10.53 5.24899 10.3693 5.19069 10.2137C5.0302 9.78515 5.58241 9.41427 5.929 9.7179ZM8.94405 10.0468V10.53H13.7321H18.5201V10.0468V9.56355H13.7321H8.94405V10.0468ZM5.38804 13.468C5.06055 13.5426 4.87547 13.6336 4.67191 13.8199C3.54154 14.8542 4.55643 16.7269 6.01597 16.2999C6.2729 16.2247 6.40013 16.1424 6.6299 15.9028C6.94036 15.5791 7.03943 15.3384 7.03943 14.9073C7.03943 14.4761 6.94042 14.2356 6.6299 13.9123C6.26405 13.5314 5.81482 13.3707 5.38804 13.468ZM8.94405 14.9073V15.419H13.7321H18.5201V14.9073V14.3957H13.7321H8.94405V14.9073ZM5.86006 14.5072C6.03058 14.5999 6.11363 14.8779 6.03114 15.08C5.94938 15.2805 5.82316 15.3629 5.60173 15.3603C5.40618 15.3581 5.26971 15.2568 5.19562 15.0591C5.12976 14.8832 5.19831 14.6457 5.34822 14.53C5.46213 14.4422 5.71928 14.4308 5.86006 14.5072ZM4.96143 18.477C3.88751 19.0465 3.93998 20.5554 5.05204 21.0835C5.74341 21.4117 6.60638 21.0731 6.93163 20.3459C7.15843 19.8388 7.01193 19.0841 6.6131 18.7053C6.17843 18.2925 5.48912 18.1972 4.96143 18.477ZM5.8296 19.3489C6.19422 19.5175 6.11682 20.1415 5.72404 20.2005C5.22188 20.2759 4.95964 19.6668 5.36894 19.3757C5.52009 19.2683 5.64009 19.2613 5.8296 19.3489ZM8.94405 19.7679V20.2511H13.7321H18.5201V19.7679V19.2847H13.7321H8.94405V19.7679ZM5.05204 23.2844C4.54535 23.525 4.24099 23.9526 4.19624 24.4868C4.12512 25.3364 4.76873 26.0505 5.60442 26.0491C6.4316 26.0478 7.03758 25.4351 7.03758 24.6C7.03758 23.5557 5.97022 22.8485 5.05204 23.2844ZM5.929 24.2712C6.23471 24.5389 6.01009 25.0832 5.59384 25.0832C5.45373 25.0832 5.24899 24.9226 5.19069 24.767C5.0302 24.3384 5.58241 23.9675 5.929 24.2712ZM8.94405 24.6V25.0832H13.7321H18.5201V24.6V24.1168H13.7321H8.94405V24.6Z" fill="black"/>
</svg>
